<?xml version="1.0" encoding="UTF-8" standalone="no"?>
<!DOCTYPE svg PUBLIC "-//W3C//DTD SVG 1.1//EN"
 "http://www.w3.org/Graphics/SVG/1.1/DTD/svg11.dtd">
<!-- Generated by graphviz version 2.43.0 (0)
 -->
<!-- Title: snakemake_dag Pages: 1 -->
<svg width="836pt" height="332pt"
 viewBox="0.00 0.00 835.50 332.00" xmlns="http://www.w3.org/2000/svg" xmlns:xlink="http://www.w3.org/1999/xlink">
<g id="graph0" class="graph" transform="scale(1 1) rotate(0) translate(4 328)">
<title>snakemake_dag</title>
<polygon fill="white" stroke="transparent" points="-4,4 -4,-328 831.5,-328 831.5,4 -4,4"/>
<!-- 0 -->
<g id="node1" class="node">
<title>0</title>
<path fill="none" stroke="#78d856" stroke-width="2" stroke-dasharray="5,2" d="M351,-36C351,-36 321,-36 321,-36 315,-36 309,-30 309,-24 309,-24 309,-12 309,-12 309,-6 315,0 321,0 321,0 351,0 351,0 357,0 363,-6 363,-12 363,-12 363,-24 363,-24 363,-30 357,-36 351,-36"/>
<text text-anchor="middle" x="336" y="-15.5" font-family="sans" font-size="10.00">all</text>
</g>
<!-- 1 -->
<g id="node2" class="node">
<title>1</title>
<path fill="none" stroke="#56d87b" stroke-width="2" stroke-dasharray="5,2" d="M379,-108C379,-108 293,-108 293,-108 287,-108 281,-102 281,-96 281,-96 281,-84 281,-84 281,-78 287,-72 293,-72 293,-72 379,-72 379,-72 385,-72 391,-78 391,-84 391,-84 391,-96 391,-96 391,-102 385,-108 379,-108"/>
<text text-anchor="middle" x="336" y="-87.5" font-family="sans" font-size="10.00">summarize_results</text>
</g>
<!-- 1&#45;&gt;0 -->
<g id="edge1" class="edge">
<title>1&#45;&gt;0</title>
<path fill="none" stroke="grey" stroke-width="2" d="M336,-71.7C336,-63.98 336,-54.71 336,-46.11"/>
<polygon fill="grey" stroke="grey" stroke-width="2" points="339.5,-46.1 336,-36.1 332.5,-46.1 339.5,-46.1"/>
</g>
<!-- 2 -->
<g id="node3" class="node">
<title>2</title>
<path fill="none" stroke="#9fd856" stroke-width="2" stroke-dasharray="5,2" d="M50,-180C50,-180 12,-180 12,-180 6,-180 0,-174 0,-168 0,-168 0,-156 0,-156 0,-150 6,-144 12,-144 12,-144 50,-144 50,-144 56,-144 62,-150 62,-156 62,-156 62,-168 62,-168 62,-174 56,-180 50,-180"/>
<text text-anchor="middle" x="31" y="-159.5" font-family="sans" font-size="10.00">plot_MX1</text>
</g>
<!-- 2&#45;&gt;1 -->
<g id="edge2" class="edge">
<title>2&#45;&gt;1</title>
<path fill="none" stroke="grey" stroke-width="2" d="M62.22,-147.02C65.16,-145.92 68.12,-144.89 71,-144 137.75,-123.38 216.5,-108.82 270.72,-100.24"/>
<polygon fill="grey" stroke="grey" stroke-width="2" points="271.54,-103.65 280.88,-98.66 270.46,-96.74 271.54,-103.65"/>
</g>
<!-- 3 -->
<g id="node4" class="node">
<title>3</title>
<path fill="none" stroke="#56c9d8" stroke-width="2" stroke-dasharray="5,2" d="M367.5,-324C367.5,-324 254.5,-324 254.5,-324 248.5,-324 242.5,-318 242.5,-312 242.5,-312 242.5,-300 242.5,-300 242.5,-294 248.5,-288 254.5,-288 254.5,-288 367.5,-288 367.5,-288 373.5,-288 379.5,-294 379.5,-300 379.5,-300 379.5,-312 379.5,-312 379.5,-318 373.5,-324 367.5,-324"/>
<text text-anchor="middle" x="311" y="-303.5" font-family="sans" font-size="10.00">load_and_annotate_data</text>
</g>
<!-- 3&#45;&gt;2 -->
<g id="edge10" class="edge">
<title>3&#45;&gt;2</title>
<path fill="none" stroke="grey" stroke-width="2" d="M242.28,-295.02C204.06,-287.32 156.74,-274.12 119,-252 91.12,-235.65 65.92,-208.26 49.71,-188.17"/>
<polygon fill="grey" stroke="grey" stroke-width="2" points="52.27,-185.75 43.33,-180.06 46.77,-190.08 52.27,-185.75"/>
</g>
<!-- 4 -->
<g id="node5" class="node">
<title>4</title>
<path fill="none" stroke="#d85656" stroke-width="2" stroke-dasharray="5,2" d="M157.5,-180C157.5,-180 92.5,-180 92.5,-180 86.5,-180 80.5,-174 80.5,-168 80.5,-168 80.5,-156 80.5,-156 80.5,-150 86.5,-144 92.5,-144 92.5,-144 157.5,-144 157.5,-144 163.5,-144 169.5,-150 169.5,-156 169.5,-156 169.5,-168 169.5,-168 169.5,-174 163.5,-180 157.5,-180"/>
<text text-anchor="middle" x="125" y="-159.5" font-family="sans" font-size="10.00">plot_MX1_MX2</text>
</g>
<!-- 3&#45;&gt;4 -->
<g id="edge11" class="edge">
<title>3&#45;&gt;4</title>
<path fill="none" stroke="grey" stroke-width="2" d="M242.33,-301.4C205.66,-295.73 162.87,-282.44 137,-252 122.69,-235.16 120.54,-209.68 121.48,-190.3"/>
<polygon fill="grey" stroke="grey" stroke-width="2" points="124.98,-190.49 122.26,-180.25 118,-189.94 124.98,-190.49"/>
</g>
<!-- 5 -->
<g id="node6" class="node">
<title>5</title>
<path fill="none" stroke="#d8c356" stroke-width="2" stroke-dasharray="5,2" d="M277,-180C277,-180 199,-180 199,-180 193,-180 187,-174 187,-168 187,-168 187,-156 187,-156 187,-150 193,-144 199,-144 199,-144 277,-144 277,-144 283,-144 289,-150 289,-156 289,-156 289,-168 289,-168 289,-174 283,-180 277,-180"/>
<text text-anchor="middle" x="238" y="-159.5" font-family="sans" font-size="10.00">PCA_and_3D_plot</text>
</g>
<!-- 3&#45;&gt;5 -->
<g id="edge12" class="edge">
<title>3&#45;&gt;5</title>
<path fill="none" stroke="grey" stroke-width="2" d="M242.15,-301.12C207.68,-295.26 168.74,-281.88 147,-252 137.59,-239.06 139.03,-229.87 147,-216 154.48,-202.99 166.51,-192.88 179.41,-185.14"/>
<polygon fill="grey" stroke="grey" stroke-width="2" points="181.38,-188.05 188.44,-180.15 177.99,-181.93 181.38,-188.05"/>
</g>
<!-- 6 -->
<g id="node7" class="node">
<title>6</title>
<path fill="none" stroke="#c6d856" stroke-width="2" stroke-dasharray="5,2" d="M299.5,-252C299.5,-252 168.5,-252 168.5,-252 162.5,-252 156.5,-246 156.5,-240 156.5,-240 156.5,-228 156.5,-228 156.5,-222 162.5,-216 168.5,-216 168.5,-216 299.5,-216 299.5,-216 305.5,-216 311.5,-222 311.5,-228 311.5,-228 311.5,-240 311.5,-240 311.5,-246 305.5,-252 299.5,-252"/>
<text text-anchor="middle" x="234" y="-231.5" font-family="sans" font-size="10.00">histogram_of_selected_data</text>
</g>
<!-- 3&#45;&gt;6 -->
<g id="edge13" class="edge">
<title>3&#45;&gt;6</title>
<path fill="none" stroke="grey" stroke-width="2" d="M291.97,-287.7C282.46,-279.05 270.79,-268.45 260.43,-259.03"/>
<polygon fill="grey" stroke="grey" stroke-width="2" points="262.57,-256.24 252.81,-252.1 257.86,-261.42 262.57,-256.24"/>
</g>
<!-- 7 -->
<g id="node8" class="node">
<title>7</title>
<path fill="none" stroke="#59d856" stroke-width="2" stroke-dasharray="5,2" d="M434,-252C434,-252 342,-252 342,-252 336,-252 330,-246 330,-240 330,-240 330,-228 330,-228 330,-222 336,-216 342,-216 342,-216 434,-216 434,-216 440,-216 446,-222 446,-228 446,-228 446,-240 446,-240 446,-246 440,-252 434,-252"/>
<text text-anchor="middle" x="388" y="-231.5" font-family="sans" font-size="10.00">pairwise_correlation</text>
</g>
<!-- 3&#45;&gt;7 -->
<g id="edge14" class="edge">
<title>3&#45;&gt;7</title>
<path fill="none" stroke="grey" stroke-width="2" d="M330.03,-287.7C339.54,-279.05 351.21,-268.45 361.57,-259.03"/>
<polygon fill="grey" stroke="grey" stroke-width="2" points="364.14,-261.42 369.19,-252.1 359.43,-256.24 364.14,-261.42"/>
</g>
<!-- 9 -->
<g id="node10" class="node">
<title>9</title>
<path fill="none" stroke="#56a2d8" stroke-width="2" stroke-dasharray="5,2" d="M575.5,-252C575.5,-252 476.5,-252 476.5,-252 470.5,-252 464.5,-246 464.5,-240 464.5,-240 464.5,-228 464.5,-228 464.5,-222 470.5,-216 476.5,-216 476.5,-216 575.5,-216 575.5,-216 581.5,-216 587.5,-222 587.5,-228 587.5,-228 587.5,-240 587.5,-240 587.5,-246 581.5,-252 575.5,-252"/>
<text text-anchor="middle" x="526" y="-231.5" font-family="sans" font-size="10.00">spearman_correlation</text>
</g>
<!-- 3&#45;&gt;9 -->
<g id="edge16" class="edge">
<title>3&#45;&gt;9</title>
<path fill="none" stroke="grey" stroke-width="2" d="M363.32,-287.97C393.62,-278.1 431.95,-265.62 463.79,-255.25"/>
<polygon fill="grey" stroke="grey" stroke-width="2" points="465.02,-258.53 473.45,-252.11 462.85,-251.88 465.02,-258.53"/>
</g>
<!-- 11 -->
<g id="node12" class="node">
<title>11</title>
<path fill="none" stroke="#d87d56" stroke-width="2" stroke-dasharray="5,2" d="M676.5,-252C676.5,-252 617.5,-252 617.5,-252 611.5,-252 605.5,-246 605.5,-240 605.5,-240 605.5,-228 605.5,-228 605.5,-222 611.5,-216 617.5,-216 617.5,-216 676.5,-216 676.5,-216 682.5,-216 688.5,-222 688.5,-228 688.5,-228 688.5,-240 688.5,-240 688.5,-246 682.5,-252 676.5,-252"/>
<text text-anchor="middle" x="647" y="-231.5" font-family="sans" font-size="10.00">wilcoxon_test</text>
</g>
<!-- 3&#45;&gt;11 -->
<g id="edge18" class="edge">
<title>3&#45;&gt;11</title>
<path fill="none" stroke="grey" stroke-width="2" d="M379.53,-294.98C435.24,-286.21 515.96,-272.1 595.23,-252"/>
<polygon fill="grey" stroke="grey" stroke-width="2" points="596.58,-255.27 605.39,-249.39 594.83,-248.49 596.58,-255.27"/>
</g>
<!-- 13 -->
<g id="node14" class="node">
<title>13</title>
<path fill="none" stroke="#567bd8" stroke-width="2" stroke-dasharray="5,2" d="M793.5,-252C793.5,-252 722.5,-252 722.5,-252 716.5,-252 710.5,-246 710.5,-240 710.5,-240 710.5,-228 710.5,-228 710.5,-222 716.5,-216 722.5,-216 722.5,-216 793.5,-216 793.5,-216 799.5,-216 805.5,-222 805.5,-228 805.5,-228 805.5,-240 805.5,-240 805.5,-246 799.5,-252 793.5,-252"/>
<text text-anchor="middle" x="758" y="-231.5" font-family="sans" font-size="10.00">jonckheere_test</text>
</g>
<!-- 3&#45;&gt;13 -->
<g id="edge20" class="edge">
<title>3&#45;&gt;13</title>
<path fill="none" stroke="grey" stroke-width="2" d="M379.81,-298.39C457.39,-290.29 587.04,-274.76 697,-252 698.08,-251.78 699.16,-251.55 700.25,-251.31"/>
<polygon fill="grey" stroke="grey" stroke-width="2" points="701.26,-254.67 710.2,-248.98 699.67,-247.85 701.26,-254.67"/>
</g>
<!-- 4&#45;&gt;1 -->
<g id="edge3" class="edge">
<title>4&#45;&gt;1</title>
<path fill="none" stroke="grey" stroke-width="2" d="M169.75,-146.15C200.36,-136 241.31,-122.41 274.92,-111.26"/>
<polygon fill="grey" stroke="grey" stroke-width="2" points="276.25,-114.51 284.64,-108.04 274.04,-107.87 276.25,-114.51"/>
</g>
<!-- 5&#45;&gt;1 -->
<g id="edge4" class="edge">
<title>5&#45;&gt;1</title>
<path fill="none" stroke="grey" stroke-width="2" d="M261.97,-143.88C274.55,-134.89 290.13,-123.76 303.75,-114.03"/>
<polygon fill="grey" stroke="grey" stroke-width="2" points="305.83,-116.85 311.93,-108.19 301.76,-111.15 305.83,-116.85"/>
</g>
<!-- 6&#45;&gt;1 -->
<g id="edge5" class="edge">
<title>6&#45;&gt;1</title>
<path fill="none" stroke="grey" stroke-width="2" d="M259.91,-216C272.69,-206.59 287.56,-193.99 298,-180 311.99,-161.26 322.01,-136.58 328.23,-117.96"/>
<polygon fill="grey" stroke="grey" stroke-width="2" points="331.6,-118.91 331.3,-108.32 324.93,-116.79 331.6,-118.91"/>
</g>
<!-- 7&#45;&gt;1 -->
<g id="edge6" class="edge">
<title>7&#45;&gt;1</title>
<path fill="none" stroke="grey" stroke-width="2" d="M381.73,-215.87C372.79,-191.46 356.3,-146.43 345.75,-117.64"/>
<polygon fill="grey" stroke="grey" stroke-width="2" points="349.02,-116.38 342.29,-108.19 342.45,-118.78 349.02,-116.38"/>
</g>
<!-- 8 -->
<g id="node9" class="node">
<title>8</title>
<path fill="none" stroke="#56d8a2" stroke-width="2" stroke-dasharray="5,2" d="M529.5,-180C529.5,-180 394.5,-180 394.5,-180 388.5,-180 382.5,-174 382.5,-168 382.5,-168 382.5,-156 382.5,-156 382.5,-150 388.5,-144 394.5,-144 394.5,-144 529.5,-144 529.5,-144 535.5,-144 541.5,-150 541.5,-156 541.5,-156 541.5,-168 541.5,-168 541.5,-174 535.5,-180 529.5,-180"/>
<text text-anchor="middle" x="462" y="-159.5" font-family="sans" font-size="10.00">spearman_correlation_to_pdf</text>
</g>
<!-- 8&#45;&gt;1 -->
<g id="edge7" class="edge">
<title>8&#45;&gt;1</title>
<path fill="none" stroke="grey" stroke-width="2" d="M431.18,-143.88C414.55,-134.64 393.84,-123.13 375.98,-113.21"/>
<polygon fill="grey" stroke="grey" stroke-width="2" points="377.38,-109.99 366.94,-108.19 373.98,-116.11 377.38,-109.99"/>
</g>
<!-- 9&#45;&gt;8 -->
<g id="edge15" class="edge">
<title>9&#45;&gt;8</title>
<path fill="none" stroke="grey" stroke-width="2" d="M510.18,-215.7C502.43,-207.22 492.96,-196.86 484.48,-187.58"/>
<polygon fill="grey" stroke="grey" stroke-width="2" points="486.97,-185.12 477.64,-180.1 481.8,-189.85 486.97,-185.12"/>
</g>
<!-- 10 -->
<g id="node11" class="node">
<title>10</title>
<path fill="none" stroke="#d8a456" stroke-width="2" stroke-dasharray="5,2" d="M666.5,-180C666.5,-180 571.5,-180 571.5,-180 565.5,-180 559.5,-174 559.5,-168 559.5,-168 559.5,-156 559.5,-156 559.5,-150 565.5,-144 571.5,-144 571.5,-144 666.5,-144 666.5,-144 672.5,-144 678.5,-150 678.5,-156 678.5,-156 678.5,-168 678.5,-168 678.5,-174 672.5,-180 666.5,-180"/>
<text text-anchor="middle" x="619" y="-159.5" font-family="sans" font-size="10.00">wilcoxon_test_to_pdf</text>
</g>
<!-- 10&#45;&gt;1 -->
<g id="edge8" class="edge">
<title>10&#45;&gt;1</title>
<path fill="none" stroke="grey" stroke-width="2" d="M559.33,-146.24C513,-134.78 448.84,-118.91 401.18,-107.12"/>
<polygon fill="grey" stroke="grey" stroke-width="2" points="401.82,-103.67 391.27,-104.67 400.13,-110.47 401.82,-103.67"/>
</g>
<!-- 11&#45;&gt;10 -->
<g id="edge17" class="edge">
<title>11&#45;&gt;10</title>
<path fill="none" stroke="grey" stroke-width="2" d="M640.08,-215.7C636.93,-207.81 633.12,-198.3 629.62,-189.55"/>
<polygon fill="grey" stroke="grey" stroke-width="2" points="632.81,-188.09 625.84,-180.1 626.31,-190.69 632.81,-188.09"/>
</g>
<!-- 12 -->
<g id="node13" class="node">
<title>12</title>
<path fill="none" stroke="#56d8c9" stroke-width="2" stroke-dasharray="5,2" d="M815.5,-180C815.5,-180 708.5,-180 708.5,-180 702.5,-180 696.5,-174 696.5,-168 696.5,-168 696.5,-156 696.5,-156 696.5,-150 702.5,-144 708.5,-144 708.5,-144 815.5,-144 815.5,-144 821.5,-144 827.5,-150 827.5,-156 827.5,-156 827.5,-168 827.5,-168 827.5,-174 821.5,-180 815.5,-180"/>
<text text-anchor="middle" x="762" y="-159.5" font-family="sans" font-size="10.00">jonckheere_test_to_pdf</text>
</g>
<!-- 12&#45;&gt;1 -->
<g id="edge9" class="edge">
<title>12&#45;&gt;1</title>
<path fill="none" stroke="grey" stroke-width="2" d="M696.21,-145.8C693.1,-145.17 690.02,-144.57 687,-144 587.86,-125.31 471.99,-108.85 401.32,-99.41"/>
<polygon fill="grey" stroke="grey" stroke-width="2" points="401.6,-95.92 391.23,-98.07 400.68,-102.86 401.6,-95.92"/>
</g>
<!-- 13&#45;&gt;12 -->
<g id="edge19" class="edge">
<title>13&#45;&gt;12</title>
<path fill="none" stroke="grey" stroke-width="2" d="M758.99,-215.7C759.43,-207.98 759.96,-198.71 760.45,-190.11"/>
<polygon fill="grey" stroke="grey" stroke-width="2" points="763.95,-190.29 761.02,-180.1 756.96,-189.89 763.95,-190.29"/>
</g>
</g>
</svg>
