<?xml version="1.0" encoding="UTF-8" standalone="no"?>
<!DOCTYPE svg PUBLIC "-//W3C//DTD SVG 1.1//EN"
 "http://www.w3.org/Graphics/SVG/1.1/DTD/svg11.dtd">
<!-- Generated by graphviz version 2.43.0 (0)
 -->
<!-- Title: snakemake_dag Pages: 1 -->
<svg width="917pt" height="332pt"
 viewBox="0.00 0.00 917.04 332.00" xmlns="http://www.w3.org/2000/svg" xmlns:xlink="http://www.w3.org/1999/xlink">
<g id="graph0" class="graph" transform="scale(1 1) rotate(0) translate(4 328)">
<title>snakemake_dag</title>
<polygon fill="white" stroke="transparent" points="-4,4 -4,-328 913.04,-328 913.04,4 -4,4"/>
<!-- 0 -->
<g id="node1" class="node">
<title>0</title>
<path fill="none" stroke="#56d86b" stroke-width="2" stroke-dasharray="5,2" d="M508,-36C508,-36 478,-36 478,-36 472,-36 466,-30 466,-24 466,-24 466,-12 466,-12 466,-6 472,0 478,0 478,0 508,0 508,0 514,0 520,-6 520,-12 520,-12 520,-24 520,-24 520,-30 514,-36 508,-36"/>
<text text-anchor="middle" x="493" y="-15.5" font-family="sans" font-size="10.00">all</text>
</g>
<!-- 1 -->
<g id="node2" class="node">
<title>1</title>
<path fill="none" stroke="#88d856" stroke-width="2" stroke-dasharray="5,2" d="M481,-108C481,-108 395,-108 395,-108 389,-108 383,-102 383,-96 383,-96 383,-84 383,-84 383,-78 389,-72 395,-72 395,-72 481,-72 481,-72 487,-72 493,-78 493,-84 493,-84 493,-96 493,-96 493,-102 487,-108 481,-108"/>
<text text-anchor="middle" x="438" y="-87.5" font-family="sans" font-size="10.00">summarize_results</text>
</g>
<!-- 1&#45;&gt;0 -->
<g id="edge1" class="edge">
<title>1&#45;&gt;0</title>
<path fill="none" stroke="grey" stroke-width="2" d="M451.6,-71.7C458.12,-63.39 466.07,-53.28 473.25,-44.14"/>
<polygon fill="grey" stroke="grey" stroke-width="2" points="476.13,-46.13 479.56,-36.1 470.63,-41.81 476.13,-46.13"/>
</g>
<!-- 2 -->
<g id="node3" class="node">
<title>2</title>
<path fill="none" stroke="#d85656" stroke-width="2" stroke-dasharray="5,2" d="M50,-180C50,-180 12,-180 12,-180 6,-180 0,-174 0,-168 0,-168 0,-156 0,-156 0,-150 6,-144 12,-144 12,-144 50,-144 50,-144 56,-144 62,-150 62,-156 62,-156 62,-168 62,-168 62,-174 56,-180 50,-180"/>
<text text-anchor="middle" x="31" y="-159.5" font-family="sans" font-size="10.00">plot_MX1</text>
</g>
<!-- 2&#45;&gt;1 -->
<g id="edge3" class="edge">
<title>2&#45;&gt;1</title>
<path fill="none" stroke="grey" stroke-width="2" d="M62.17,-146.85C65.12,-145.79 68.09,-144.81 71,-144 174.33,-115.11 298.66,-101.37 372.86,-95.3"/>
<polygon fill="grey" stroke="grey" stroke-width="2" points="373.3,-98.78 382.99,-94.5 372.74,-91.8 373.3,-98.78"/>
</g>
<!-- 3 -->
<g id="node4" class="node">
<title>3</title>
<path fill="none" stroke="#56d88a" stroke-width="2" stroke-dasharray="5,2" d="M494.5,-324C494.5,-324 381.5,-324 381.5,-324 375.5,-324 369.5,-318 369.5,-312 369.5,-312 369.5,-300 369.5,-300 369.5,-294 375.5,-288 381.5,-288 381.5,-288 494.5,-288 494.5,-288 500.5,-288 506.5,-294 506.5,-300 506.5,-300 506.5,-312 506.5,-312 506.5,-318 500.5,-324 494.5,-324"/>
<text text-anchor="middle" x="438" y="-309" font-family="sans" font-size="10.00">load_and_annotate_data</text>
<text text-anchor="middle" x="438" y="-298" font-family="sans" font-size="10.00">dataset: GSE152075</text>
</g>
<!-- 3&#45;&gt;2 -->
<g id="edge11" class="edge">
<title>3&#45;&gt;2</title>
<path fill="none" stroke="grey" stroke-width="2" d="M369.36,-295.86C318.92,-287.82 249.3,-273.91 191,-252 145.1,-234.75 96.41,-205.97 64.97,-185.82"/>
<polygon fill="grey" stroke="grey" stroke-width="2" points="66.48,-182.63 56.18,-180.12 62.67,-188.5 66.48,-182.63"/>
</g>
<!-- 4 -->
<g id="node5" class="node">
<title>4</title>
<path fill="none" stroke="#afd856" stroke-width="2" stroke-dasharray="5,2" d="M157.5,-180C157.5,-180 92.5,-180 92.5,-180 86.5,-180 80.5,-174 80.5,-168 80.5,-168 80.5,-156 80.5,-156 80.5,-150 86.5,-144 92.5,-144 92.5,-144 157.5,-144 157.5,-144 163.5,-144 169.5,-150 169.5,-156 169.5,-156 169.5,-168 169.5,-168 169.5,-174 163.5,-180 157.5,-180"/>
<text text-anchor="middle" x="125" y="-159.5" font-family="sans" font-size="10.00">plot_MX1_MX2</text>
</g>
<!-- 3&#45;&gt;4 -->
<g id="edge12" class="edge">
<title>3&#45;&gt;4</title>
<path fill="none" stroke="grey" stroke-width="2" d="M369.23,-290.8C333.81,-282.1 290.51,-269.28 254,-252 216.66,-234.32 178.23,-206.31 153.15,-186.43"/>
<polygon fill="grey" stroke="grey" stroke-width="2" points="155.16,-183.56 145.17,-180.03 150.78,-189.02 155.16,-183.56"/>
</g>
<!-- 5 -->
<g id="node6" class="node">
<title>5</title>
<path fill="none" stroke="#567bd8" stroke-width="2" stroke-dasharray="5,2" d="M291,-180C291,-180 199,-180 199,-180 193,-180 187,-174 187,-168 187,-168 187,-156 187,-156 187,-150 193,-144 199,-144 199,-144 291,-144 291,-144 297,-144 303,-150 303,-156 303,-156 303,-168 303,-168 303,-174 297,-180 291,-180"/>
<text text-anchor="middle" x="245" y="-159.5" font-family="sans" font-size="10.00">pairwise_correlation</text>
</g>
<!-- 3&#45;&gt;5 -->
<g id="edge13" class="edge">
<title>3&#45;&gt;5</title>
<path fill="none" stroke="grey" stroke-width="2" d="M369.35,-295.43C338.75,-288.06 304.22,-275.02 280,-252 262.76,-235.62 253.85,-209.7 249.35,-190.05"/>
<polygon fill="grey" stroke="grey" stroke-width="2" points="252.76,-189.25 247.33,-180.15 245.9,-190.65 252.76,-189.25"/>
</g>
<!-- 6 -->
<g id="node7" class="node">
<title>6</title>
<path fill="none" stroke="#56d8d0" stroke-width="2" stroke-dasharray="5,2" d="M346.5,-252C346.5,-252 301.5,-252 301.5,-252 295.5,-252 289.5,-246 289.5,-240 289.5,-240 289.5,-228 289.5,-228 289.5,-222 295.5,-216 301.5,-216 301.5,-216 346.5,-216 346.5,-216 352.5,-216 358.5,-222 358.5,-228 358.5,-228 358.5,-240 358.5,-240 358.5,-246 352.5,-252 346.5,-252"/>
<text text-anchor="middle" x="324" y="-231.5" font-family="sans" font-size="10.00">PCA_biplot</text>
</g>
<!-- 3&#45;&gt;6 -->
<g id="edge14" class="edge">
<title>3&#45;&gt;6</title>
<path fill="none" stroke="grey" stroke-width="2" d="M410.11,-287.88C395.21,-278.72 376.67,-267.34 360.62,-257.48"/>
<polygon fill="grey" stroke="grey" stroke-width="2" points="362.35,-254.44 351.99,-252.19 358.69,-260.41 362.35,-254.44"/>
</g>
<!-- 8 -->
<g id="node9" class="node">
<title>8</title>
<path fill="none" stroke="#56d8a9" stroke-width="2" stroke-dasharray="5,2" d="M487.5,-252C487.5,-252 388.5,-252 388.5,-252 382.5,-252 376.5,-246 376.5,-240 376.5,-240 376.5,-228 376.5,-228 376.5,-222 382.5,-216 388.5,-216 388.5,-216 487.5,-216 487.5,-216 493.5,-216 499.5,-222 499.5,-228 499.5,-228 499.5,-240 499.5,-240 499.5,-246 493.5,-252 487.5,-252"/>
<text text-anchor="middle" x="438" y="-231.5" font-family="sans" font-size="10.00">spearman_correlation</text>
</g>
<!-- 3&#45;&gt;8 -->
<g id="edge16" class="edge">
<title>3&#45;&gt;8</title>
<path fill="none" stroke="grey" stroke-width="2" d="M438,-287.7C438,-279.98 438,-270.71 438,-262.11"/>
<polygon fill="grey" stroke="grey" stroke-width="2" points="441.5,-262.1 438,-252.1 434.5,-262.1 441.5,-262.1"/>
</g>
<!-- 10 -->
<g id="node11" class="node">
<title>10</title>
<path fill="none" stroke="#569ad8" stroke-width="2" stroke-dasharray="5,2" d="M588.5,-252C588.5,-252 529.5,-252 529.5,-252 523.5,-252 517.5,-246 517.5,-240 517.5,-240 517.5,-228 517.5,-228 517.5,-222 523.5,-216 529.5,-216 529.5,-216 588.5,-216 588.5,-216 594.5,-216 600.5,-222 600.5,-228 600.5,-228 600.5,-240 600.5,-240 600.5,-246 594.5,-252 588.5,-252"/>
<text text-anchor="middle" x="559" y="-231.5" font-family="sans" font-size="10.00">wilcoxon_test</text>
</g>
<!-- 3&#45;&gt;10 -->
<g id="edge18" class="edge">
<title>3&#45;&gt;10</title>
<path fill="none" stroke="grey" stroke-width="2" d="M467.6,-287.88C483.57,-278.64 503.46,-267.13 520.61,-257.21"/>
<polygon fill="grey" stroke="grey" stroke-width="2" points="522.38,-260.23 529.29,-252.19 518.88,-254.17 522.38,-260.23"/>
</g>
<!-- 12 -->
<g id="node13" class="node">
<title>12</title>
<path fill="none" stroke="#d8bc56" stroke-width="2" stroke-dasharray="5,2" d="M701.5,-252C701.5,-252 630.5,-252 630.5,-252 624.5,-252 618.5,-246 618.5,-240 618.5,-240 618.5,-228 618.5,-228 618.5,-222 624.5,-216 630.5,-216 630.5,-216 701.5,-216 701.5,-216 707.5,-216 713.5,-222 713.5,-228 713.5,-228 713.5,-240 713.5,-240 713.5,-246 707.5,-252 701.5,-252"/>
<text text-anchor="middle" x="666" y="-231.5" font-family="sans" font-size="10.00">jonckheere_test</text>
</g>
<!-- 3&#45;&gt;12 -->
<g id="edge20" class="edge">
<title>3&#45;&gt;12</title>
<path fill="none" stroke="grey" stroke-width="2" d="M493.48,-287.97C528.42,-277.24 573.43,-263.42 608.71,-252.59"/>
<polygon fill="grey" stroke="grey" stroke-width="2" points="609.85,-255.9 618.38,-249.62 607.8,-249.21 609.85,-255.9"/>
</g>
<!-- 13 -->
<g id="node14" class="node">
<title>13</title>
<path fill="none" stroke="#d87556" stroke-width="2" stroke-dasharray="5,2" d="M874.5,-252C874.5,-252 743.5,-252 743.5,-252 737.5,-252 731.5,-246 731.5,-240 731.5,-240 731.5,-228 731.5,-228 731.5,-222 737.5,-216 743.5,-216 743.5,-216 874.5,-216 874.5,-216 880.5,-216 886.5,-222 886.5,-228 886.5,-228 886.5,-240 886.5,-240 886.5,-246 880.5,-252 874.5,-252"/>
<text text-anchor="middle" x="809" y="-231.5" font-family="sans" font-size="10.00">histogram_of_selected_data</text>
</g>
<!-- 3&#45;&gt;13 -->
<g id="edge21" class="edge">
<title>3&#45;&gt;13</title>
<path fill="none" stroke="grey" stroke-width="2" d="M506.57,-292.47C561.95,-282.3 642.2,-267.45 721.08,-252.36"/>
<polygon fill="grey" stroke="grey" stroke-width="2" points="722.03,-255.74 731.19,-250.42 720.71,-248.87 722.03,-255.74"/>
</g>
<!-- 14 -->
<g id="node15" class="node">
<title>14</title>
<path fill="none" stroke="#d89c56" stroke-width="2" stroke-dasharray="5,2" d="M757.5,-108C757.5,-108 706.5,-108 706.5,-108 700.5,-108 694.5,-102 694.5,-96 694.5,-96 694.5,-84 694.5,-84 694.5,-78 700.5,-72 706.5,-72 706.5,-72 757.5,-72 757.5,-72 763.5,-72 769.5,-78 769.5,-84 769.5,-84 769.5,-96 769.5,-96 769.5,-102 763.5,-108 757.5,-108"/>
<text text-anchor="middle" x="732" y="-87.5" font-family="sans" font-size="10.00">plot_of_PCA</text>
</g>
<!-- 3&#45;&gt;14 -->
<g id="edge22" class="edge">
<title>3&#45;&gt;14</title>
<path fill="none" stroke="grey" stroke-width="2" d="M506.67,-302C628.14,-295.99 870.57,-280.54 896,-252 943.94,-198.19 842.6,-140.17 778.76,-110.66"/>
<polygon fill="grey" stroke="grey" stroke-width="2" points="780.18,-107.47 769.63,-106.52 777.29,-113.84 780.18,-107.47"/>
</g>
<!-- 4&#45;&gt;1 -->
<g id="edge4" class="edge">
<title>4&#45;&gt;1</title>
<path fill="none" stroke="grey" stroke-width="2" d="M169.72,-146.28C172.51,-145.48 175.29,-144.71 178,-144 243.74,-126.81 320.03,-111.84 372.9,-102.23"/>
<polygon fill="grey" stroke="grey" stroke-width="2" points="373.6,-105.66 382.82,-100.44 372.35,-98.77 373.6,-105.66"/>
</g>
<!-- 5&#45;&gt;1 -->
<g id="edge5" class="edge">
<title>5&#45;&gt;1</title>
<path fill="none" stroke="grey" stroke-width="2" d="M292.21,-143.88C319.07,-134.14 352.88,-121.87 381.18,-111.61"/>
<polygon fill="grey" stroke="grey" stroke-width="2" points="382.73,-114.77 390.94,-108.07 380.35,-108.19 382.73,-114.77"/>
</g>
<!-- 6&#45;&gt;1 -->
<g id="edge6" class="edge">
<title>6&#45;&gt;1</title>
<path fill="none" stroke="grey" stroke-width="2" d="M325.05,-215.92C327.03,-196.67 332.7,-165.28 349,-144 358.69,-131.35 372.33,-121.11 386.03,-113.13"/>
<polygon fill="grey" stroke="grey" stroke-width="2" points="387.92,-116.08 395,-108.2 384.55,-109.95 387.92,-116.08"/>
</g>
<!-- 7 -->
<g id="node8" class="node">
<title>7</title>
<path fill="none" stroke="#56c1d8" stroke-width="2" stroke-dasharray="5,2" d="M505.5,-180C505.5,-180 370.5,-180 370.5,-180 364.5,-180 358.5,-174 358.5,-168 358.5,-168 358.5,-156 358.5,-156 358.5,-150 364.5,-144 370.5,-144 370.5,-144 505.5,-144 505.5,-144 511.5,-144 517.5,-150 517.5,-156 517.5,-156 517.5,-168 517.5,-168 517.5,-174 511.5,-180 505.5,-180"/>
<text text-anchor="middle" x="438" y="-159.5" font-family="sans" font-size="10.00">spearman_correlation_to_pdf</text>
</g>
<!-- 7&#45;&gt;1 -->
<g id="edge7" class="edge">
<title>7&#45;&gt;1</title>
<path fill="none" stroke="grey" stroke-width="2" d="M438,-143.7C438,-135.98 438,-126.71 438,-118.11"/>
<polygon fill="grey" stroke="grey" stroke-width="2" points="441.5,-118.1 438,-108.1 434.5,-118.1 441.5,-118.1"/>
</g>
<!-- 8&#45;&gt;7 -->
<g id="edge15" class="edge">
<title>8&#45;&gt;7</title>
<path fill="none" stroke="grey" stroke-width="2" d="M438,-215.7C438,-207.98 438,-198.71 438,-190.11"/>
<polygon fill="grey" stroke="grey" stroke-width="2" points="441.5,-190.1 438,-180.1 434.5,-190.1 441.5,-190.1"/>
</g>
<!-- 9 -->
<g id="node10" class="node">
<title>9</title>
<path fill="none" stroke="#68d856" stroke-width="2" stroke-dasharray="5,2" d="M642.5,-180C642.5,-180 547.5,-180 547.5,-180 541.5,-180 535.5,-174 535.5,-168 535.5,-168 535.5,-156 535.5,-156 535.5,-150 541.5,-144 547.5,-144 547.5,-144 642.5,-144 642.5,-144 648.5,-144 654.5,-150 654.5,-156 654.5,-156 654.5,-168 654.5,-168 654.5,-174 648.5,-180 642.5,-180"/>
<text text-anchor="middle" x="595" y="-159.5" font-family="sans" font-size="10.00">wilcoxon_test_to_pdf</text>
</g>
<!-- 9&#45;&gt;1 -->
<g id="edge8" class="edge">
<title>9&#45;&gt;1</title>
<path fill="none" stroke="grey" stroke-width="2" d="M556.59,-143.88C535.13,-134.31 508.2,-122.3 485.43,-112.15"/>
<polygon fill="grey" stroke="grey" stroke-width="2" points="486.84,-108.94 476.28,-108.07 483.99,-115.34 486.84,-108.94"/>
</g>
<!-- 10&#45;&gt;9 -->
<g id="edge17" class="edge">
<title>10&#45;&gt;9</title>
<path fill="none" stroke="grey" stroke-width="2" d="M567.9,-215.7C572,-207.73 576.95,-198.1 581.49,-189.26"/>
<polygon fill="grey" stroke="grey" stroke-width="2" points="584.74,-190.6 586.2,-180.1 578.52,-187.4 584.74,-190.6"/>
</g>
<!-- 11 -->
<g id="node12" class="node">
<title>11</title>
<path fill="none" stroke="#ced856" stroke-width="2" stroke-dasharray="5,2" d="M791.5,-180C791.5,-180 684.5,-180 684.5,-180 678.5,-180 672.5,-174 672.5,-168 672.5,-168 672.5,-156 672.5,-156 672.5,-150 678.5,-144 684.5,-144 684.5,-144 791.5,-144 791.5,-144 797.5,-144 803.5,-150 803.5,-156 803.5,-156 803.5,-168 803.5,-168 803.5,-174 797.5,-180 791.5,-180"/>
<text text-anchor="middle" x="738" y="-159.5" font-family="sans" font-size="10.00">jonckheere_test_to_pdf</text>
</g>
<!-- 11&#45;&gt;1 -->
<g id="edge9" class="edge">
<title>11&#45;&gt;1</title>
<path fill="none" stroke="grey" stroke-width="2" d="M672.16,-145.64C621.87,-133.9 552.93,-117.82 502.88,-106.14"/>
<polygon fill="grey" stroke="grey" stroke-width="2" points="503.66,-102.73 493.13,-103.86 502.07,-109.54 503.66,-102.73"/>
</g>
<!-- 12&#45;&gt;11 -->
<g id="edge19" class="edge">
<title>12&#45;&gt;11</title>
<path fill="none" stroke="grey" stroke-width="2" d="M683.8,-215.7C692.6,-207.14 703.38,-196.66 713,-187.3"/>
<polygon fill="grey" stroke="grey" stroke-width="2" points="715.68,-189.58 720.41,-180.1 710.8,-184.57 715.68,-189.58"/>
</g>
<!-- 13&#45;&gt;1 -->
<g id="edge10" class="edge">
<title>13&#45;&gt;1</title>
<path fill="none" stroke="grey" stroke-width="2" d="M816.01,-215.99C822.91,-196.2 830.14,-163.73 813,-144 793.02,-120.99 605.33,-103.51 503.3,-95.62"/>
<polygon fill="grey" stroke="grey" stroke-width="2" points="503.34,-92.11 493.1,-94.84 502.8,-99.09 503.34,-92.11"/>
</g>
<!-- 14&#45;&gt;0 -->
<g id="edge2" class="edge">
<title>14&#45;&gt;0</title>
<path fill="none" stroke="grey" stroke-width="2" d="M694.39,-77.99C649.39,-64.8 574.53,-42.88 529.86,-29.8"/>
<polygon fill="grey" stroke="grey" stroke-width="2" points="530.58,-26.36 520,-26.91 528.62,-33.08 530.58,-26.36"/>
</g>
</g>
</svg>
