<?xml version="1.0" encoding="UTF-8" standalone="no"?>
<!DOCTYPE svg PUBLIC "-//W3C//DTD SVG 1.1//EN"
 "http://www.w3.org/Graphics/SVG/1.1/DTD/svg11.dtd">
<!-- Generated by graphviz version 2.43.0 (0)
 -->
<!-- Title: snakemake_dag Pages: 1 -->
<svg width="1048pt" height="332pt"
 viewBox="0.00 0.00 1047.57 332.00" xmlns="http://www.w3.org/2000/svg" xmlns:xlink="http://www.w3.org/1999/xlink">
<g id="graph0" class="graph" transform="scale(1 1) rotate(0) translate(4 328)">
<title>snakemake_dag</title>
<polygon fill="white" stroke="transparent" points="-4,4 -4,-328 1043.57,-328 1043.57,4 -4,4"/>
<!-- 0 -->
<g id="node1" class="node">
<title>0</title>
<path fill="none" stroke="#569ad8" stroke-width="2" d="M638.5,-36C638.5,-36 608.5,-36 608.5,-36 602.5,-36 596.5,-30 596.5,-24 596.5,-24 596.5,-12 596.5,-12 596.5,-6 602.5,0 608.5,0 608.5,0 638.5,0 638.5,0 644.5,0 650.5,-6 650.5,-12 650.5,-12 650.5,-24 650.5,-24 650.5,-30 644.5,-36 638.5,-36"/>
<text text-anchor="middle" x="623.5" y="-15.5" font-family="sans" font-size="10.00">all</text>
</g>
<!-- 1 -->
<g id="node2" class="node">
<title>1</title>
<path fill="none" stroke="#56d8a9" stroke-width="2" d="M611.5,-108C611.5,-108 525.5,-108 525.5,-108 519.5,-108 513.5,-102 513.5,-96 513.5,-96 513.5,-84 513.5,-84 513.5,-78 519.5,-72 525.5,-72 525.5,-72 611.5,-72 611.5,-72 617.5,-72 623.5,-78 623.5,-84 623.5,-84 623.5,-96 623.5,-96 623.5,-102 617.5,-108 611.5,-108"/>
<text text-anchor="middle" x="568.5" y="-87.5" font-family="sans" font-size="10.00">summarize_results</text>
</g>
<!-- 1&#45;&gt;0 -->
<g id="edge1" class="edge">
<title>1&#45;&gt;0</title>
<path fill="none" stroke="grey" stroke-width="2" d="M582.1,-71.7C588.62,-63.39 596.57,-53.28 603.75,-44.14"/>
<polygon fill="grey" stroke="grey" stroke-width="2" points="606.63,-46.13 610.06,-36.1 601.13,-41.81 606.63,-46.13"/>
</g>
<!-- 2 -->
<g id="node3" class="node">
<title>2</title>
<path fill="none" stroke="#56c1d8" stroke-width="2" d="M87,-180C87,-180 12,-180 12,-180 6,-180 0,-174 0,-168 0,-168 0,-156 0,-156 0,-150 6,-144 12,-144 12,-144 87,-144 87,-144 93,-144 99,-150 99,-156 99,-156 99,-168 99,-168 99,-174 93,-180 87,-180"/>
<text text-anchor="middle" x="49.5" y="-159.5" font-family="sans" font-size="10.00">plot_target_gene</text>
</g>
<!-- 2&#45;&gt;1 -->
<g id="edge3" class="edge">
<title>2&#45;&gt;1</title>
<path fill="none" stroke="grey" stroke-width="2" d="M99.25,-146.04C102.37,-145.29 105.47,-144.61 108.5,-144 247.59,-116.15 413.47,-101.51 503.14,-95.1"/>
<polygon fill="grey" stroke="grey" stroke-width="2" points="503.43,-98.59 513.16,-94.4 502.94,-91.61 503.43,-98.59"/>
</g>
<!-- 3 -->
<g id="node4" class="node">
<title>3</title>
<path fill="none" stroke="#afd856" stroke-width="2" d="M625,-324C625,-324 512,-324 512,-324 506,-324 500,-318 500,-312 500,-312 500,-300 500,-300 500,-294 506,-288 512,-288 512,-288 625,-288 625,-288 631,-288 637,-294 637,-300 637,-300 637,-312 637,-312 637,-318 631,-324 625,-324"/>
<text text-anchor="middle" x="568.5" y="-309" font-family="sans" font-size="10.00">load_and_annotate_data</text>
<text text-anchor="middle" x="568.5" y="-298" font-family="sans" font-size="10.00">dataset: GSE152075</text>
</g>
<!-- 3&#45;&gt;2 -->
<g id="edge11" class="edge">
<title>3&#45;&gt;2</title>
<path fill="none" stroke="grey" stroke-width="2" d="M499.81,-293.98C445.94,-284.68 369.34,-270.03 303.5,-252 232.58,-232.59 152.88,-203.41 101.99,-183.81"/>
<polygon fill="grey" stroke="grey" stroke-width="2" points="103.1,-180.49 92.51,-180.15 100.58,-187.02 103.1,-180.49"/>
</g>
<!-- 4 -->
<g id="node5" class="node">
<title>4</title>
<path fill="none" stroke="#56d8d0" stroke-width="2" d="M287.5,-180C287.5,-180 129.5,-180 129.5,-180 123.5,-180 117.5,-174 117.5,-168 117.5,-168 117.5,-156 117.5,-156 117.5,-150 123.5,-144 129.5,-144 129.5,-144 287.5,-144 287.5,-144 293.5,-144 299.5,-150 299.5,-156 299.5,-156 299.5,-168 299.5,-168 299.5,-174 293.5,-180 287.5,-180"/>
<text text-anchor="middle" x="208.5" y="-159.5" font-family="sans" font-size="10.00">plot_target_gene_validation_gene</text>
</g>
<!-- 3&#45;&gt;4 -->
<g id="edge12" class="edge">
<title>3&#45;&gt;4</title>
<path fill="none" stroke="grey" stroke-width="2" d="M499.68,-288.1C465.2,-278.85 423.12,-266.35 386.5,-252 337.19,-232.67 283.1,-204.58 247.65,-185.15"/>
<polygon fill="grey" stroke="grey" stroke-width="2" points="249.05,-181.92 238.6,-180.16 245.67,-188.05 249.05,-181.92"/>
</g>
<!-- 5 -->
<g id="node6" class="node">
<title>5</title>
<path fill="none" stroke="#56d88a" stroke-width="2" d="M421.5,-180C421.5,-180 329.5,-180 329.5,-180 323.5,-180 317.5,-174 317.5,-168 317.5,-168 317.5,-156 317.5,-156 317.5,-150 323.5,-144 329.5,-144 329.5,-144 421.5,-144 421.5,-144 427.5,-144 433.5,-150 433.5,-156 433.5,-156 433.5,-168 433.5,-168 433.5,-174 427.5,-180 421.5,-180"/>
<text text-anchor="middle" x="375.5" y="-159.5" font-family="sans" font-size="10.00">pairwise_correlation</text>
</g>
<!-- 3&#45;&gt;5 -->
<g id="edge13" class="edge">
<title>3&#45;&gt;5</title>
<path fill="none" stroke="grey" stroke-width="2" d="M499.73,-294.73C469.85,-287.23 436.31,-274.28 412.5,-252 395,-235.62 385.5,-209.71 380.52,-190.05"/>
<polygon fill="grey" stroke="grey" stroke-width="2" points="383.9,-189.12 378.26,-180.16 377.08,-190.68 383.9,-189.12"/>
</g>
<!-- 6 -->
<g id="node7" class="node">
<title>6</title>
<path fill="none" stroke="#d85656" stroke-width="2" d="M477,-252C477,-252 434,-252 434,-252 428,-252 422,-246 422,-240 422,-240 422,-228 422,-228 422,-222 428,-216 434,-216 434,-216 477,-216 477,-216 483,-216 489,-222 489,-228 489,-228 489,-240 489,-240 489,-246 483,-252 477,-252"/>
<text text-anchor="middle" x="455.5" y="-231.5" font-family="sans" font-size="10.00">pca_biplot</text>
</g>
<!-- 3&#45;&gt;6 -->
<g id="edge14" class="edge">
<title>3&#45;&gt;6</title>
<path fill="none" stroke="grey" stroke-width="2" d="M540.86,-287.88C526.08,-278.72 507.71,-267.34 491.8,-257.48"/>
<polygon fill="grey" stroke="grey" stroke-width="2" points="493.59,-254.48 483.25,-252.19 489.91,-260.43 493.59,-254.48"/>
</g>
<!-- 8 -->
<g id="node9" class="node">
<title>8</title>
<path fill="none" stroke="#d8bc56" stroke-width="2" d="M618,-252C618,-252 519,-252 519,-252 513,-252 507,-246 507,-240 507,-240 507,-228 507,-228 507,-222 513,-216 519,-216 519,-216 618,-216 618,-216 624,-216 630,-222 630,-228 630,-228 630,-240 630,-240 630,-246 624,-252 618,-252"/>
<text text-anchor="middle" x="568.5" y="-231.5" font-family="sans" font-size="10.00">spearman_correlation</text>
</g>
<!-- 3&#45;&gt;8 -->
<g id="edge16" class="edge">
<title>3&#45;&gt;8</title>
<path fill="none" stroke="grey" stroke-width="2" d="M568.5,-287.7C568.5,-279.98 568.5,-270.71 568.5,-262.11"/>
<polygon fill="grey" stroke="grey" stroke-width="2" points="572,-262.1 568.5,-252.1 565,-262.1 572,-262.1"/>
</g>
<!-- 10 -->
<g id="node11" class="node">
<title>10</title>
<path fill="none" stroke="#567bd8" stroke-width="2" d="M719,-252C719,-252 660,-252 660,-252 654,-252 648,-246 648,-240 648,-240 648,-228 648,-228 648,-222 654,-216 660,-216 660,-216 719,-216 719,-216 725,-216 731,-222 731,-228 731,-228 731,-240 731,-240 731,-246 725,-252 719,-252"/>
<text text-anchor="middle" x="689.5" y="-231.5" font-family="sans" font-size="10.00">wilcoxon_test</text>
</g>
<!-- 3&#45;&gt;10 -->
<g id="edge18" class="edge">
<title>3&#45;&gt;10</title>
<path fill="none" stroke="grey" stroke-width="2" d="M598.1,-287.88C614.07,-278.64 633.96,-267.13 651.11,-257.21"/>
<polygon fill="grey" stroke="grey" stroke-width="2" points="652.88,-260.23 659.79,-252.19 649.38,-254.17 652.88,-260.23"/>
</g>
<!-- 12 -->
<g id="node13" class="node">
<title>12</title>
<path fill="none" stroke="#88d856" stroke-width="2" d="M832,-252C832,-252 761,-252 761,-252 755,-252 749,-246 749,-240 749,-240 749,-228 749,-228 749,-222 755,-216 761,-216 761,-216 832,-216 832,-216 838,-216 844,-222 844,-228 844,-228 844,-240 844,-240 844,-246 838,-252 832,-252"/>
<text text-anchor="middle" x="796.5" y="-231.5" font-family="sans" font-size="10.00">jonckheere_test</text>
</g>
<!-- 3&#45;&gt;12 -->
<g id="edge20" class="edge">
<title>3&#45;&gt;12</title>
<path fill="none" stroke="grey" stroke-width="2" d="M623.98,-287.97C658.92,-277.24 703.93,-263.42 739.21,-252.59"/>
<polygon fill="grey" stroke="grey" stroke-width="2" points="740.35,-255.9 748.88,-249.62 738.3,-249.21 740.35,-255.9"/>
</g>
<!-- 13 -->
<g id="node14" class="node">
<title>13</title>
<path fill="none" stroke="#56d86b" stroke-width="2" d="M1005,-252C1005,-252 874,-252 874,-252 868,-252 862,-246 862,-240 862,-240 862,-228 862,-228 862,-222 868,-216 874,-216 874,-216 1005,-216 1005,-216 1011,-216 1017,-222 1017,-228 1017,-228 1017,-240 1017,-240 1017,-246 1011,-252 1005,-252"/>
<text text-anchor="middle" x="939.5" y="-231.5" font-family="sans" font-size="10.00">histogram_of_selected_data</text>
</g>
<!-- 3&#45;&gt;13 -->
<g id="edge21" class="edge">
<title>3&#45;&gt;13</title>
<path fill="none" stroke="grey" stroke-width="2" d="M637.07,-292.47C692.45,-282.3 772.7,-267.45 851.58,-252.36"/>
<polygon fill="grey" stroke="grey" stroke-width="2" points="852.53,-255.74 861.69,-250.42 851.21,-248.87 852.53,-255.74"/>
</g>
<!-- 14 -->
<g id="node15" class="node">
<title>14</title>
<path fill="none" stroke="#d89c56" stroke-width="2" d="M886,-108C886,-108 837,-108 837,-108 831,-108 825,-102 825,-96 825,-96 825,-84 825,-84 825,-78 831,-72 837,-72 837,-72 886,-72 886,-72 892,-72 898,-78 898,-84 898,-84 898,-96 898,-96 898,-102 892,-108 886,-108"/>
<text text-anchor="middle" x="861.5" y="-87.5" font-family="sans" font-size="10.00">plot_of_pca</text>
</g>
<!-- 3&#45;&gt;14 -->
<g id="edge22" class="edge">
<title>3&#45;&gt;14</title>
<path fill="none" stroke="grey" stroke-width="2" d="M637.17,-302C758.64,-295.99 1001.07,-280.54 1026.5,-252 1074.84,-197.74 971.61,-139.46 907.49,-110.15"/>
<polygon fill="grey" stroke="grey" stroke-width="2" points="908.89,-106.95 898.34,-106.05 906.03,-113.33 908.89,-106.95"/>
</g>
<!-- 4&#45;&gt;1 -->
<g id="edge4" class="edge">
<title>4&#45;&gt;1</title>
<path fill="none" stroke="grey" stroke-width="2" d="M296.11,-143.97C360.01,-131.54 445.24,-114.97 503.23,-103.69"/>
<polygon fill="grey" stroke="grey" stroke-width="2" points="504.22,-107.06 513.37,-101.72 502.89,-100.19 504.22,-107.06"/>
</g>
<!-- 5&#45;&gt;1 -->
<g id="edge5" class="edge">
<title>5&#45;&gt;1</title>
<path fill="none" stroke="grey" stroke-width="2" d="M422.71,-143.88C449.57,-134.14 483.38,-121.87 511.68,-111.61"/>
<polygon fill="grey" stroke="grey" stroke-width="2" points="513.23,-114.77 521.44,-108.07 510.85,-108.19 513.23,-114.77"/>
</g>
<!-- 6&#45;&gt;1 -->
<g id="edge6" class="edge">
<title>6&#45;&gt;1</title>
<path fill="none" stroke="grey" stroke-width="2" d="M456.33,-215.93C458.06,-196.68 463.36,-165.3 479.5,-144 489.12,-131.3 502.75,-121.05 516.45,-113.06"/>
<polygon fill="grey" stroke="grey" stroke-width="2" points="518.33,-116.02 525.42,-108.14 514.97,-109.88 518.33,-116.02"/>
</g>
<!-- 7 -->
<g id="node8" class="node">
<title>7</title>
<path fill="none" stroke="#d87556" stroke-width="2" d="M636,-180C636,-180 501,-180 501,-180 495,-180 489,-174 489,-168 489,-168 489,-156 489,-156 489,-150 495,-144 501,-144 501,-144 636,-144 636,-144 642,-144 648,-150 648,-156 648,-156 648,-168 648,-168 648,-174 642,-180 636,-180"/>
<text text-anchor="middle" x="568.5" y="-159.5" font-family="sans" font-size="10.00">spearman_correlation_to_pdf</text>
</g>
<!-- 7&#45;&gt;1 -->
<g id="edge7" class="edge">
<title>7&#45;&gt;1</title>
<path fill="none" stroke="grey" stroke-width="2" d="M568.5,-143.7C568.5,-135.98 568.5,-126.71 568.5,-118.11"/>
<polygon fill="grey" stroke="grey" stroke-width="2" points="572,-118.1 568.5,-108.1 565,-118.1 572,-118.1"/>
</g>
<!-- 8&#45;&gt;7 -->
<g id="edge15" class="edge">
<title>8&#45;&gt;7</title>
<path fill="none" stroke="grey" stroke-width="2" d="M568.5,-215.7C568.5,-207.98 568.5,-198.71 568.5,-190.11"/>
<polygon fill="grey" stroke="grey" stroke-width="2" points="572,-190.1 568.5,-180.1 565,-190.1 572,-190.1"/>
</g>
<!-- 9 -->
<g id="node10" class="node">
<title>9</title>
<path fill="none" stroke="#ced856" stroke-width="2" d="M773,-180C773,-180 678,-180 678,-180 672,-180 666,-174 666,-168 666,-168 666,-156 666,-156 666,-150 672,-144 678,-144 678,-144 773,-144 773,-144 779,-144 785,-150 785,-156 785,-156 785,-168 785,-168 785,-174 779,-180 773,-180"/>
<text text-anchor="middle" x="725.5" y="-159.5" font-family="sans" font-size="10.00">wilcoxon_test_to_pdf</text>
</g>
<!-- 9&#45;&gt;1 -->
<g id="edge8" class="edge">
<title>9&#45;&gt;1</title>
<path fill="none" stroke="grey" stroke-width="2" d="M687.09,-143.88C665.63,-134.31 638.7,-122.3 615.93,-112.15"/>
<polygon fill="grey" stroke="grey" stroke-width="2" points="617.34,-108.94 606.78,-108.07 614.49,-115.34 617.34,-108.94"/>
</g>
<!-- 10&#45;&gt;9 -->
<g id="edge17" class="edge">
<title>10&#45;&gt;9</title>
<path fill="none" stroke="grey" stroke-width="2" d="M698.4,-215.7C702.5,-207.73 707.45,-198.1 711.99,-189.26"/>
<polygon fill="grey" stroke="grey" stroke-width="2" points="715.24,-190.6 716.7,-180.1 709.02,-187.4 715.24,-190.6"/>
</g>
<!-- 11 -->
<g id="node12" class="node">
<title>11</title>
<path fill="none" stroke="#68d856" stroke-width="2" d="M922,-180C922,-180 815,-180 815,-180 809,-180 803,-174 803,-168 803,-168 803,-156 803,-156 803,-150 809,-144 815,-144 815,-144 922,-144 922,-144 928,-144 934,-150 934,-156 934,-156 934,-168 934,-168 934,-174 928,-180 922,-180"/>
<text text-anchor="middle" x="868.5" y="-159.5" font-family="sans" font-size="10.00">jonckheere_test_to_pdf</text>
</g>
<!-- 11&#45;&gt;1 -->
<g id="edge9" class="edge">
<title>11&#45;&gt;1</title>
<path fill="none" stroke="grey" stroke-width="2" d="M802.66,-145.64C752.37,-133.9 683.43,-117.82 633.38,-106.14"/>
<polygon fill="grey" stroke="grey" stroke-width="2" points="634.16,-102.73 623.63,-103.86 632.57,-109.54 634.16,-102.73"/>
</g>
<!-- 12&#45;&gt;11 -->
<g id="edge19" class="edge">
<title>12&#45;&gt;11</title>
<path fill="none" stroke="grey" stroke-width="2" d="M814.3,-215.7C823.1,-207.14 833.88,-196.66 843.5,-187.3"/>
<polygon fill="grey" stroke="grey" stroke-width="2" points="846.18,-189.58 850.91,-180.1 841.3,-184.57 846.18,-189.58"/>
</g>
<!-- 13&#45;&gt;1 -->
<g id="edge10" class="edge">
<title>13&#45;&gt;1</title>
<path fill="none" stroke="grey" stroke-width="2" d="M946.51,-215.99C953.41,-196.2 960.64,-163.73 943.5,-144 923.52,-120.99 735.83,-103.51 633.8,-95.62"/>
<polygon fill="grey" stroke="grey" stroke-width="2" points="633.84,-92.11 623.6,-94.84 633.3,-99.09 633.84,-92.11"/>
</g>
<!-- 14&#45;&gt;0 -->
<g id="edge2" class="edge">
<title>14&#45;&gt;0</title>
<path fill="none" stroke="grey" stroke-width="2" d="M824.83,-78.22C780.1,-65.06 704.93,-42.95 660.19,-29.79"/>
<polygon fill="grey" stroke="grey" stroke-width="2" points="661.16,-26.43 650.58,-26.97 659.19,-33.15 661.16,-26.43"/>
</g>
</g>
</svg>
