<?xml version="1.0" encoding="UTF-8" standalone="no"?>
<!DOCTYPE svg PUBLIC "-//W3C//DTD SVG 1.1//EN"
 "http://www.w3.org/Graphics/SVG/1.1/DTD/svg11.dtd">
<!-- Generated by graphviz version 2.43.0 (0)
 -->
<!-- Title: snakemake_dag Pages: 1 -->
<svg width="956pt" height="332pt"
 viewBox="0.00 0.00 955.50 332.00" xmlns="http://www.w3.org/2000/svg" xmlns:xlink="http://www.w3.org/1999/xlink">
<g id="graph0" class="graph" transform="scale(1 1) rotate(0) translate(4 328)">
<title>snakemake_dag</title>
<polygon fill="white" stroke="transparent" points="-4,4 -4,-328 951.5,-328 951.5,4 -4,4"/>
<!-- 0 -->
<g id="node1" class="node">
<title>0</title>
<path fill="none" stroke="#ced856" stroke-width="2" d="M384,-36C384,-36 354,-36 354,-36 348,-36 342,-30 342,-24 342,-24 342,-12 342,-12 342,-6 348,0 354,0 354,0 384,0 384,0 390,0 396,-6 396,-12 396,-12 396,-24 396,-24 396,-30 390,-36 384,-36"/>
<text text-anchor="middle" x="369" y="-15.5" font-family="sans" font-size="10.00">all</text>
</g>
<!-- 1 -->
<g id="node2" class="node">
<title>1</title>
<path fill="none" stroke="#56d88a" stroke-width="2" d="M412,-108C412,-108 326,-108 326,-108 320,-108 314,-102 314,-96 314,-96 314,-84 314,-84 314,-78 320,-72 326,-72 326,-72 412,-72 412,-72 418,-72 424,-78 424,-84 424,-84 424,-96 424,-96 424,-102 418,-108 412,-108"/>
<text text-anchor="middle" x="369" y="-87.5" font-family="sans" font-size="10.00">summarize_results</text>
</g>
<!-- 1&#45;&gt;0 -->
<g id="edge1" class="edge">
<title>1&#45;&gt;0</title>
<path fill="none" stroke="grey" stroke-width="2" d="M369,-71.7C369,-63.98 369,-54.71 369,-46.11"/>
<polygon fill="grey" stroke="grey" stroke-width="2" points="372.5,-46.1 369,-36.1 365.5,-46.1 372.5,-46.1"/>
</g>
<!-- 2 -->
<g id="node3" class="node">
<title>2</title>
<path fill="none" stroke="#56d86b" stroke-width="2" d="M50,-180C50,-180 12,-180 12,-180 6,-180 0,-174 0,-168 0,-168 0,-156 0,-156 0,-150 6,-144 12,-144 12,-144 50,-144 50,-144 56,-144 62,-150 62,-156 62,-156 62,-168 62,-168 62,-174 56,-180 50,-180"/>
<text text-anchor="middle" x="31" y="-159.5" font-family="sans" font-size="10.00">plot_MX1</text>
</g>
<!-- 2&#45;&gt;1 -->
<g id="edge9" class="edge">
<title>2&#45;&gt;1</title>
<path fill="none" stroke="grey" stroke-width="2" d="M62.2,-146.95C65.14,-145.87 68.11,-144.86 71,-144 149.33,-120.72 242.45,-106.16 303.5,-98.33"/>
<polygon fill="grey" stroke="grey" stroke-width="2" points="304.28,-101.76 313.76,-97.03 303.4,-94.81 304.28,-101.76"/>
</g>
<!-- 3 -->
<g id="node4" class="node">
<title>3</title>
<path fill="none" stroke="#567bd8" stroke-width="2" d="M438.5,-324C438.5,-324 325.5,-324 325.5,-324 319.5,-324 313.5,-318 313.5,-312 313.5,-312 313.5,-300 313.5,-300 313.5,-294 319.5,-288 325.5,-288 325.5,-288 438.5,-288 438.5,-288 444.5,-288 450.5,-294 450.5,-300 450.5,-300 450.5,-312 450.5,-312 450.5,-318 444.5,-324 438.5,-324"/>
<text text-anchor="middle" x="382" y="-303.5" font-family="sans" font-size="10.00">load_and_annotate_data</text>
</g>
<!-- 3&#45;&gt;2 -->
<g id="edge11" class="edge">
<title>3&#45;&gt;2</title>
<path fill="none" stroke="grey" stroke-width="2" d="M313.09,-291.97C273.29,-283.22 222.79,-269.97 180,-252 137.45,-234.13 92.48,-205.79 63.22,-185.9"/>
<polygon fill="grey" stroke="grey" stroke-width="2" points="64.89,-182.8 54.66,-180.02 60.92,-188.57 64.89,-182.8"/>
</g>
<!-- 4 -->
<g id="node5" class="node">
<title>4</title>
<path fill="none" stroke="#68d856" stroke-width="2" d="M157.5,-180C157.5,-180 92.5,-180 92.5,-180 86.5,-180 80.5,-174 80.5,-168 80.5,-168 80.5,-156 80.5,-156 80.5,-150 86.5,-144 92.5,-144 92.5,-144 157.5,-144 157.5,-144 163.5,-144 169.5,-150 169.5,-156 169.5,-156 169.5,-168 169.5,-168 169.5,-174 163.5,-180 157.5,-180"/>
<text text-anchor="middle" x="125" y="-159.5" font-family="sans" font-size="10.00">plot_MX1_MX2</text>
</g>
<!-- 3&#45;&gt;4 -->
<g id="edge12" class="edge">
<title>3&#45;&gt;4</title>
<path fill="none" stroke="grey" stroke-width="2" d="M319.82,-287.95C292.55,-279.17 260.73,-267.1 234,-252 202.31,-234.1 170.6,-206.89 149.61,-187.27"/>
<polygon fill="grey" stroke="grey" stroke-width="2" points="151.78,-184.51 142.12,-180.16 146.96,-189.58 151.78,-184.51"/>
</g>
<!-- 5 -->
<g id="node6" class="node">
<title>5</title>
<path fill="none" stroke="#d89c56" stroke-width="2" d="M291,-180C291,-180 199,-180 199,-180 193,-180 187,-174 187,-168 187,-168 187,-156 187,-156 187,-150 193,-144 199,-144 199,-144 291,-144 291,-144 297,-144 303,-150 303,-156 303,-156 303,-168 303,-168 303,-174 297,-180 291,-180"/>
<text text-anchor="middle" x="245" y="-159.5" font-family="sans" font-size="10.00">pairwise_correlation</text>
</g>
<!-- 3&#45;&gt;5 -->
<g id="edge13" class="edge">
<title>3&#45;&gt;5</title>
<path fill="none" stroke="grey" stroke-width="2" d="M313.28,-293.95C288.64,-286.37 263.2,-273.57 248,-252 235.45,-234.19 235.81,-209.03 238.66,-189.99"/>
<polygon fill="grey" stroke="grey" stroke-width="2" points="242.11,-190.6 240.44,-180.14 235.22,-189.36 242.11,-190.6"/>
</g>
<!-- 6 -->
<g id="node7" class="node">
<title>6</title>
<path fill="none" stroke="#d87556" stroke-width="2" d="M314.5,-252C314.5,-252 269.5,-252 269.5,-252 263.5,-252 257.5,-246 257.5,-240 257.5,-240 257.5,-228 257.5,-228 257.5,-222 263.5,-216 269.5,-216 269.5,-216 314.5,-216 314.5,-216 320.5,-216 326.5,-222 326.5,-228 326.5,-228 326.5,-240 326.5,-240 326.5,-246 320.5,-252 314.5,-252"/>
<text text-anchor="middle" x="292" y="-231.5" font-family="sans" font-size="10.00">PCA_biplot</text>
</g>
<!-- 3&#45;&gt;6 -->
<g id="edge14" class="edge">
<title>3&#45;&gt;6</title>
<path fill="none" stroke="grey" stroke-width="2" d="M359.75,-287.7C348.42,-278.88 334.47,-268.03 322.18,-258.47"/>
<polygon fill="grey" stroke="grey" stroke-width="2" points="324.03,-255.48 313.99,-252.1 319.74,-261.01 324.03,-255.48"/>
</g>
<!-- 7 -->
<g id="node8" class="node">
<title>7</title>
<path fill="none" stroke="#afd856" stroke-width="2" d="M407.5,-252C407.5,-252 356.5,-252 356.5,-252 350.5,-252 344.5,-246 344.5,-240 344.5,-240 344.5,-228 344.5,-228 344.5,-222 350.5,-216 356.5,-216 356.5,-216 407.5,-216 407.5,-216 413.5,-216 419.5,-222 419.5,-228 419.5,-228 419.5,-240 419.5,-240 419.5,-246 413.5,-252 407.5,-252"/>
<text text-anchor="middle" x="382" y="-231.5" font-family="sans" font-size="10.00">plot_of_PCA</text>
</g>
<!-- 3&#45;&gt;7 -->
<g id="edge15" class="edge">
<title>3&#45;&gt;7</title>
<path fill="none" stroke="grey" stroke-width="2" d="M382,-287.7C382,-279.98 382,-270.71 382,-262.11"/>
<polygon fill="grey" stroke="grey" stroke-width="2" points="385.5,-262.1 382,-252.1 378.5,-262.1 385.5,-262.1"/>
</g>
<!-- 9 -->
<g id="node10" class="node">
<title>9</title>
<path fill="none" stroke="#56d8a9" stroke-width="2" d="M548.5,-252C548.5,-252 449.5,-252 449.5,-252 443.5,-252 437.5,-246 437.5,-240 437.5,-240 437.5,-228 437.5,-228 437.5,-222 443.5,-216 449.5,-216 449.5,-216 548.5,-216 548.5,-216 554.5,-216 560.5,-222 560.5,-228 560.5,-228 560.5,-240 560.5,-240 560.5,-246 554.5,-252 548.5,-252"/>
<text text-anchor="middle" x="499" y="-231.5" font-family="sans" font-size="10.00">spearman_correlation</text>
</g>
<!-- 3&#45;&gt;9 -->
<g id="edge17" class="edge">
<title>3&#45;&gt;9</title>
<path fill="none" stroke="grey" stroke-width="2" d="M410.62,-287.88C425.92,-278.72 444.94,-267.34 461.42,-257.48"/>
<polygon fill="grey" stroke="grey" stroke-width="2" points="463.48,-260.33 470.27,-252.19 459.89,-254.32 463.48,-260.33"/>
</g>
<!-- 11 -->
<g id="node12" class="node">
<title>11</title>
<path fill="none" stroke="#569ad8" stroke-width="2" d="M649.5,-252C649.5,-252 590.5,-252 590.5,-252 584.5,-252 578.5,-246 578.5,-240 578.5,-240 578.5,-228 578.5,-228 578.5,-222 584.5,-216 590.5,-216 590.5,-216 649.5,-216 649.5,-216 655.5,-216 661.5,-222 661.5,-228 661.5,-228 661.5,-240 661.5,-240 661.5,-246 655.5,-252 649.5,-252"/>
<text text-anchor="middle" x="620" y="-231.5" font-family="sans" font-size="10.00">wilcoxon_test</text>
</g>
<!-- 3&#45;&gt;11 -->
<g id="edge19" class="edge">
<title>3&#45;&gt;11</title>
<path fill="none" stroke="grey" stroke-width="2" d="M444.97,-287.92C478.99,-278.52 521.93,-266.36 568.6,-252.06"/>
<polygon fill="grey" stroke="grey" stroke-width="2" points="569.77,-255.36 578.3,-249.07 567.71,-248.67 569.77,-255.36"/>
</g>
<!-- 13 -->
<g id="node14" class="node">
<title>13</title>
<path fill="none" stroke="#56c1d8" stroke-width="2" d="M762.5,-252C762.5,-252 691.5,-252 691.5,-252 685.5,-252 679.5,-246 679.5,-240 679.5,-240 679.5,-228 679.5,-228 679.5,-222 685.5,-216 691.5,-216 691.5,-216 762.5,-216 762.5,-216 768.5,-216 774.5,-222 774.5,-228 774.5,-228 774.5,-240 774.5,-240 774.5,-246 768.5,-252 762.5,-252"/>
<text text-anchor="middle" x="727" y="-231.5" font-family="sans" font-size="10.00">jonckheere_test</text>
</g>
<!-- 3&#45;&gt;13 -->
<g id="edge21" class="edge">
<title>3&#45;&gt;13</title>
<path fill="none" stroke="grey" stroke-width="2" d="M450.52,-294.53C506.86,-285.43 588.89,-271.06 669.4,-252.01"/>
<polygon fill="grey" stroke="grey" stroke-width="2" points="670.3,-255.39 679.21,-249.66 668.67,-248.58 670.3,-255.39"/>
</g>
<!-- 14 -->
<g id="node15" class="node">
<title>14</title>
<path fill="none" stroke="#88d856" stroke-width="2" d="M935.5,-252C935.5,-252 804.5,-252 804.5,-252 798.5,-252 792.5,-246 792.5,-240 792.5,-240 792.5,-228 792.5,-228 792.5,-222 798.5,-216 804.5,-216 804.5,-216 935.5,-216 935.5,-216 941.5,-216 947.5,-222 947.5,-228 947.5,-228 947.5,-240 947.5,-240 947.5,-246 941.5,-252 935.5,-252"/>
<text text-anchor="middle" x="870" y="-231.5" font-family="sans" font-size="10.00">histogram_of_selected_data</text>
</g>
<!-- 3&#45;&gt;14 -->
<g id="edge22" class="edge">
<title>3&#45;&gt;14</title>
<path fill="none" stroke="grey" stroke-width="2" d="M450.66,-297.23C528.56,-288.12 659.61,-271.91 782.31,-252.06"/>
<polygon fill="grey" stroke="grey" stroke-width="2" points="782.95,-255.5 792.25,-250.44 781.82,-248.59 782.95,-255.5"/>
</g>
<!-- 4&#45;&gt;1 -->
<g id="edge8" class="edge">
<title>4&#45;&gt;1</title>
<path fill="none" stroke="grey" stroke-width="2" d="M169.78,-146.5C172.56,-145.64 175.32,-144.8 178,-144 219.77,-131.51 266.97,-118.41 304,-108.35"/>
<polygon fill="grey" stroke="grey" stroke-width="2" points="304.93,-111.72 313.67,-105.73 303.1,-104.97 304.93,-111.72"/>
</g>
<!-- 5&#45;&gt;1 -->
<g id="edge4" class="edge">
<title>5&#45;&gt;1</title>
<path fill="none" stroke="grey" stroke-width="2" d="M275.33,-143.88C291.7,-134.64 312.08,-123.13 329.65,-113.21"/>
<polygon fill="grey" stroke="grey" stroke-width="2" points="331.56,-116.15 338.55,-108.19 328.12,-110.06 331.56,-116.15"/>
</g>
<!-- 6&#45;&gt;1 -->
<g id="edge3" class="edge">
<title>6&#45;&gt;1</title>
<path fill="none" stroke="grey" stroke-width="2" d="M301.29,-215.87C314.58,-191.35 339.16,-146.03 354.76,-117.26"/>
<polygon fill="grey" stroke="grey" stroke-width="2" points="357.99,-118.65 359.68,-108.19 351.84,-115.31 357.99,-118.65"/>
</g>
<!-- 7&#45;&gt;1 -->
<g id="edge6" class="edge">
<title>7&#45;&gt;1</title>
<path fill="none" stroke="grey" stroke-width="2" d="M380.43,-215.87C378.22,-191.67 374.15,-147.21 371.51,-118.39"/>
<polygon fill="grey" stroke="grey" stroke-width="2" points="374.97,-117.83 370.57,-108.19 368,-118.47 374.97,-117.83"/>
</g>
<!-- 8 -->
<g id="node9" class="node">
<title>8</title>
<path fill="none" stroke="#56d8d0" stroke-width="2" d="M543.5,-180C543.5,-180 408.5,-180 408.5,-180 402.5,-180 396.5,-174 396.5,-168 396.5,-168 396.5,-156 396.5,-156 396.5,-150 402.5,-144 408.5,-144 408.5,-144 543.5,-144 543.5,-144 549.5,-144 555.5,-150 555.5,-156 555.5,-156 555.5,-168 555.5,-168 555.5,-174 549.5,-180 543.5,-180"/>
<text text-anchor="middle" x="476" y="-159.5" font-family="sans" font-size="10.00">spearman_correlation_to_pdf</text>
</g>
<!-- 8&#45;&gt;1 -->
<g id="edge10" class="edge">
<title>8&#45;&gt;1</title>
<path fill="none" stroke="grey" stroke-width="2" d="M449.82,-143.88C435.96,-134.81 418.76,-123.55 403.79,-113.76"/>
<polygon fill="grey" stroke="grey" stroke-width="2" points="405.56,-110.74 395.28,-108.19 401.73,-116.59 405.56,-110.74"/>
</g>
<!-- 9&#45;&gt;8 -->
<g id="edge16" class="edge">
<title>9&#45;&gt;8</title>
<path fill="none" stroke="grey" stroke-width="2" d="M493.31,-215.7C490.75,-207.9 487.67,-198.51 484.82,-189.83"/>
<polygon fill="grey" stroke="grey" stroke-width="2" points="488.07,-188.51 481.62,-180.1 481.42,-190.7 488.07,-188.51"/>
</g>
<!-- 10 -->
<g id="node11" class="node">
<title>10</title>
<path fill="none" stroke="#d85656" stroke-width="2" d="M680.5,-180C680.5,-180 585.5,-180 585.5,-180 579.5,-180 573.5,-174 573.5,-168 573.5,-168 573.5,-156 573.5,-156 573.5,-150 579.5,-144 585.5,-144 585.5,-144 680.5,-144 680.5,-144 686.5,-144 692.5,-150 692.5,-156 692.5,-156 692.5,-168 692.5,-168 692.5,-174 686.5,-180 680.5,-180"/>
<text text-anchor="middle" x="633" y="-159.5" font-family="sans" font-size="10.00">wilcoxon_test_to_pdf</text>
</g>
<!-- 10&#45;&gt;1 -->
<g id="edge2" class="edge">
<title>10&#45;&gt;1</title>
<path fill="none" stroke="grey" stroke-width="2" d="M573.42,-145.2C531.94,-134.2 476.64,-119.54 434.02,-108.24"/>
<polygon fill="grey" stroke="grey" stroke-width="2" points="434.87,-104.84 424.3,-105.66 433.07,-111.61 434.87,-104.84"/>
</g>
<!-- 11&#45;&gt;10 -->
<g id="edge18" class="edge">
<title>11&#45;&gt;10</title>
<path fill="none" stroke="grey" stroke-width="2" d="M623.21,-215.7C624.65,-207.98 626.37,-198.71 627.96,-190.11"/>
<polygon fill="grey" stroke="grey" stroke-width="2" points="631.44,-190.58 629.82,-180.1 624.56,-189.3 631.44,-190.58"/>
</g>
<!-- 12 -->
<g id="node13" class="node">
<title>12</title>
<path fill="none" stroke="#d8bc56" stroke-width="2" d="M829.5,-180C829.5,-180 722.5,-180 722.5,-180 716.5,-180 710.5,-174 710.5,-168 710.5,-168 710.5,-156 710.5,-156 710.5,-150 716.5,-144 722.5,-144 722.5,-144 829.5,-144 829.5,-144 835.5,-144 841.5,-150 841.5,-156 841.5,-156 841.5,-168 841.5,-168 841.5,-174 835.5,-180 829.5,-180"/>
<text text-anchor="middle" x="776" y="-159.5" font-family="sans" font-size="10.00">jonckheere_test_to_pdf</text>
</g>
<!-- 12&#45;&gt;1 -->
<g id="edge5" class="edge">
<title>12&#45;&gt;1</title>
<path fill="none" stroke="grey" stroke-width="2" d="M710.2,-145.83C707.09,-145.2 704.02,-144.58 701,-144 608.74,-126.2 501.22,-109.83 434.12,-100.13"/>
<polygon fill="grey" stroke="grey" stroke-width="2" points="434.51,-96.65 424.12,-98.69 433.52,-103.58 434.51,-96.65"/>
</g>
<!-- 13&#45;&gt;12 -->
<g id="edge20" class="edge">
<title>13&#45;&gt;12</title>
<path fill="none" stroke="grey" stroke-width="2" d="M739.11,-215.7C744.87,-207.47 751.86,-197.48 758.21,-188.42"/>
<polygon fill="grey" stroke="grey" stroke-width="2" points="761.16,-190.3 764.03,-180.1 755.42,-186.29 761.16,-190.3"/>
</g>
<!-- 14&#45;&gt;1 -->
<g id="edge7" class="edge">
<title>14&#45;&gt;1</title>
<path fill="none" stroke="grey" stroke-width="2" d="M871.54,-215.69C872.3,-195.31 870.07,-161.95 850,-144 819.62,-116.83 558.94,-100.4 434.54,-94.04"/>
<polygon fill="grey" stroke="grey" stroke-width="2" points="434.55,-90.53 424.38,-93.52 434.19,-97.52 434.55,-90.53"/>
</g>
</g>
</svg>
