<?xml version="1.0" encoding="UTF-8" standalone="no"?>
<!DOCTYPE svg PUBLIC "-//W3C//DTD SVG 1.1//EN"
 "http://www.w3.org/Graphics/SVG/1.1/DTD/svg11.dtd">
<!-- Generated by graphviz version 2.43.0 (0)
 -->
<!-- Title: snakemake_dag Pages: 1 -->
<svg width="2101pt" height="912pt"
 viewBox="0.00 0.00 2100.62 912.00" xmlns="http://www.w3.org/2000/svg" xmlns:xlink="http://www.w3.org/1999/xlink">
<g id="graph0" class="graph" transform="scale(1 1) rotate(0) translate(4 908)">
<title>snakemake_dag</title>
<polygon fill="white" stroke="transparent" points="-4,4 -4,-908 2096.62,-908 2096.62,4 -4,4"/>
<!-- 0 -->
<g id="node1" class="node">
<title>0</title>
<text text-anchor="start" x="1246.5" y="-89.6" font-family="sans" font-weight="bold" font-size="18.00">all</text>
<text text-anchor="start" x="1147.5" y="-65.8" font-family="sans" font-size="10.00"> </text>
<text text-anchor="start" x="1151.5" y="-65.8" font-family="sans" font-weight="bold" font-size="14.00">↪ input</text>
<text text-anchor="start" x="1209.5" y="-65.8" font-family="sans" font-size="10.00"> </text>
<text text-anchor="start" x="1147.5" y="-46" font-family="monospace" font-size="10.00">results/GSE152075/3D_plot_of_pca.html</text>
<text text-anchor="start" x="1147.5" y="-28" font-family="monospace" font-size="10.00">results/GSE152075/summary.pdf</text>
<text text-anchor="start" x="1363.5" y="-10" font-family="sans" font-size="10.00"> &#160;</text>
<polygon fill="#add957" stroke="#add957" points="1141.5,-80 1141.5,-80 1377.5,-80 1377.5,-80 1141.5,-80"/>
<polygon fill="#add957" stroke="#add957" points="1141.5,-22 1141.5,-22 1377.5,-22 1377.5,-22 1141.5,-22"/>
<polygon fill="none" stroke="#add957" stroke-width="2" points="1141,-1 1141,-109 1376,-109 1376,-1 1141,-1"/>
</g>
<!-- 1 -->
<g id="node2" class="node">
<title>1</title>
<text text-anchor="start" x="1011.5" y="-365.6" font-family="sans" font-weight="bold" font-size="18.00">summarize_results</text>
<text text-anchor="start" x="943.5" y="-341.8" font-family="sans" font-size="10.00"> </text>
<text text-anchor="start" x="947.5" y="-341.8" font-family="sans" font-weight="bold" font-size="14.00">↪ input</text>
<text text-anchor="start" x="1005.5" y="-341.8" font-family="sans" font-size="10.00"> </text>
<text text-anchor="start" x="943.5" y="-322" font-family="monospace" font-size="10.00">results/{dataset}/histogram.pdf</text>
<text text-anchor="start" x="943.5" y="-304" font-family="monospace" font-size="10.00">results/{dataset}/jonckheere_test.pdf</text>
<text text-anchor="start" x="943.5" y="-286" font-family="monospace" font-size="10.00">results/{dataset}/pairwise_correlation.pdf</text>
<text text-anchor="start" x="943.5" y="-268" font-family="monospace" font-size="10.00">results/{dataset}/pca_biplot.pdf</text>
<text text-anchor="start" x="943.5" y="-250" font-family="monospace" font-size="10.00">results/{dataset}/spearman_correlation.pdf</text>
<text text-anchor="start" x="943.5" y="-232" font-family="monospace" font-size="10.00">results/{dataset}/target_gene_plot.pdf</text>
<text text-anchor="start" x="943.5" y="-214" font-family="monospace" font-size="10.00">results/{dataset}/target_gene_validation_gene_plot.pdf</text>
<text text-anchor="start" x="943.5" y="-196" font-family="monospace" font-size="10.00">results/{dataset}/wilcoxon_test.pdf</text>
<text text-anchor="start" x="1190.5" y="-175.8" font-family="sans" font-size="10.00"> </text>
<text text-anchor="start" x="1194.5" y="-175.8" font-family="sans" font-weight="bold" font-size="14.00">output →</text>
<text text-anchor="start" x="1264.5" y="-175.8" font-family="sans" font-size="10.00"> </text>
<text text-anchor="start" x="943.5" y="-156" font-family="monospace" font-size="10.00">results/{dataset}/summary.pdf</text>
<polygon fill="#d97957" stroke="#d97957" points="937.5,-356 937.5,-356 1275.5,-356 1275.5,-356 937.5,-356"/>
<polygon fill="#d97957" stroke="#d97957" points="937.5,-190 937.5,-190 1275.5,-190 1275.5,-190 937.5,-190"/>
<polygon fill="none" stroke="#d97957" stroke-width="2" points="937,-147 937,-385 1274,-385 1274,-147 937,-147"/>
</g>
<!-- 1&#45;&gt;0 -->
<g id="edge1" class="edge">
<title>1&#45;&gt;0</title>
<path fill="none" stroke="grey" stroke-width="2" d="M1192.73,-145.85C1199.64,-136.4 1206.44,-127.12 1212.89,-118.31"/>
<polygon fill="grey" stroke="grey" stroke-width="2" points="1215.87,-120.16 1218.95,-110.03 1210.22,-116.03 1215.87,-120.16"/>
</g>
<!-- 2 -->
<g id="node3" class="node">
<title>2</title>
<text text-anchor="start" x="37.5" y="-533.6" font-family="sans" font-weight="bold" font-size="18.00">plot_target_gene</text>
<text text-anchor="start" x="7.5" y="-509.8" font-family="sans" font-size="10.00"> </text>
<text text-anchor="start" x="11.5" y="-509.8" font-family="sans" font-weight="bold" font-size="14.00">↪ input</text>
<text text-anchor="start" x="69.5" y="-509.8" font-family="sans" font-size="10.00"> </text>
<text text-anchor="start" x="7.5" y="-490" font-family="monospace" font-size="10.00">tmp/{dataset}/clindata.csv</text>
<text text-anchor="start" x="7.5" y="-472" font-family="monospace" font-size="10.00">tmp/{dataset}/norm_counts.csv</text>
<text text-anchor="start" x="158.5" y="-451.8" font-family="sans" font-size="10.00"> </text>
<text text-anchor="start" x="162.5" y="-451.8" font-family="sans" font-weight="bold" font-size="14.00">output →</text>
<text text-anchor="start" x="232.5" y="-451.8" font-family="sans" font-size="10.00"> </text>
<text text-anchor="start" x="7.5" y="-432" font-family="monospace" font-size="10.00">results/{dataset}/target_gene_plot.pdf</text>
<polygon fill="#57d9d0" stroke="#57d9d0" points="1.5,-524 1.5,-524 243.5,-524 243.5,-524 1.5,-524"/>
<polygon fill="#57d9d0" stroke="#57d9d0" points="1.5,-466 1.5,-466 243.5,-466 243.5,-466 1.5,-466"/>
<polygon fill="none" stroke="#57d9d0" stroke-width="2" points="1,-423 1,-553 242,-553 242,-423 1,-423"/>
</g>
<!-- 2&#45;&gt;1 -->
<g id="edge7" class="edge">
<title>2&#45;&gt;1</title>
<path fill="none" stroke="grey" stroke-width="2" d="M243.2,-424.89C245.98,-423.88 248.75,-422.92 251.5,-422 477.63,-346.66 750.36,-305.25 925.77,-284.6"/>
<polygon fill="grey" stroke="grey" stroke-width="2" points="926.35,-288.05 935.87,-283.42 925.54,-281.1 926.35,-288.05"/>
</g>
<!-- 3 -->
<g id="node4" class="node">
<title>3</title>
<text text-anchor="start" x="984.5" y="-883.6" font-family="sans" font-weight="bold" font-size="18.00">load_and_annotate_data</text>
<text text-anchor="start" x="984.5" y="-862" font-family="sans" font-size="10.00"> &#160;</text>
<text text-anchor="start" x="1149.5" y="-841.8" font-family="sans" font-size="10.00"> </text>
<text text-anchor="start" x="1153.5" y="-841.8" font-family="sans" font-weight="bold" font-size="14.00">output →</text>
<text text-anchor="start" x="1223.5" y="-841.8" font-family="sans" font-size="10.00"> </text>
<text text-anchor="start" x="984.5" y="-822" font-family="monospace" font-size="10.00">tmp/{dataset}/clindata.csv</text>
<text text-anchor="start" x="984.5" y="-804" font-family="monospace" font-size="10.00">tmp/{dataset}/norm_counts.csv</text>
<text text-anchor="start" x="984.5" y="-786" font-family="monospace" font-size="10.00">tmp/{dataset}/raw_counts.txt</text>
<polygon fill="#8bd957" stroke="#8bd957" points="978.5,-874 978.5,-874 1234.5,-874 1234.5,-874 978.5,-874"/>
<polygon fill="#8bd957" stroke="#8bd957" points="978.5,-856 978.5,-856 1234.5,-856 1234.5,-856 978.5,-856"/>
<polygon fill="none" stroke="#8bd957" stroke-width="2" points="978,-777 978,-903 1233,-903 1233,-777 978,-777"/>
</g>
<!-- 3&#45;&gt;2 -->
<g id="edge11" class="edge">
<title>3&#45;&gt;2</title>
<path fill="none" stroke="grey" stroke-width="2" d="M976.99,-831.69C856.06,-821.48 671.64,-797.23 521.5,-740 406.93,-696.33 289.71,-618.03 212.04,-560.45"/>
<polygon fill="grey" stroke="grey" stroke-width="2" points="213.82,-557.41 203.71,-554.25 209.64,-563.03 213.82,-557.41"/>
</g>
<!-- 4 -->
<g id="node5" class="node">
<title>4</title>
<text text-anchor="start" x="268.5" y="-533.6" font-family="sans" font-weight="bold" font-size="18.00">plot_target_gene_validation_gene</text>
<text text-anchor="start" x="268.5" y="-509.8" font-family="sans" font-size="10.00"> </text>
<text text-anchor="start" x="272.5" y="-509.8" font-family="sans" font-weight="bold" font-size="14.00">↪ input</text>
<text text-anchor="start" x="330.5" y="-509.8" font-family="sans" font-size="10.00"> </text>
<text text-anchor="start" x="268.5" y="-490" font-family="monospace" font-size="10.00">tmp/{dataset}/clindata.csv</text>
<text text-anchor="start" x="268.5" y="-472" font-family="monospace" font-size="10.00">tmp/{dataset}/norm_counts.csv</text>
<text text-anchor="start" x="527.5" y="-451.8" font-family="sans" font-size="10.00"> </text>
<text text-anchor="start" x="531.5" y="-451.8" font-family="sans" font-weight="bold" font-size="14.00">output →</text>
<text text-anchor="start" x="601.5" y="-451.8" font-family="sans" font-size="10.00"> </text>
<text text-anchor="start" x="268.5" y="-432" font-family="monospace" font-size="10.00">results/{dataset}/target_gene_validation_gene_plot.pdf</text>
<polygon fill="#d99c57" stroke="#d99c57" points="262.5,-524 262.5,-524 612.5,-524 612.5,-524 262.5,-524"/>
<polygon fill="#d99c57" stroke="#d99c57" points="262.5,-466 262.5,-466 612.5,-466 612.5,-466 262.5,-466"/>
<polygon fill="none" stroke="#d99c57" stroke-width="2" points="262,-423 262,-553 611,-553 611,-423 262,-423"/>
</g>
<!-- 3&#45;&gt;4 -->
<g id="edge12" class="edge">
<title>3&#45;&gt;4</title>
<path fill="none" stroke="grey" stroke-width="2" d="M976.56,-823.36C896.12,-809.68 792.47,-784.71 709.5,-740 625.83,-694.92 547.88,-618.36 496.87,-561.63"/>
<polygon fill="grey" stroke="grey" stroke-width="2" points="499.43,-559.24 490.16,-554.11 494.21,-563.9 499.43,-559.24"/>
</g>
<!-- 5 -->
<g id="node6" class="node">
<title>5</title>
<text text-anchor="start" x="662" y="-533.6" font-family="sans" font-weight="bold" font-size="18.00">pairwise_correlation</text>
<text text-anchor="start" x="637.5" y="-509.8" font-family="sans" font-size="10.00"> </text>
<text text-anchor="start" x="641.5" y="-509.8" font-family="sans" font-weight="bold" font-size="14.00">↪ input</text>
<text text-anchor="start" x="699.5" y="-509.8" font-family="sans" font-size="10.00"> </text>
<text text-anchor="start" x="637.5" y="-490" font-family="monospace" font-size="10.00">tmp/{dataset}/clindata.csv</text>
<text text-anchor="start" x="637.5" y="-472" font-family="monospace" font-size="10.00">tmp/{dataset}/norm_counts.csv</text>
<text text-anchor="start" x="812.5" y="-451.8" font-family="sans" font-size="10.00"> </text>
<text text-anchor="start" x="816.5" y="-451.8" font-family="sans" font-weight="bold" font-size="14.00">output →</text>
<text text-anchor="start" x="886.5" y="-451.8" font-family="sans" font-size="10.00"> </text>
<text text-anchor="start" x="637.5" y="-432" font-family="monospace" font-size="10.00">results/{dataset}/pairwise_correlation.pdf</text>
<polygon fill="#57d968" stroke="#57d968" points="631.5,-524 631.5,-524 897.5,-524 897.5,-524 631.5,-524"/>
<polygon fill="#57d968" stroke="#57d968" points="631.5,-466 631.5,-466 897.5,-466 897.5,-466 631.5,-466"/>
<polygon fill="none" stroke="#57d968" stroke-width="2" points="631,-423 631,-553 896,-553 896,-423 631,-423"/>
</g>
<!-- 3&#45;&gt;5 -->
<g id="edge13" class="edge">
<title>3&#45;&gt;5</title>
<path fill="none" stroke="grey" stroke-width="2" d="M976.81,-821.19C882.84,-805.23 766.93,-778.4 737.5,-740 699.47,-690.39 711.91,-618.11 730.37,-563.84"/>
<polygon fill="grey" stroke="grey" stroke-width="2" points="733.72,-564.86 733.76,-554.27 727.12,-562.53 733.72,-564.86"/>
</g>
<!-- 6 -->
<g id="node7" class="node">
<title>6</title>
<text text-anchor="start" x="799.5" y="-710.6" font-family="sans" font-weight="bold" font-size="18.00">pca_biplot</text>
<text text-anchor="start" x="754.5" y="-686.8" font-family="sans" font-size="10.00"> </text>
<text text-anchor="start" x="758.5" y="-686.8" font-family="sans" font-weight="bold" font-size="14.00">↪ input</text>
<text text-anchor="start" x="816.5" y="-686.8" font-family="sans" font-size="10.00"> </text>
<text text-anchor="start" x="754.5" y="-667" font-family="monospace" font-size="10.00">tmp/{dataset}/clindata.csv</text>
<text text-anchor="start" x="754.5" y="-649" font-family="monospace" font-size="10.00">tmp/{dataset}/norm_counts.csv</text>
<text text-anchor="start" x="869.5" y="-628.8" font-family="sans" font-size="10.00"> </text>
<text text-anchor="start" x="873.5" y="-628.8" font-family="sans" font-weight="bold" font-size="14.00">output →</text>
<text text-anchor="start" x="943.5" y="-628.8" font-family="sans" font-size="10.00"> </text>
<text text-anchor="start" x="754.5" y="-609" font-family="monospace" font-size="10.00">results/{dataset}/pca_biplot.pdf</text>
<polygon fill="#579cd9" stroke="#579cd9" points="748.5,-701 748.5,-701 954.5,-701 954.5,-701 748.5,-701"/>
<polygon fill="#579cd9" stroke="#579cd9" points="748.5,-643 748.5,-643 954.5,-643 954.5,-643 748.5,-643"/>
<polygon fill="none" stroke="#579cd9" stroke-width="2" points="748,-600 748,-730 953,-730 953,-600 748,-600"/>
</g>
<!-- 3&#45;&gt;6 -->
<g id="edge14" class="edge">
<title>3&#45;&gt;6</title>
<path fill="none" stroke="grey" stroke-width="2" d="M1012.36,-775.81C993.64,-763.11 973.86,-749.69 954.8,-736.76"/>
<polygon fill="grey" stroke="grey" stroke-width="2" points="956.63,-733.77 946.39,-731.05 952.7,-739.56 956.63,-733.77"/>
</g>
<!-- 8 -->
<g id="node9" class="node">
<title>8</title>
<text text-anchor="start" x="996.5" y="-710.6" font-family="sans" font-weight="bold" font-size="18.00">spearman_correlation</text>
<text text-anchor="start" x="979.5" y="-686.8" font-family="sans" font-size="10.00"> </text>
<text text-anchor="start" x="983.5" y="-686.8" font-family="sans" font-weight="bold" font-size="14.00">↪ input</text>
<text text-anchor="start" x="1041.5" y="-686.8" font-family="sans" font-size="10.00"> </text>
<text text-anchor="start" x="979.5" y="-667" font-family="monospace" font-size="10.00">tmp/{dataset}/clindata.csv</text>
<text text-anchor="start" x="979.5" y="-649" font-family="monospace" font-size="10.00">tmp/{dataset}/norm_counts.csv</text>
<text text-anchor="start" x="1154.5" y="-628.8" font-family="sans" font-size="10.00"> </text>
<text text-anchor="start" x="1158.5" y="-628.8" font-family="sans" font-weight="bold" font-size="14.00">output →</text>
<text text-anchor="start" x="1228.5" y="-628.8" font-family="sans" font-size="10.00"> </text>
<text text-anchor="start" x="979.5" y="-609" font-family="monospace" font-size="10.00">results/{dataset}/spearman_correlation.txt</text>
<polygon fill="#d0d957" stroke="#d0d957" points="973.5,-701 973.5,-701 1239.5,-701 1239.5,-701 973.5,-701"/>
<polygon fill="#d0d957" stroke="#d0d957" points="973.5,-643 973.5,-643 1239.5,-643 1239.5,-643 973.5,-643"/>
<polygon fill="none" stroke="#d0d957" stroke-width="2" points="973,-600 973,-730 1238,-730 1238,-600 973,-600"/>
</g>
<!-- 3&#45;&gt;8 -->
<g id="edge16" class="edge">
<title>3&#45;&gt;8</title>
<path fill="none" stroke="grey" stroke-width="2" d="M1105.5,-775.56C1105.5,-764.49 1105.5,-752.87 1105.5,-741.51"/>
<polygon fill="grey" stroke="grey" stroke-width="2" points="1109,-741.17 1105.5,-731.17 1102,-741.17 1109,-741.17"/>
</g>
<!-- 10 -->
<g id="node11" class="node">
<title>10</title>
<text text-anchor="start" x="1302" y="-710.6" font-family="sans" font-weight="bold" font-size="18.00">wilcoxon_test</text>
<text text-anchor="start" x="1264.5" y="-686.8" font-family="sans" font-size="10.00"> </text>
<text text-anchor="start" x="1268.5" y="-686.8" font-family="sans" font-weight="bold" font-size="14.00">↪ input</text>
<text text-anchor="start" x="1326.5" y="-686.8" font-family="sans" font-size="10.00"> </text>
<text text-anchor="start" x="1264.5" y="-667" font-family="monospace" font-size="10.00">tmp/{dataset}/clindata.csv</text>
<text text-anchor="start" x="1264.5" y="-649" font-family="monospace" font-size="10.00">tmp/{dataset}/norm_counts.csv</text>
<text text-anchor="start" x="1397.5" y="-628.8" font-family="sans" font-size="10.00"> </text>
<text text-anchor="start" x="1401.5" y="-628.8" font-family="sans" font-weight="bold" font-size="14.00">output →</text>
<text text-anchor="start" x="1471.5" y="-628.8" font-family="sans" font-size="10.00"> </text>
<text text-anchor="start" x="1264.5" y="-609" font-family="monospace" font-size="10.00">results/{dataset}/wilcoxon_test.txt</text>
<polygon fill="#57d9ad" stroke="#57d9ad" points="1258.5,-701 1258.5,-701 1482.5,-701 1482.5,-701 1258.5,-701"/>
<polygon fill="#57d9ad" stroke="#57d9ad" points="1258.5,-643 1258.5,-643 1482.5,-643 1482.5,-643 1258.5,-643"/>
<polygon fill="none" stroke="#57d9ad" stroke-width="2" points="1258,-600 1258,-730 1481,-730 1481,-600 1258,-600"/>
</g>
<!-- 3&#45;&gt;10 -->
<g id="edge18" class="edge">
<title>3&#45;&gt;10</title>
<path fill="none" stroke="grey" stroke-width="2" d="M1201.93,-775.81C1221.39,-763.06 1241.97,-749.57 1261.79,-736.58"/>
<polygon fill="grey" stroke="grey" stroke-width="2" points="1263.78,-739.46 1270.23,-731.05 1259.95,-733.61 1263.78,-739.46"/>
</g>
<!-- 12 -->
<g id="node13" class="node">
<title>12</title>
<text text-anchor="start" x="1539" y="-710.6" font-family="sans" font-weight="bold" font-size="18.00">jonckheere_test</text>
<text text-anchor="start" x="1507.5" y="-686.8" font-family="sans" font-size="10.00"> </text>
<text text-anchor="start" x="1511.5" y="-686.8" font-family="sans" font-weight="bold" font-size="14.00">↪ input</text>
<text text-anchor="start" x="1569.5" y="-686.8" font-family="sans" font-size="10.00"> </text>
<text text-anchor="start" x="1507.5" y="-667" font-family="monospace" font-size="10.00">tmp/{dataset}/clindata.csv</text>
<text text-anchor="start" x="1507.5" y="-649" font-family="monospace" font-size="10.00">tmp/{dataset}/norm_counts.csv</text>
<text text-anchor="start" x="1652.5" y="-628.8" font-family="sans" font-size="10.00"> </text>
<text text-anchor="start" x="1656.5" y="-628.8" font-family="sans" font-weight="bold" font-size="14.00">output →</text>
<text text-anchor="start" x="1726.5" y="-628.8" font-family="sans" font-size="10.00"> </text>
<text text-anchor="start" x="1507.5" y="-609" font-family="monospace" font-size="10.00">results/{dataset}/jonckheere_test.txt</text>
<polygon fill="#d9bf57" stroke="#d9bf57" points="1501.5,-701 1501.5,-701 1737.5,-701 1737.5,-701 1501.5,-701"/>
<polygon fill="#d9bf57" stroke="#d9bf57" points="1501.5,-643 1501.5,-643 1737.5,-643 1737.5,-643 1501.5,-643"/>
<polygon fill="none" stroke="#d9bf57" stroke-width="2" points="1501,-600 1501,-730 1736,-730 1736,-600 1501,-600"/>
</g>
<!-- 3&#45;&gt;12 -->
<g id="edge20" class="edge">
<title>3&#45;&gt;12</title>
<path fill="none" stroke="grey" stroke-width="2" d="M1234.01,-815.14C1310.22,-798.75 1407.77,-773.81 1490.5,-740 1494.14,-738.51 1497.8,-736.94 1501.47,-735.29"/>
<polygon fill="grey" stroke="grey" stroke-width="2" points="1502.99,-738.45 1510.59,-731.07 1500.05,-732.1 1502.99,-738.45"/>
</g>
<!-- 13 -->
<g id="node14" class="node">
<title>13</title>
<text text-anchor="start" x="1762.5" y="-719.6" font-family="sans" font-weight="bold" font-size="18.00">histogram_of_selected_data</text>
<text text-anchor="start" x="1762.5" y="-695.8" font-family="sans" font-size="10.00"> </text>
<text text-anchor="start" x="1766.5" y="-695.8" font-family="sans" font-weight="bold" font-size="14.00">↪ input</text>
<text text-anchor="start" x="1824.5" y="-695.8" font-family="sans" font-size="10.00"> </text>
<text text-anchor="start" x="1762.5" y="-676" font-family="monospace" font-size="10.00">tmp/{dataset}/clindata.csv</text>
<text text-anchor="start" x="1762.5" y="-658" font-family="monospace" font-size="10.00">tmp/{dataset}/norm_counts.csv</text>
<text text-anchor="start" x="1762.5" y="-640" font-family="monospace" font-size="10.00">tmp/{dataset}/raw_counts.txt</text>
<text text-anchor="start" x="1962.5" y="-619.8" font-family="sans" font-size="10.00"> </text>
<text text-anchor="start" x="1966.5" y="-619.8" font-family="sans" font-weight="bold" font-size="14.00">output →</text>
<text text-anchor="start" x="2036.5" y="-619.8" font-family="sans" font-size="10.00"> </text>
<text text-anchor="start" x="1762.5" y="-600" font-family="monospace" font-size="10.00">results/{dataset}/histogram.pdf</text>
<polygon fill="#5779d9" stroke="#5779d9" points="1756.5,-710 1756.5,-710 2047.5,-710 2047.5,-710 1756.5,-710"/>
<polygon fill="#5779d9" stroke="#5779d9" points="1756.5,-634 1756.5,-634 2047.5,-634 2047.5,-634 1756.5,-634"/>
<polygon fill="none" stroke="#5779d9" stroke-width="2" points="1756.5,-591 1756.5,-739 2046.5,-739 2046.5,-591 1756.5,-591"/>
</g>
<!-- 3&#45;&gt;13 -->
<g id="edge21" class="edge">
<title>3&#45;&gt;13</title>
<path fill="none" stroke="grey" stroke-width="2" d="M1234.15,-830.22C1363.07,-818.92 1566.37,-794.22 1745.49,-740.16"/>
<polygon fill="grey" stroke="grey" stroke-width="2" points="1746.54,-743.5 1755.08,-737.23 1744.5,-736.81 1746.54,-743.5"/>
</g>
<!-- 14 -->
<g id="node15" class="node">
<title>14</title>
<text text-anchor="start" x="1688" y="-311.6" font-family="sans" font-weight="bold" font-size="18.00">plot_of_pca</text>
<text text-anchor="start" x="1632.5" y="-287.8" font-family="sans" font-size="10.00"> </text>
<text text-anchor="start" x="1636.5" y="-287.8" font-family="sans" font-weight="bold" font-size="14.00">↪ input</text>
<text text-anchor="start" x="1694.5" y="-287.8" font-family="sans" font-size="10.00"> </text>
<text text-anchor="start" x="1632.5" y="-268" font-family="monospace" font-size="10.00">tmp/{dataset}/clindata.csv</text>
<text text-anchor="start" x="1632.5" y="-250" font-family="monospace" font-size="10.00">tmp/{dataset}/norm_counts.csv</text>
<text text-anchor="start" x="1777.5" y="-229.8" font-family="sans" font-size="10.00"> </text>
<text text-anchor="start" x="1781.5" y="-229.8" font-family="sans" font-weight="bold" font-size="14.00">output →</text>
<text text-anchor="start" x="1851.5" y="-229.8" font-family="sans" font-size="10.00"> </text>
<text text-anchor="start" x="1632.5" y="-210" font-family="monospace" font-size="10.00">results/{dataset}/3D_plot_of_pca.html</text>
<polygon fill="#57d98b" stroke="#57d98b" points="1626.5,-302 1626.5,-302 1862.5,-302 1862.5,-302 1626.5,-302"/>
<polygon fill="#57d98b" stroke="#57d98b" points="1626.5,-244 1626.5,-244 1862.5,-244 1862.5,-244 1626.5,-244"/>
<polygon fill="none" stroke="#57d98b" stroke-width="2" points="1626,-201 1626,-331 1861,-331 1861,-201 1626,-201"/>
</g>
<!-- 3&#45;&gt;14 -->
<g id="edge22" class="edge">
<title>3&#45;&gt;14</title>
<path fill="none" stroke="grey" stroke-width="2" d="M1234.43,-834.99C1481.58,-825.95 2002.46,-799.96 2056.5,-740 2172.89,-610.86 1979.87,-434.87 1848.85,-338.08"/>
<polygon fill="grey" stroke="grey" stroke-width="2" points="1850.84,-335.2 1840.71,-332.1 1846.7,-340.84 1850.84,-335.2"/>
</g>
<!-- 4&#45;&gt;1 -->
<g id="edge4" class="edge">
<title>4&#45;&gt;1</title>
<path fill="none" stroke="grey" stroke-width="2" d="M612.25,-424.78C615.02,-423.85 617.77,-422.92 620.5,-422 721.35,-388.08 834.58,-351.79 926.26,-322.86"/>
<polygon fill="grey" stroke="grey" stroke-width="2" points="927.42,-326.16 935.91,-319.82 925.32,-319.49 927.42,-326.16"/>
</g>
<!-- 5&#45;&gt;1 -->
<g id="edge5" class="edge">
<title>5&#45;&gt;1</title>
<path fill="none" stroke="grey" stroke-width="2" d="M864.72,-421.89C884.55,-409.13 905.88,-395.41 927.36,-381.59"/>
<polygon fill="grey" stroke="grey" stroke-width="2" points="929.41,-384.44 935.92,-376.08 925.62,-378.55 929.41,-384.44"/>
</g>
<!-- 6&#45;&gt;1 -->
<g id="edge9" class="edge">
<title>6&#45;&gt;1</title>
<path fill="none" stroke="grey" stroke-width="2" d="M885.44,-598.84C892.57,-584.3 899.67,-568.8 905.5,-554 927.93,-497.09 912.74,-474.28 944.5,-422 950.26,-412.51 956.75,-403.2 963.73,-394.16"/>
<polygon fill="grey" stroke="grey" stroke-width="2" points="966.5,-396.29 969.98,-386.28 961.02,-391.94 966.5,-396.29"/>
</g>
<!-- 7 -->
<g id="node8" class="node">
<title>7</title>
<text text-anchor="start" x="960.5" y="-524.6" font-family="sans" font-weight="bold" font-size="18.00">spearman_correlation_to_pdf</text>
<text text-anchor="start" x="960.5" y="-500.8" font-family="sans" font-size="10.00"> </text>
<text text-anchor="start" x="964.5" y="-500.8" font-family="sans" font-weight="bold" font-size="14.00">↪ input</text>
<text text-anchor="start" x="1022.5" y="-500.8" font-family="sans" font-size="10.00"> </text>
<text text-anchor="start" x="960.5" y="-481" font-family="monospace" font-size="10.00">results/{dataset}/spearman_correlation.txt</text>
<text text-anchor="start" x="1172.5" y="-460.8" font-family="sans" font-size="10.00"> </text>
<text text-anchor="start" x="1176.5" y="-460.8" font-family="sans" font-weight="bold" font-size="14.00">output →</text>
<text text-anchor="start" x="1246.5" y="-460.8" font-family="sans" font-size="10.00"> </text>
<text text-anchor="start" x="960.5" y="-441" font-family="monospace" font-size="10.00">results/{dataset}/spearman_correlation.pdf</text>
<polygon fill="#d95757" stroke="#d95757" points="954.5,-515 954.5,-515 1257.5,-515 1257.5,-515 954.5,-515"/>
<polygon fill="#d95757" stroke="#d95757" points="954.5,-475 954.5,-475 1257.5,-475 1257.5,-475 954.5,-475"/>
<polygon fill="none" stroke="#d95757" stroke-width="2" points="954.5,-432 954.5,-544 1256.5,-544 1256.5,-432 954.5,-432"/>
</g>
<!-- 7&#45;&gt;1 -->
<g id="edge3" class="edge">
<title>7&#45;&gt;1</title>
<path fill="none" stroke="grey" stroke-width="2" d="M1105.5,-430.92C1105.5,-420.07 1105.5,-408.31 1105.5,-396.22"/>
<polygon fill="grey" stroke="grey" stroke-width="2" points="1109,-396 1105.5,-386 1102,-396 1109,-396"/>
</g>
<!-- 8&#45;&gt;7 -->
<g id="edge15" class="edge">
<title>8&#45;&gt;7</title>
<path fill="none" stroke="grey" stroke-width="2" d="M1105.5,-598.84C1105.5,-584.6 1105.5,-569.53 1105.5,-555.25"/>
<polygon fill="grey" stroke="grey" stroke-width="2" points="1109,-555.03 1105.5,-545.03 1102,-555.03 1109,-555.03"/>
</g>
<!-- 9 -->
<g id="node10" class="node">
<title>9</title>
<text text-anchor="start" x="1285.5" y="-524.6" font-family="sans" font-weight="bold" font-size="18.00">wilcoxon_test_to_pdf</text>
<text text-anchor="start" x="1283.5" y="-500.8" font-family="sans" font-size="10.00"> </text>
<text text-anchor="start" x="1287.5" y="-500.8" font-family="sans" font-weight="bold" font-size="14.00">↪ input</text>
<text text-anchor="start" x="1345.5" y="-500.8" font-family="sans" font-size="10.00"> </text>
<text text-anchor="start" x="1283.5" y="-481" font-family="monospace" font-size="10.00">results/{dataset}/wilcoxon_test.txt</text>
<text text-anchor="start" x="1416.5" y="-460.8" font-family="sans" font-size="10.00"> </text>
<text text-anchor="start" x="1420.5" y="-460.8" font-family="sans" font-weight="bold" font-size="14.00">output →</text>
<text text-anchor="start" x="1490.5" y="-460.8" font-family="sans" font-size="10.00"> </text>
<text text-anchor="start" x="1283.5" y="-441" font-family="monospace" font-size="10.00">results/{dataset}/wilcoxon_test.pdf</text>
<polygon fill="#57bfd9" stroke="#57bfd9" points="1277.5,-515 1277.5,-515 1501.5,-515 1501.5,-515 1277.5,-515"/>
<polygon fill="#57bfd9" stroke="#57bfd9" points="1277.5,-475 1277.5,-475 1501.5,-475 1501.5,-475 1277.5,-475"/>
<polygon fill="none" stroke="#57bfd9" stroke-width="2" points="1277,-432 1277,-544 1500,-544 1500,-432 1277,-432"/>
</g>
<!-- 9&#45;&gt;1 -->
<g id="edge8" class="edge">
<title>9&#45;&gt;1</title>
<path fill="none" stroke="grey" stroke-width="2" d="M1316.35,-430.92C1300.88,-418.88 1283.93,-405.71 1266.57,-392.22"/>
<polygon fill="grey" stroke="grey" stroke-width="2" points="1268.62,-389.37 1258.58,-386 1264.33,-394.9 1268.62,-389.37"/>
</g>
<!-- 10&#45;&gt;9 -->
<g id="edge17" class="edge">
<title>10&#45;&gt;9</title>
<path fill="none" stroke="grey" stroke-width="2" d="M1376.57,-598.84C1378.12,-584.6 1379.76,-569.53 1381.31,-555.25"/>
<polygon fill="grey" stroke="grey" stroke-width="2" points="1384.82,-555.34 1382.42,-545.03 1377.86,-554.59 1384.82,-555.34"/>
</g>
<!-- 11 -->
<g id="node12" class="node">
<title>11</title>
<text text-anchor="start" x="1526.5" y="-524.6" font-family="sans" font-weight="bold" font-size="18.00">jonckheere_test_to_pdf</text>
<text text-anchor="start" x="1526.5" y="-500.8" font-family="sans" font-size="10.00"> </text>
<text text-anchor="start" x="1530.5" y="-500.8" font-family="sans" font-weight="bold" font-size="14.00">↪ input</text>
<text text-anchor="start" x="1588.5" y="-500.8" font-family="sans" font-size="10.00"> </text>
<text text-anchor="start" x="1526.5" y="-481" font-family="monospace" font-size="10.00">results/{dataset}/jonckheere_test.txt</text>
<text text-anchor="start" x="1679.5" y="-460.8" font-family="sans" font-size="10.00"> </text>
<text text-anchor="start" x="1683.5" y="-460.8" font-family="sans" font-weight="bold" font-size="14.00">output →</text>
<text text-anchor="start" x="1753.5" y="-460.8" font-family="sans" font-size="10.00"> </text>
<text text-anchor="start" x="1526.5" y="-441" font-family="monospace" font-size="10.00">results/{dataset}/jonckheere_test.pdf</text>
<polygon fill="#68d957" stroke="#68d957" points="1520.5,-515 1520.5,-515 1764.5,-515 1764.5,-515 1520.5,-515"/>
<polygon fill="#68d957" stroke="#68d957" points="1520.5,-475 1520.5,-475 1764.5,-475 1764.5,-475 1520.5,-475"/>
<polygon fill="none" stroke="#68d957" stroke-width="2" points="1520,-432 1520,-544 1763,-544 1763,-432 1520,-432"/>
</g>
<!-- 11&#45;&gt;1 -->
<g id="edge6" class="edge">
<title>11&#45;&gt;1</title>
<path fill="none" stroke="grey" stroke-width="2" d="M1529.49,-430.98C1522.75,-427.88 1516.05,-424.86 1509.5,-422 1436.87,-390.26 1355.48,-358.36 1284.89,-331.81"/>
<polygon fill="grey" stroke="grey" stroke-width="2" points="1286.04,-328.5 1275.45,-328.27 1283.58,-335.06 1286.04,-328.5"/>
</g>
<!-- 12&#45;&gt;11 -->
<g id="edge19" class="edge">
<title>12&#45;&gt;11</title>
<path fill="none" stroke="grey" stroke-width="2" d="M1627.06,-598.84C1628.93,-584.6 1630.92,-569.53 1632.79,-555.25"/>
<polygon fill="grey" stroke="grey" stroke-width="2" points="1636.3,-555.4 1634.14,-545.03 1629.36,-554.48 1636.3,-555.4"/>
</g>
<!-- 13&#45;&gt;1 -->
<g id="edge10" class="edge">
<title>13&#45;&gt;1</title>
<path fill="none" stroke="grey" stroke-width="2" d="M1880.71,-589.79C1861.62,-535.29 1827.88,-463.76 1773.5,-422 1716.72,-378.4 1686.25,-402.12 1616.5,-386 1506.46,-360.57 1383.14,-331.86 1285.22,-309.01"/>
<polygon fill="grey" stroke="grey" stroke-width="2" points="1285.75,-305.54 1275.22,-306.68 1284.16,-312.36 1285.75,-305.54"/>
</g>
<!-- 14&#45;&gt;0 -->
<g id="edge2" class="edge">
<title>14&#45;&gt;0</title>
<path fill="none" stroke="grey" stroke-width="2" d="M1624.86,-213.87C1552.65,-182.76 1460.41,-143.01 1386.55,-111.18"/>
<polygon fill="grey" stroke="grey" stroke-width="2" points="1387.75,-107.89 1377.18,-107.14 1384.98,-114.31 1387.75,-107.89"/>
</g>
</g>
</svg>
