<?xml version="1.0" encoding="UTF-8" standalone="no"?>
<!DOCTYPE svg PUBLIC "-//W3C//DTD SVG 1.1//EN"
 "http://www.w3.org/Graphics/SVG/1.1/DTD/svg11.dtd">
<!-- Generated by graphviz version 2.43.0 (0)
 -->
<!-- Title: snakemake_dag Pages: 1 -->
<svg width="1429pt" height="894pt"
 viewBox="0.00 0.00 1429.00 894.00" xmlns="http://www.w3.org/2000/svg" xmlns:xlink="http://www.w3.org/1999/xlink">
<g id="graph0" class="graph" transform="scale(1 1) rotate(0) translate(4 890)">
<title>snakemake_dag</title>
<polygon fill="white" stroke="transparent" points="-4,4 -4,-890 1425,-890 1425,4 -4,4"/>
<!-- 0 -->
<g id="node1" class="node">
<title>0</title>
<text text-anchor="start" x="555.5" y="-71.6" font-family="sans" font-weight="bold" font-size="18.00">all</text>
<text text-anchor="start" x="510.5" y="-47.8" font-family="sans" font-size="10.00"> </text>
<text text-anchor="start" x="514.5" y="-47.8" font-family="sans" font-weight="bold" font-size="14.00">↪ input</text>
<text text-anchor="start" x="572.5" y="-47.8" font-family="sans" font-size="10.00"> </text>
<text text-anchor="start" x="510.5" y="-28" font-family="monospace" font-size="10.00">results/summary.pdf</text>
<text text-anchor="start" x="618.5" y="-10" font-family="sans" font-size="10.00"> &#160;</text>
<polygon fill="#57d957" stroke="#57d957" points="504.5,-62 504.5,-62 632.5,-62 632.5,-62 504.5,-62"/>
<polygon fill="#57d957" stroke="#57d957" points="504.5,-22 504.5,-22 632.5,-22 632.5,-22 504.5,-22"/>
<polygon fill="none" stroke="#57d957" stroke-width="2" points="504,-1 504,-91 631,-91 631,-1 504,-1"/>
</g>
<!-- 1 -->
<g id="node2" class="node">
<title>1</title>
<text text-anchor="start" x="473.5" y="-347.6" font-family="sans" font-weight="bold" font-size="18.00">summarize_results</text>
<text text-anchor="start" x="471.5" y="-323.8" font-family="sans" font-size="10.00"> </text>
<text text-anchor="start" x="475.5" y="-323.8" font-family="sans" font-weight="bold" font-size="14.00">↪ input</text>
<text text-anchor="start" x="533.5" y="-323.8" font-family="sans" font-size="10.00"> </text>
<text text-anchor="start" x="471.5" y="-304" font-family="monospace" font-size="10.00">results/3D_plot_of_PCA.pdf</text>
<text text-anchor="start" x="471.5" y="-286" font-family="monospace" font-size="10.00">results/MX1_MX2_plot.pdf</text>
<text text-anchor="start" x="471.5" y="-268" font-family="monospace" font-size="10.00">results/MX1_plot.pdf</text>
<text text-anchor="start" x="471.5" y="-250" font-family="monospace" font-size="10.00">results/histogram.pdf</text>
<text text-anchor="start" x="471.5" y="-232" font-family="monospace" font-size="10.00">results/jonckheere_test.pdf</text>
<text text-anchor="start" x="471.5" y="-214" font-family="monospace" font-size="10.00">results/pairwise_correlation.pdf</text>
<text text-anchor="start" x="471.5" y="-196" font-family="monospace" font-size="10.00">results/spearman_correlation.pdf</text>
<text text-anchor="start" x="471.5" y="-178" font-family="monospace" font-size="10.00">results/wilcoxon_test.pdf</text>
<text text-anchor="start" x="586.5" y="-157.8" font-family="sans" font-size="10.00"> </text>
<text text-anchor="start" x="590.5" y="-157.8" font-family="sans" font-weight="bold" font-size="14.00">output →</text>
<text text-anchor="start" x="660.5" y="-157.8" font-family="sans" font-size="10.00"> </text>
<text text-anchor="start" x="471.5" y="-138" font-family="monospace" font-size="10.00">results/summary.pdf</text>
<polygon fill="#d9c657" stroke="#d9c657" points="465.5,-338 465.5,-338 671.5,-338 671.5,-338 465.5,-338"/>
<polygon fill="#d9c657" stroke="#d9c657" points="465.5,-172 465.5,-172 671.5,-172 671.5,-172 465.5,-172"/>
<polygon fill="none" stroke="#d9c657" stroke-width="2" points="465,-129 465,-367 670,-367 670,-129 465,-129"/>
</g>
<!-- 1&#45;&gt;0 -->
<g id="edge1" class="edge">
<title>1&#45;&gt;0</title>
<path fill="none" stroke="grey" stroke-width="2" d="M567.5,-127.77C567.5,-119.05 567.5,-110.52 567.5,-102.48"/>
<polygon fill="grey" stroke="grey" stroke-width="2" points="571,-102.22 567.5,-92.22 564,-102.22 571,-102.22"/>
</g>
<!-- 2 -->
<g id="node3" class="node">
<title>2</title>
<text text-anchor="start" x="21" y="-515.6" font-family="sans" font-weight="bold" font-size="18.00">plot_MX1</text>
<text text-anchor="start" x="7.5" y="-491.8" font-family="sans" font-size="10.00"> </text>
<text text-anchor="start" x="11.5" y="-491.8" font-family="sans" font-weight="bold" font-size="14.00">↪ input</text>
<text text-anchor="start" x="69.5" y="-491.8" font-family="sans" font-size="10.00"> </text>
<text text-anchor="start" x="7.5" y="-472" font-family="monospace" font-size="10.00">tmp/clindata.csv</text>
<text text-anchor="start" x="7.5" y="-454" font-family="monospace" font-size="10.00">tmp/norm_counts.csv</text>
<text text-anchor="start" x="50.5" y="-433.8" font-family="sans" font-size="10.00"> </text>
<text text-anchor="start" x="54.5" y="-433.8" font-family="sans" font-weight="bold" font-size="14.00">output →</text>
<text text-anchor="start" x="124.5" y="-433.8" font-family="sans" font-size="10.00"> </text>
<text text-anchor="start" x="7.5" y="-414" font-family="monospace" font-size="10.00">results/MX1_plot.pdf</text>
<polygon fill="#7cd957" stroke="#7cd957" points="1.5,-506 1.5,-506 135.5,-506 135.5,-506 1.5,-506"/>
<polygon fill="#7cd957" stroke="#7cd957" points="1.5,-448 1.5,-448 135.5,-448 135.5,-448 1.5,-448"/>
<polygon fill="none" stroke="#7cd957" stroke-width="2" points="1,-405 1,-535 134,-535 134,-405 1,-405"/>
</g>
<!-- 2&#45;&gt;1 -->
<g id="edge6" class="edge">
<title>2&#45;&gt;1</title>
<path fill="none" stroke="grey" stroke-width="2" d="M135.45,-409.61C138.45,-407.64 141.47,-405.76 144.5,-404 242.94,-346.83 366.17,-304.57 454.19,-278.74"/>
<polygon fill="grey" stroke="grey" stroke-width="2" points="455.31,-282.06 463.93,-275.9 453.35,-275.33 455.31,-282.06"/>
</g>
<!-- 3 -->
<g id="node4" class="node">
<title>3</title>
<text text-anchor="start" x="375.5" y="-865.6" font-family="sans" font-weight="bold" font-size="18.00">load_and_annotate_data</text>
<text text-anchor="start" x="375.5" y="-844" font-family="sans" font-size="10.00"> &#160;</text>
<text text-anchor="start" x="540.5" y="-823.8" font-family="sans" font-size="10.00"> </text>
<text text-anchor="start" x="544.5" y="-823.8" font-family="sans" font-weight="bold" font-size="14.00">output →</text>
<text text-anchor="start" x="614.5" y="-823.8" font-family="sans" font-size="10.00"> </text>
<text text-anchor="start" x="375.5" y="-804" font-family="monospace" font-size="10.00">tmp/clindata.csv</text>
<text text-anchor="start" x="375.5" y="-786" font-family="monospace" font-size="10.00">tmp/norm_counts.csv</text>
<text text-anchor="start" x="375.5" y="-768" font-family="monospace" font-size="10.00">tmp/raw_counts.txt</text>
<polygon fill="#d9a157" stroke="#d9a157" points="369.5,-856 369.5,-856 625.5,-856 625.5,-856 369.5,-856"/>
<polygon fill="#d9a157" stroke="#d9a157" points="369.5,-838 369.5,-838 625.5,-838 625.5,-838 369.5,-838"/>
<polygon fill="none" stroke="#d9a157" stroke-width="2" points="369,-759 369,-885 624,-885 624,-759 369,-759"/>
</g>
<!-- 3&#45;&gt;2 -->
<g id="edge10" class="edge">
<title>3&#45;&gt;2</title>
<path fill="none" stroke="grey" stroke-width="2" d="M367.97,-814.16C294.38,-803.73 205.28,-779.08 146.5,-722 99.22,-676.08 80.14,-602.2 72.49,-546.46"/>
<polygon fill="grey" stroke="grey" stroke-width="2" points="75.93,-545.75 71.19,-536.27 68.98,-546.64 75.93,-545.75"/>
</g>
<!-- 4 -->
<g id="node5" class="node">
<title>4</title>
<text text-anchor="start" x="160.5" y="-515.6" font-family="sans" font-weight="bold" font-size="18.00">plot_MX1_MX2</text>
<text text-anchor="start" x="160.5" y="-491.8" font-family="sans" font-size="10.00"> </text>
<text text-anchor="start" x="164.5" y="-491.8" font-family="sans" font-weight="bold" font-size="14.00">↪ input</text>
<text text-anchor="start" x="222.5" y="-491.8" font-family="sans" font-size="10.00"> </text>
<text text-anchor="start" x="160.5" y="-472" font-family="monospace" font-size="10.00">tmp/clindata.csv</text>
<text text-anchor="start" x="160.5" y="-454" font-family="monospace" font-size="10.00">tmp/norm_counts.csv</text>
<text text-anchor="start" x="230.5" y="-433.8" font-family="sans" font-size="10.00"> </text>
<text text-anchor="start" x="234.5" y="-433.8" font-family="sans" font-weight="bold" font-size="14.00">output →</text>
<text text-anchor="start" x="304.5" y="-433.8" font-family="sans" font-size="10.00"> </text>
<text text-anchor="start" x="160.5" y="-414" font-family="monospace" font-size="10.00">results/MX1_MX2_plot.pdf</text>
<polygon fill="#57d9a1" stroke="#57d9a1" points="154.5,-506 154.5,-506 315.5,-506 315.5,-506 154.5,-506"/>
<polygon fill="#57d9a1" stroke="#57d9a1" points="154.5,-448 154.5,-448 315.5,-448 315.5,-448 154.5,-448"/>
<polygon fill="none" stroke="#57d9a1" stroke-width="2" points="154.5,-405 154.5,-535 314.5,-535 314.5,-405 154.5,-405"/>
</g>
<!-- 3&#45;&gt;4 -->
<g id="edge11" class="edge">
<title>3&#45;&gt;4</title>
<path fill="none" stroke="grey" stroke-width="2" d="M367.96,-797.89C288.24,-780.65 196.56,-754.5 172.5,-722 132.84,-668.41 154.38,-636.16 172.5,-572 175.05,-562.96 178.67,-553.94 182.88,-545.21"/>
<polygon fill="grey" stroke="grey" stroke-width="2" points="186.04,-546.72 187.47,-536.23 179.8,-543.54 186.04,-546.72"/>
</g>
<!-- 5 -->
<g id="node6" class="node">
<title>5</title>
<text text-anchor="start" x="341.5" y="-515.6" font-family="sans" font-weight="bold" font-size="18.00">PCA_and_3D_plot</text>
<text text-anchor="start" x="341.5" y="-491.8" font-family="sans" font-size="10.00"> </text>
<text text-anchor="start" x="345.5" y="-491.8" font-family="sans" font-weight="bold" font-size="14.00">↪ input</text>
<text text-anchor="start" x="403.5" y="-491.8" font-family="sans" font-size="10.00"> </text>
<text text-anchor="start" x="341.5" y="-472" font-family="monospace" font-size="10.00">tmp/clindata.csv</text>
<text text-anchor="start" x="341.5" y="-454" font-family="monospace" font-size="10.00">tmp/norm_counts.csv</text>
<text text-anchor="start" x="436.5" y="-433.8" font-family="sans" font-size="10.00"> </text>
<text text-anchor="start" x="440.5" y="-433.8" font-family="sans" font-weight="bold" font-size="14.00">output →</text>
<text text-anchor="start" x="510.5" y="-433.8" font-family="sans" font-size="10.00"> </text>
<text text-anchor="start" x="341.5" y="-414" font-family="monospace" font-size="10.00">results/3D_plot_of_PCA.pdf</text>
<polygon fill="#57a1d9" stroke="#57a1d9" points="335.5,-506 335.5,-506 521.5,-506 521.5,-506 335.5,-506"/>
<polygon fill="#57a1d9" stroke="#57a1d9" points="335.5,-448 335.5,-448 521.5,-448 521.5,-448 335.5,-448"/>
<polygon fill="none" stroke="#57a1d9" stroke-width="2" points="335,-405 335,-535 520,-535 520,-405 335,-405"/>
</g>
<!-- 3&#45;&gt;5 -->
<g id="edge12" class="edge">
<title>3&#45;&gt;5</title>
<path fill="none" stroke="grey" stroke-width="2" d="M367.82,-810.72C308.23,-798.76 242.55,-773.74 205.5,-722 166.69,-667.8 165.77,-625.53 205.5,-572 238.43,-527.63 274.24,-558.95 324.5,-536 324.6,-535.96 324.69,-535.91 324.79,-535.87"/>
<polygon fill="grey" stroke="grey" stroke-width="2" points="326.27,-539.04 333.77,-531.56 323.24,-532.73 326.27,-539.04"/>
</g>
<!-- 6 -->
<g id="node7" class="node">
<title>6</title>
<text text-anchor="start" x="221.5" y="-701.6" font-family="sans" font-weight="bold" font-size="18.00">histogram_of_selected_data</text>
<text text-anchor="start" x="221.5" y="-677.8" font-family="sans" font-size="10.00"> </text>
<text text-anchor="start" x="225.5" y="-677.8" font-family="sans" font-weight="bold" font-size="14.00">↪ input</text>
<text text-anchor="start" x="283.5" y="-677.8" font-family="sans" font-size="10.00"> </text>
<text text-anchor="start" x="221.5" y="-658" font-family="monospace" font-size="10.00">tmp/clindata.csv</text>
<text text-anchor="start" x="221.5" y="-640" font-family="monospace" font-size="10.00">tmp/norm_counts.csv</text>
<text text-anchor="start" x="221.5" y="-622" font-family="monospace" font-size="10.00">tmp/raw_counts.txt</text>
<text text-anchor="start" x="421.5" y="-601.8" font-family="sans" font-size="10.00"> </text>
<text text-anchor="start" x="425.5" y="-601.8" font-family="sans" font-weight="bold" font-size="14.00">output →</text>
<text text-anchor="start" x="495.5" y="-601.8" font-family="sans" font-size="10.00"> </text>
<text text-anchor="start" x="221.5" y="-582" font-family="monospace" font-size="10.00">results/histogram.pdf</text>
<polygon fill="#577cd9" stroke="#577cd9" points="215.5,-692 215.5,-692 506.5,-692 506.5,-692 215.5,-692"/>
<polygon fill="#577cd9" stroke="#577cd9" points="215.5,-616 215.5,-616 506.5,-616 506.5,-616 215.5,-616"/>
<polygon fill="none" stroke="#577cd9" stroke-width="2" points="215.5,-573 215.5,-721 505.5,-721 505.5,-573 215.5,-573"/>
</g>
<!-- 3&#45;&gt;6 -->
<g id="edge13" class="edge">
<title>3&#45;&gt;6</title>
<path fill="none" stroke="grey" stroke-width="2" d="M446.63,-757.56C439.65,-748.69 432.4,-739.46 425.2,-730.3"/>
<polygon fill="grey" stroke="grey" stroke-width="2" points="427.82,-727.97 418.89,-722.28 422.32,-732.3 427.82,-727.97"/>
</g>
<!-- 7 -->
<g id="node8" class="node">
<title>7</title>
<text text-anchor="start" x="531.5" y="-692.6" font-family="sans" font-weight="bold" font-size="18.00">pairwise_correlation</text>
<text text-anchor="start" x="531.5" y="-668.8" font-family="sans" font-size="10.00"> </text>
<text text-anchor="start" x="535.5" y="-668.8" font-family="sans" font-weight="bold" font-size="14.00">↪ input</text>
<text text-anchor="start" x="593.5" y="-668.8" font-family="sans" font-size="10.00"> </text>
<text text-anchor="start" x="531.5" y="-649" font-family="monospace" font-size="10.00">tmp/clindata.csv</text>
<text text-anchor="start" x="531.5" y="-631" font-family="monospace" font-size="10.00">tmp/norm_counts.csv</text>
<text text-anchor="start" x="657.5" y="-610.8" font-family="sans" font-size="10.00"> </text>
<text text-anchor="start" x="661.5" y="-610.8" font-family="sans" font-weight="bold" font-size="14.00">output →</text>
<text text-anchor="start" x="731.5" y="-610.8" font-family="sans" font-size="10.00"> </text>
<text text-anchor="start" x="531.5" y="-591" font-family="monospace" font-size="10.00">results/pairwise_correlation.pdf</text>
<polygon fill="#d95757" stroke="#d95757" points="525.5,-683 525.5,-683 742.5,-683 742.5,-683 525.5,-683"/>
<polygon fill="#d95757" stroke="#d95757" points="525.5,-625 525.5,-625 742.5,-625 742.5,-625 525.5,-625"/>
<polygon fill="none" stroke="#d95757" stroke-width="2" points="525.5,-582 525.5,-712 741.5,-712 741.5,-582 525.5,-582"/>
</g>
<!-- 3&#45;&gt;7 -->
<g id="edge14" class="edge">
<title>3&#45;&gt;7</title>
<path fill="none" stroke="grey" stroke-width="2" d="M546.74,-757.56C556.13,-745.7 566.02,-733.21 575.63,-721.08"/>
<polygon fill="grey" stroke="grey" stroke-width="2" points="578.43,-723.18 581.89,-713.17 572.94,-718.84 578.43,-723.18"/>
</g>
<!-- 9 -->
<g id="node10" class="node">
<title>9</title>
<text text-anchor="start" x="768.5" y="-692.6" font-family="sans" font-weight="bold" font-size="18.00">spearman_correlation</text>
<text text-anchor="start" x="768.5" y="-668.8" font-family="sans" font-size="10.00"> </text>
<text text-anchor="start" x="772.5" y="-668.8" font-family="sans" font-weight="bold" font-size="14.00">↪ input</text>
<text text-anchor="start" x="830.5" y="-668.8" font-family="sans" font-size="10.00"> </text>
<text text-anchor="start" x="768.5" y="-649" font-family="monospace" font-size="10.00">tmp/clindata.csv</text>
<text text-anchor="start" x="768.5" y="-631" font-family="monospace" font-size="10.00">tmp/norm_counts.csv</text>
<text text-anchor="start" x="909.5" y="-610.8" font-family="sans" font-size="10.00"> </text>
<text text-anchor="start" x="913.5" y="-610.8" font-family="sans" font-weight="bold" font-size="14.00">output →</text>
<text text-anchor="start" x="983.5" y="-610.8" font-family="sans" font-size="10.00"> </text>
<text text-anchor="start" x="768.5" y="-591" font-family="monospace" font-size="10.00">results/spearman_correlation.txt</text>
<polygon fill="#57c6d9" stroke="#57c6d9" points="762.5,-683 762.5,-683 994.5,-683 994.5,-683 762.5,-683"/>
<polygon fill="#57c6d9" stroke="#57c6d9" points="762.5,-625 762.5,-625 994.5,-625 994.5,-625 762.5,-625"/>
<polygon fill="none" stroke="#57c6d9" stroke-width="2" points="762,-582 762,-712 993,-712 993,-582 762,-582"/>
</g>
<!-- 3&#45;&gt;9 -->
<g id="edge16" class="edge">
<title>3&#45;&gt;9</title>
<path fill="none" stroke="grey" stroke-width="2" d="M625,-775.73C666.02,-760.06 711.21,-741.5 751.5,-722 754.32,-720.64 757.16,-719.23 760.02,-717.79"/>
<polygon fill="grey" stroke="grey" stroke-width="2" points="761.87,-720.77 769.16,-713.09 758.67,-714.55 761.87,-720.77"/>
</g>
<!-- 11 -->
<g id="node12" class="node">
<title>11</title>
<text text-anchor="start" x="1027" y="-692.6" font-family="sans" font-weight="bold" font-size="18.00">wilcoxon_test</text>
<text text-anchor="start" x="1019.5" y="-668.8" font-family="sans" font-size="10.00"> </text>
<text text-anchor="start" x="1023.5" y="-668.8" font-family="sans" font-weight="bold" font-size="14.00">↪ input</text>
<text text-anchor="start" x="1081.5" y="-668.8" font-family="sans" font-size="10.00"> </text>
<text text-anchor="start" x="1019.5" y="-649" font-family="monospace" font-size="10.00">tmp/clindata.csv</text>
<text text-anchor="start" x="1019.5" y="-631" font-family="monospace" font-size="10.00">tmp/norm_counts.csv</text>
<text text-anchor="start" x="1092.5" y="-610.8" font-family="sans" font-size="10.00"> </text>
<text text-anchor="start" x="1096.5" y="-610.8" font-family="sans" font-weight="bold" font-size="14.00">output →</text>
<text text-anchor="start" x="1166.5" y="-610.8" font-family="sans" font-size="10.00"> </text>
<text text-anchor="start" x="1019.5" y="-591" font-family="monospace" font-size="10.00">results/wilcoxon_test.txt</text>
<polygon fill="#c6d957" stroke="#c6d957" points="1013.5,-683 1013.5,-683 1177.5,-683 1177.5,-683 1013.5,-683"/>
<polygon fill="#c6d957" stroke="#c6d957" points="1013.5,-625 1013.5,-625 1177.5,-625 1177.5,-625 1013.5,-625"/>
<polygon fill="none" stroke="#c6d957" stroke-width="2" points="1013,-582 1013,-712 1176,-712 1176,-582 1013,-582"/>
</g>
<!-- 3&#45;&gt;11 -->
<g id="edge18" class="edge">
<title>3&#45;&gt;11</title>
<path fill="none" stroke="grey" stroke-width="2" d="M625.21,-812.97C730.75,-802.43 881.87,-778.1 1002.5,-722 1005.11,-720.78 1007.72,-719.48 1010.31,-718.1"/>
<polygon fill="grey" stroke="grey" stroke-width="2" points="1012.07,-721.12 1019.03,-713.13 1008.61,-715.04 1012.07,-721.12"/>
</g>
<!-- 13 -->
<g id="node14" class="node">
<title>13</title>
<text text-anchor="start" x="1211" y="-692.6" font-family="sans" font-weight="bold" font-size="18.00">jonckheere_test</text>
<text text-anchor="start" x="1209.5" y="-668.8" font-family="sans" font-size="10.00"> </text>
<text text-anchor="start" x="1213.5" y="-668.8" font-family="sans" font-weight="bold" font-size="14.00">↪ input</text>
<text text-anchor="start" x="1271.5" y="-668.8" font-family="sans" font-size="10.00"> </text>
<text text-anchor="start" x="1209.5" y="-649" font-family="monospace" font-size="10.00">tmp/clindata.csv</text>
<text text-anchor="start" x="1209.5" y="-631" font-family="monospace" font-size="10.00">tmp/norm_counts.csv</text>
<text text-anchor="start" x="1294.5" y="-610.8" font-family="sans" font-size="10.00"> </text>
<text text-anchor="start" x="1298.5" y="-610.8" font-family="sans" font-weight="bold" font-size="14.00">output →</text>
<text text-anchor="start" x="1368.5" y="-610.8" font-family="sans" font-size="10.00"> </text>
<text text-anchor="start" x="1209.5" y="-591" font-family="monospace" font-size="10.00">results/jonckheere_test.txt</text>
<polygon fill="#57d97c" stroke="#57d97c" points="1203.5,-683 1203.5,-683 1379.5,-683 1379.5,-683 1203.5,-683"/>
<polygon fill="#57d97c" stroke="#57d97c" points="1203.5,-625 1203.5,-625 1379.5,-625 1379.5,-625 1203.5,-625"/>
<polygon fill="none" stroke="#57d97c" stroke-width="2" points="1203,-582 1203,-712 1378,-712 1378,-582 1203,-582"/>
</g>
<!-- 3&#45;&gt;13 -->
<g id="edge20" class="edge">
<title>3&#45;&gt;13</title>
<path fill="none" stroke="grey" stroke-width="2" d="M625.22,-820.29C767.19,-815.52 1000.06,-795.7 1185.5,-722 1188.81,-720.68 1192.12,-719.24 1195.41,-717.7"/>
<polygon fill="grey" stroke="grey" stroke-width="2" points="1197.25,-720.69 1204.63,-713.09 1194.12,-714.43 1197.25,-720.69"/>
</g>
<!-- 4&#45;&gt;1 -->
<g id="edge5" class="edge">
<title>4&#45;&gt;1</title>
<path fill="none" stroke="grey" stroke-width="2" d="M315.79,-409.97C318.72,-407.95 321.63,-405.95 324.5,-404 366.71,-375.33 413.85,-344.91 455.3,-318.67"/>
<polygon fill="grey" stroke="grey" stroke-width="2" points="457.19,-321.62 463.78,-313.31 453.45,-315.7 457.19,-321.62"/>
</g>
<!-- 5&#45;&gt;1 -->
<g id="edge4" class="edge">
<title>5&#45;&gt;1</title>
<path fill="none" stroke="grey" stroke-width="2" d="M468.94,-403.89C474.43,-395.25 480.21,-386.17 486.1,-376.92"/>
<polygon fill="grey" stroke="grey" stroke-width="2" points="489.11,-378.7 491.53,-368.38 483.21,-374.94 489.11,-378.7"/>
</g>
<!-- 6&#45;&gt;1 -->
<g id="edge3" class="edge">
<title>6&#45;&gt;1</title>
<path fill="none" stroke="grey" stroke-width="2" d="M498.94,-571.8C510.66,-561.1 521.19,-549.18 529.5,-536 558.78,-489.57 570,-430.53 573.23,-378.08"/>
<polygon fill="grey" stroke="grey" stroke-width="2" points="576.73,-378.19 573.76,-368.02 569.74,-377.82 576.73,-378.19"/>
</g>
<!-- 7&#45;&gt;1 -->
<g id="edge9" class="edge">
<title>7&#45;&gt;1</title>
<path fill="none" stroke="grey" stroke-width="2" d="M615.57,-580.85C611.91,-566.17 608.32,-550.61 605.5,-536 595.62,-484.75 587.5,-427.85 581.34,-378.32"/>
<polygon fill="grey" stroke="grey" stroke-width="2" points="584.79,-377.69 580.1,-368.2 577.84,-378.55 584.79,-377.69"/>
</g>
<!-- 8 -->
<g id="node9" class="node">
<title>8</title>
<text text-anchor="start" x="621.5" y="-506.6" font-family="sans" font-weight="bold" font-size="18.00">spearman_correlation_to_pdf</text>
<text text-anchor="start" x="621.5" y="-482.8" font-family="sans" font-size="10.00"> </text>
<text text-anchor="start" x="625.5" y="-482.8" font-family="sans" font-weight="bold" font-size="14.00">↪ input</text>
<text text-anchor="start" x="683.5" y="-482.8" font-family="sans" font-size="10.00"> </text>
<text text-anchor="start" x="621.5" y="-463" font-family="monospace" font-size="10.00">results/spearman_correlation.txt</text>
<text text-anchor="start" x="833.5" y="-442.8" font-family="sans" font-size="10.00"> </text>
<text text-anchor="start" x="837.5" y="-442.8" font-family="sans" font-weight="bold" font-size="14.00">output →</text>
<text text-anchor="start" x="907.5" y="-442.8" font-family="sans" font-size="10.00"> </text>
<text text-anchor="start" x="621.5" y="-423" font-family="monospace" font-size="10.00">results/spearman_correlation.pdf</text>
<polygon fill="#d97c57" stroke="#d97c57" points="615.5,-497 615.5,-497 918.5,-497 918.5,-497 615.5,-497"/>
<polygon fill="#d97c57" stroke="#d97c57" points="615.5,-457 615.5,-457 918.5,-457 918.5,-457 615.5,-457"/>
<polygon fill="none" stroke="#d97c57" stroke-width="2" points="615.5,-414 615.5,-526 917.5,-526 917.5,-414 615.5,-414"/>
</g>
<!-- 8&#45;&gt;1 -->
<g id="edge2" class="edge">
<title>8&#45;&gt;1</title>
<path fill="none" stroke="grey" stroke-width="2" d="M715.77,-412.92C704.1,-400.01 691.24,-385.8 678.12,-371.3"/>
<polygon fill="grey" stroke="grey" stroke-width="2" points="680.55,-368.76 671.24,-363.69 675.36,-373.45 680.55,-368.76"/>
</g>
<!-- 9&#45;&gt;8 -->
<g id="edge15" class="edge">
<title>9&#45;&gt;8</title>
<path fill="none" stroke="grey" stroke-width="2" d="M836.17,-580.84C826.79,-566.05 816.83,-550.36 807.47,-535.59"/>
<polygon fill="grey" stroke="grey" stroke-width="2" points="810.35,-533.6 802.04,-527.03 804.44,-537.34 810.35,-533.6"/>
</g>
<!-- 10 -->
<g id="node11" class="node">
<title>10</title>
<text text-anchor="start" x="944.5" y="-506.6" font-family="sans" font-weight="bold" font-size="18.00">wilcoxon_test_to_pdf</text>
<text text-anchor="start" x="944.5" y="-482.8" font-family="sans" font-size="10.00"> </text>
<text text-anchor="start" x="948.5" y="-482.8" font-family="sans" font-weight="bold" font-size="14.00">↪ input</text>
<text text-anchor="start" x="1006.5" y="-482.8" font-family="sans" font-size="10.00"> </text>
<text text-anchor="start" x="944.5" y="-463" font-family="monospace" font-size="10.00">results/wilcoxon_test.txt</text>
<text text-anchor="start" x="1073.5" y="-442.8" font-family="sans" font-size="10.00"> </text>
<text text-anchor="start" x="1077.5" y="-442.8" font-family="sans" font-weight="bold" font-size="14.00">output →</text>
<text text-anchor="start" x="1147.5" y="-442.8" font-family="sans" font-size="10.00"> </text>
<text text-anchor="start" x="944.5" y="-423" font-family="monospace" font-size="10.00">results/wilcoxon_test.pdf</text>
<polygon fill="#a1d957" stroke="#a1d957" points="938.5,-497 938.5,-497 1158.5,-497 1158.5,-497 938.5,-497"/>
<polygon fill="#a1d957" stroke="#a1d957" points="938.5,-457 938.5,-457 1158.5,-457 1158.5,-457 938.5,-457"/>
<polygon fill="none" stroke="#a1d957" stroke-width="2" points="938,-414 938,-526 1157,-526 1157,-414 938,-414"/>
</g>
<!-- 10&#45;&gt;1 -->
<g id="edge7" class="edge">
<title>10&#45;&gt;1</title>
<path fill="none" stroke="grey" stroke-width="2" d="M945.37,-412.88C939.35,-409.83 933.36,-406.84 927.5,-404 846.05,-364.5 752.04,-324.2 680.52,-294.6"/>
<polygon fill="grey" stroke="grey" stroke-width="2" points="681.6,-291.26 671.02,-290.67 678.93,-297.73 681.6,-291.26"/>
</g>
<!-- 11&#45;&gt;10 -->
<g id="edge17" class="edge">
<title>11&#45;&gt;10</title>
<path fill="none" stroke="grey" stroke-width="2" d="M1077,-580.84C1073.14,-566.47 1069.05,-551.23 1065.18,-536.84"/>
<polygon fill="grey" stroke="grey" stroke-width="2" points="1068.52,-535.78 1062.55,-527.03 1061.76,-537.59 1068.52,-535.78"/>
</g>
<!-- 12 -->
<g id="node13" class="node">
<title>12</title>
<text text-anchor="start" x="1183.5" y="-506.6" font-family="sans" font-weight="bold" font-size="18.00">jonckheere_test_to_pdf</text>
<text text-anchor="start" x="1183.5" y="-482.8" font-family="sans" font-size="10.00"> </text>
<text text-anchor="start" x="1187.5" y="-482.8" font-family="sans" font-weight="bold" font-size="14.00">↪ input</text>
<text text-anchor="start" x="1245.5" y="-482.8" font-family="sans" font-size="10.00"> </text>
<text text-anchor="start" x="1183.5" y="-463" font-family="monospace" font-size="10.00">results/jonckheere_test.txt</text>
<text text-anchor="start" x="1336.5" y="-442.8" font-family="sans" font-size="10.00"> </text>
<text text-anchor="start" x="1340.5" y="-442.8" font-family="sans" font-weight="bold" font-size="14.00">output →</text>
<text text-anchor="start" x="1410.5" y="-442.8" font-family="sans" font-size="10.00"> </text>
<text text-anchor="start" x="1183.5" y="-423" font-family="monospace" font-size="10.00">results/jonckheere_test.pdf</text>
<polygon fill="#57d9c6" stroke="#57d9c6" points="1177.5,-497 1177.5,-497 1421.5,-497 1421.5,-497 1177.5,-497"/>
<polygon fill="#57d9c6" stroke="#57d9c6" points="1177.5,-457 1177.5,-457 1421.5,-457 1421.5,-457 1177.5,-457"/>
<polygon fill="none" stroke="#57d9c6" stroke-width="2" points="1177,-414 1177,-526 1420,-526 1420,-414 1177,-414"/>
</g>
<!-- 12&#45;&gt;1 -->
<g id="edge8" class="edge">
<title>12&#45;&gt;1</title>
<path fill="none" stroke="grey" stroke-width="2" d="M1188.68,-412.86C1181.24,-409.7 1173.8,-406.71 1166.5,-404 1001.94,-342.92 803.41,-296.67 681.32,-271.19"/>
<polygon fill="grey" stroke="grey" stroke-width="2" points="681.71,-267.7 671.2,-269.09 680.28,-274.55 681.71,-267.7"/>
</g>
<!-- 13&#45;&gt;12 -->
<g id="edge19" class="edge">
<title>13&#45;&gt;12</title>
<path fill="none" stroke="grey" stroke-width="2" d="M1293.48,-580.84C1294.13,-566.6 1294.82,-551.53 1295.47,-537.25"/>
<polygon fill="grey" stroke="grey" stroke-width="2" points="1298.98,-537.17 1295.94,-527.03 1291.99,-536.86 1298.98,-537.17"/>
</g>
</g>
</svg>
