<?xml version="1.0" encoding="UTF-8" standalone="no"?>
<!DOCTYPE svg PUBLIC "-//W3C//DTD SVG 1.1//EN"
 "http://www.w3.org/Graphics/SVG/1.1/DTD/svg11.dtd">
<!-- Generated by graphviz version 2.43.0 (0)
 -->
<!-- Title: snakemake_dag Pages: 1 -->
<svg width="1921pt" height="912pt"
 viewBox="0.00 0.00 1920.58 912.00" xmlns="http://www.w3.org/2000/svg" xmlns:xlink="http://www.w3.org/1999/xlink">
<g id="graph0" class="graph" transform="scale(1 1) rotate(0) translate(4 908)">
<title>snakemake_dag</title>
<polygon fill="white" stroke="transparent" points="-4,4 -4,-908 1916.58,-908 1916.58,4 -4,4"/>
<!-- 0 -->
<g id="node1" class="node">
<title>0</title>
<text text-anchor="start" x="1048.5" y="-89.6" font-family="sans" font-weight="bold" font-size="18.00">all</text>
<text text-anchor="start" x="949.5" y="-65.8" font-family="sans" font-size="10.00"> </text>
<text text-anchor="start" x="953.5" y="-65.8" font-family="sans" font-weight="bold" font-size="14.00">↪ input</text>
<text text-anchor="start" x="1011.5" y="-65.8" font-family="sans" font-size="10.00"> </text>
<text text-anchor="start" x="949.5" y="-46" font-family="monospace" font-size="10.00">results/GSE152075/3D_plot_of_PCA.html</text>
<text text-anchor="start" x="949.5" y="-28" font-family="monospace" font-size="10.00">results/GSE152075/summary.pdf</text>
<text text-anchor="start" x="1165.5" y="-10" font-family="sans" font-size="10.00"> &#160;</text>
<polygon fill="#8bd957" stroke="#8bd957" points="943.5,-80 943.5,-80 1179.5,-80 1179.5,-80 943.5,-80"/>
<polygon fill="#8bd957" stroke="#8bd957" points="943.5,-22 943.5,-22 1179.5,-22 1179.5,-22 943.5,-22"/>
<polygon fill="none" stroke="#8bd957" stroke-width="2" points="943,-1 943,-109 1178,-109 1178,-1 943,-1"/>
</g>
<!-- 1 -->
<g id="node2" class="node">
<title>1</title>
<text text-anchor="start" x="831.5" y="-365.6" font-family="sans" font-weight="bold" font-size="18.00">summarize_results</text>
<text text-anchor="start" x="799.5" y="-341.8" font-family="sans" font-size="10.00"> </text>
<text text-anchor="start" x="803.5" y="-341.8" font-family="sans" font-weight="bold" font-size="14.00">↪ input</text>
<text text-anchor="start" x="861.5" y="-341.8" font-family="sans" font-size="10.00"> </text>
<text text-anchor="start" x="799.5" y="-322" font-family="monospace" font-size="10.00">results/{dataset}/MX1_MX2_plot.pdf</text>
<text text-anchor="start" x="799.5" y="-304" font-family="monospace" font-size="10.00">results/{dataset}/MX1_plot.pdf</text>
<text text-anchor="start" x="799.5" y="-286" font-family="monospace" font-size="10.00">results/{dataset}/PCA_biplot.pdf</text>
<text text-anchor="start" x="799.5" y="-268" font-family="monospace" font-size="10.00">results/{dataset}/histogram.pdf</text>
<text text-anchor="start" x="799.5" y="-250" font-family="monospace" font-size="10.00">results/{dataset}/jonckheere_test.pdf</text>
<text text-anchor="start" x="799.5" y="-232" font-family="monospace" font-size="10.00">results/{dataset}/pairwise_correlation.pdf</text>
<text text-anchor="start" x="799.5" y="-214" font-family="monospace" font-size="10.00">results/{dataset}/spearman_correlation.pdf</text>
<text text-anchor="start" x="799.5" y="-196" font-family="monospace" font-size="10.00">results/{dataset}/wilcoxon_test.pdf</text>
<text text-anchor="start" x="974.5" y="-175.8" font-family="sans" font-size="10.00"> </text>
<text text-anchor="start" x="978.5" y="-175.8" font-family="sans" font-weight="bold" font-size="14.00">output →</text>
<text text-anchor="start" x="1048.5" y="-175.8" font-family="sans" font-size="10.00"> </text>
<text text-anchor="start" x="799.5" y="-156" font-family="monospace" font-size="10.00">results/{dataset}/summary.pdf</text>
<polygon fill="#57d968" stroke="#57d968" points="793.5,-356 793.5,-356 1059.5,-356 1059.5,-356 793.5,-356"/>
<polygon fill="#57d968" stroke="#57d968" points="793.5,-190 793.5,-190 1059.5,-190 1059.5,-190 793.5,-190"/>
<polygon fill="none" stroke="#57d968" stroke-width="2" points="793,-147 793,-385 1058,-385 1058,-147 793,-147"/>
</g>
<!-- 1&#45;&gt;0 -->
<g id="edge1" class="edge">
<title>1&#45;&gt;0</title>
<path fill="none" stroke="grey" stroke-width="2" d="M1002.46,-145.85C1008.5,-136.5 1014.44,-127.31 1020.08,-118.58"/>
<polygon fill="grey" stroke="grey" stroke-width="2" points="1023.12,-120.33 1025.6,-110.03 1017.24,-116.53 1023.12,-120.33"/>
</g>
<!-- 2 -->
<g id="node3" class="node">
<title>2</title>
<text text-anchor="start" x="51" y="-533.6" font-family="sans" font-weight="bold" font-size="18.00">plot_MX1</text>
<text text-anchor="start" x="7.5" y="-509.8" font-family="sans" font-size="10.00"> </text>
<text text-anchor="start" x="11.5" y="-509.8" font-family="sans" font-weight="bold" font-size="14.00">↪ input</text>
<text text-anchor="start" x="69.5" y="-509.8" font-family="sans" font-size="10.00"> </text>
<text text-anchor="start" x="7.5" y="-490" font-family="monospace" font-size="10.00">tmp/{dataset}/clindata.csv</text>
<text text-anchor="start" x="7.5" y="-472" font-family="monospace" font-size="10.00">tmp/{dataset}/norm_counts.csv</text>
<text text-anchor="start" x="110.5" y="-451.8" font-family="sans" font-size="10.00"> </text>
<text text-anchor="start" x="114.5" y="-451.8" font-family="sans" font-weight="bold" font-size="14.00">output →</text>
<text text-anchor="start" x="184.5" y="-451.8" font-family="sans" font-size="10.00"> </text>
<text text-anchor="start" x="7.5" y="-432" font-family="monospace" font-size="10.00">results/{dataset}/MX1_plot.pdf</text>
<polygon fill="#57d9ad" stroke="#57d9ad" points="1.5,-524 1.5,-524 195.5,-524 195.5,-524 1.5,-524"/>
<polygon fill="#57d9ad" stroke="#57d9ad" points="1.5,-466 1.5,-466 195.5,-466 195.5,-466 1.5,-466"/>
<polygon fill="none" stroke="#57d9ad" stroke-width="2" points="1,-423 1,-553 194,-553 194,-423 1,-423"/>
</g>
<!-- 2&#45;&gt;1 -->
<g id="edge8" class="edge">
<title>2&#45;&gt;1</title>
<path fill="none" stroke="grey" stroke-width="2" d="M195.06,-425.57C197.88,-424.32 200.69,-423.12 203.5,-422 395.76,-345.03 632.87,-303.48 781.67,-283.3"/>
<polygon fill="grey" stroke="grey" stroke-width="2" points="782.34,-286.74 791.78,-281.94 781.41,-279.8 782.34,-286.74"/>
</g>
<!-- 3 -->
<g id="node4" class="node">
<title>3</title>
<text text-anchor="start" x="804.5" y="-883.6" font-family="sans" font-weight="bold" font-size="18.00">load_and_annotate_data</text>
<text text-anchor="start" x="804.5" y="-862" font-family="sans" font-size="10.00"> &#160;</text>
<text text-anchor="start" x="969.5" y="-841.8" font-family="sans" font-size="10.00"> </text>
<text text-anchor="start" x="973.5" y="-841.8" font-family="sans" font-weight="bold" font-size="14.00">output →</text>
<text text-anchor="start" x="1043.5" y="-841.8" font-family="sans" font-size="10.00"> </text>
<text text-anchor="start" x="804.5" y="-822" font-family="monospace" font-size="10.00">tmp/{dataset}/clindata.csv</text>
<text text-anchor="start" x="804.5" y="-804" font-family="monospace" font-size="10.00">tmp/{dataset}/norm_counts.csv</text>
<text text-anchor="start" x="804.5" y="-786" font-family="monospace" font-size="10.00">tmp/{dataset}/raw_counts.txt</text>
<polygon fill="#57bfd9" stroke="#57bfd9" points="798.5,-874 798.5,-874 1054.5,-874 1054.5,-874 798.5,-874"/>
<polygon fill="#57bfd9" stroke="#57bfd9" points="798.5,-856 798.5,-856 1054.5,-856 1054.5,-856 798.5,-856"/>
<polygon fill="none" stroke="#57bfd9" stroke-width="2" points="798,-777 798,-903 1053,-903 1053,-777 798,-777"/>
</g>
<!-- 3&#45;&gt;2 -->
<g id="edge11" class="edge">
<title>3&#45;&gt;2</title>
<path fill="none" stroke="grey" stroke-width="2" d="M796.9,-835C682.69,-827.05 513.85,-804.24 381.5,-740 293.4,-697.24 211.76,-619.37 158.84,-561.66"/>
<polygon fill="grey" stroke="grey" stroke-width="2" points="161.2,-559.06 151.88,-554.02 156.02,-563.77 161.2,-559.06"/>
</g>
<!-- 4 -->
<g id="node5" class="node">
<title>4</title>
<text text-anchor="start" x="249" y="-533.6" font-family="sans" font-weight="bold" font-size="18.00">plot_MX1_MX2</text>
<text text-anchor="start" x="220.5" y="-509.8" font-family="sans" font-size="10.00"> </text>
<text text-anchor="start" x="224.5" y="-509.8" font-family="sans" font-weight="bold" font-size="14.00">↪ input</text>
<text text-anchor="start" x="282.5" y="-509.8" font-family="sans" font-size="10.00"> </text>
<text text-anchor="start" x="220.5" y="-490" font-family="monospace" font-size="10.00">tmp/{dataset}/clindata.csv</text>
<text text-anchor="start" x="220.5" y="-472" font-family="monospace" font-size="10.00">tmp/{dataset}/norm_counts.csv</text>
<text text-anchor="start" x="347.5" y="-451.8" font-family="sans" font-size="10.00"> </text>
<text text-anchor="start" x="351.5" y="-451.8" font-family="sans" font-weight="bold" font-size="14.00">output →</text>
<text text-anchor="start" x="421.5" y="-451.8" font-family="sans" font-size="10.00"> </text>
<text text-anchor="start" x="220.5" y="-432" font-family="monospace" font-size="10.00">results/{dataset}/MX1_MX2_plot.pdf</text>
<polygon fill="#579cd9" stroke="#579cd9" points="214.5,-524 214.5,-524 432.5,-524 432.5,-524 214.5,-524"/>
<polygon fill="#579cd9" stroke="#579cd9" points="214.5,-466 214.5,-466 432.5,-466 432.5,-466 214.5,-466"/>
<polygon fill="none" stroke="#579cd9" stroke-width="2" points="214,-423 214,-553 431,-553 431,-423 214,-423"/>
</g>
<!-- 3&#45;&gt;4 -->
<g id="edge12" class="edge">
<title>3&#45;&gt;4</title>
<path fill="none" stroke="grey" stroke-width="2" d="M796.58,-827.58C714.93,-815.53 609.95,-790.78 529.5,-740 459.31,-695.69 401.49,-619.54 364.97,-562.71"/>
<polygon fill="grey" stroke="grey" stroke-width="2" points="367.83,-560.68 359.52,-554.11 361.92,-564.43 367.83,-560.68"/>
</g>
<!-- 5 -->
<g id="node6" class="node">
<title>5</title>
<text text-anchor="start" x="482" y="-533.6" font-family="sans" font-weight="bold" font-size="18.00">pairwise_correlation</text>
<text text-anchor="start" x="457.5" y="-509.8" font-family="sans" font-size="10.00"> </text>
<text text-anchor="start" x="461.5" y="-509.8" font-family="sans" font-weight="bold" font-size="14.00">↪ input</text>
<text text-anchor="start" x="519.5" y="-509.8" font-family="sans" font-size="10.00"> </text>
<text text-anchor="start" x="457.5" y="-490" font-family="monospace" font-size="10.00">tmp/{dataset}/clindata.csv</text>
<text text-anchor="start" x="457.5" y="-472" font-family="monospace" font-size="10.00">tmp/{dataset}/norm_counts.csv</text>
<text text-anchor="start" x="632.5" y="-451.8" font-family="sans" font-size="10.00"> </text>
<text text-anchor="start" x="636.5" y="-451.8" font-family="sans" font-weight="bold" font-size="14.00">output →</text>
<text text-anchor="start" x="706.5" y="-451.8" font-family="sans" font-size="10.00"> </text>
<text text-anchor="start" x="457.5" y="-432" font-family="monospace" font-size="10.00">results/{dataset}/pairwise_correlation.pdf</text>
<polygon fill="#d95757" stroke="#d95757" points="451.5,-524 451.5,-524 717.5,-524 717.5,-524 451.5,-524"/>
<polygon fill="#d95757" stroke="#d95757" points="451.5,-466 451.5,-466 717.5,-466 717.5,-466 451.5,-466"/>
<polygon fill="none" stroke="#d95757" stroke-width="2" points="451,-423 451,-553 716,-553 716,-423 451,-423"/>
</g>
<!-- 3&#45;&gt;5 -->
<g id="edge13" class="edge">
<title>3&#45;&gt;5</title>
<path fill="none" stroke="grey" stroke-width="2" d="M796.81,-821.19C702.84,-805.23 586.93,-778.4 557.5,-740 519.47,-690.39 531.91,-618.11 550.37,-563.84"/>
<polygon fill="grey" stroke="grey" stroke-width="2" points="553.72,-564.86 553.76,-554.27 547.12,-562.53 553.72,-564.86"/>
</g>
<!-- 6 -->
<g id="node7" class="node">
<title>6</title>
<text text-anchor="start" x="616.5" y="-710.6" font-family="sans" font-weight="bold" font-size="18.00">PCA_biplot</text>
<text text-anchor="start" x="574.5" y="-686.8" font-family="sans" font-size="10.00"> </text>
<text text-anchor="start" x="578.5" y="-686.8" font-family="sans" font-weight="bold" font-size="14.00">↪ input</text>
<text text-anchor="start" x="636.5" y="-686.8" font-family="sans" font-size="10.00"> </text>
<text text-anchor="start" x="574.5" y="-667" font-family="monospace" font-size="10.00">tmp/{dataset}/clindata.csv</text>
<text text-anchor="start" x="574.5" y="-649" font-family="monospace" font-size="10.00">tmp/{dataset}/norm_counts.csv</text>
<text text-anchor="start" x="689.5" y="-628.8" font-family="sans" font-size="10.00"> </text>
<text text-anchor="start" x="693.5" y="-628.8" font-family="sans" font-weight="bold" font-size="14.00">output →</text>
<text text-anchor="start" x="763.5" y="-628.8" font-family="sans" font-size="10.00"> </text>
<text text-anchor="start" x="574.5" y="-609" font-family="monospace" font-size="10.00">results/{dataset}/PCA_biplot.pdf</text>
<polygon fill="#57d9d0" stroke="#57d9d0" points="568.5,-701 568.5,-701 774.5,-701 774.5,-701 568.5,-701"/>
<polygon fill="#57d9d0" stroke="#57d9d0" points="568.5,-643 568.5,-643 774.5,-643 774.5,-643 568.5,-643"/>
<polygon fill="none" stroke="#57d9d0" stroke-width="2" points="568,-600 568,-730 773,-730 773,-600 568,-600"/>
</g>
<!-- 3&#45;&gt;6 -->
<g id="edge14" class="edge">
<title>3&#45;&gt;6</title>
<path fill="none" stroke="grey" stroke-width="2" d="M832.36,-775.81C813.64,-763.11 793.86,-749.69 774.8,-736.76"/>
<polygon fill="grey" stroke="grey" stroke-width="2" points="776.63,-733.77 766.39,-731.05 772.7,-739.56 776.63,-733.77"/>
</g>
<!-- 8 -->
<g id="node9" class="node">
<title>8</title>
<text text-anchor="start" x="816.5" y="-710.6" font-family="sans" font-weight="bold" font-size="18.00">spearman_correlation</text>
<text text-anchor="start" x="799.5" y="-686.8" font-family="sans" font-size="10.00"> </text>
<text text-anchor="start" x="803.5" y="-686.8" font-family="sans" font-weight="bold" font-size="14.00">↪ input</text>
<text text-anchor="start" x="861.5" y="-686.8" font-family="sans" font-size="10.00"> </text>
<text text-anchor="start" x="799.5" y="-667" font-family="monospace" font-size="10.00">tmp/{dataset}/clindata.csv</text>
<text text-anchor="start" x="799.5" y="-649" font-family="monospace" font-size="10.00">tmp/{dataset}/norm_counts.csv</text>
<text text-anchor="start" x="974.5" y="-628.8" font-family="sans" font-size="10.00"> </text>
<text text-anchor="start" x="978.5" y="-628.8" font-family="sans" font-weight="bold" font-size="14.00">output →</text>
<text text-anchor="start" x="1048.5" y="-628.8" font-family="sans" font-size="10.00"> </text>
<text text-anchor="start" x="799.5" y="-609" font-family="monospace" font-size="10.00">results/{dataset}/spearman_correlation.txt</text>
<polygon fill="#d0d957" stroke="#d0d957" points="793.5,-701 793.5,-701 1059.5,-701 1059.5,-701 793.5,-701"/>
<polygon fill="#d0d957" stroke="#d0d957" points="793.5,-643 793.5,-643 1059.5,-643 1059.5,-643 793.5,-643"/>
<polygon fill="none" stroke="#d0d957" stroke-width="2" points="793,-600 793,-730 1058,-730 1058,-600 793,-600"/>
</g>
<!-- 3&#45;&gt;8 -->
<g id="edge16" class="edge">
<title>3&#45;&gt;8</title>
<path fill="none" stroke="grey" stroke-width="2" d="M925.5,-775.56C925.5,-764.49 925.5,-752.87 925.5,-741.51"/>
<polygon fill="grey" stroke="grey" stroke-width="2" points="929,-741.17 925.5,-731.17 922,-741.17 929,-741.17"/>
</g>
<!-- 10 -->
<g id="node11" class="node">
<title>10</title>
<text text-anchor="start" x="1122" y="-710.6" font-family="sans" font-weight="bold" font-size="18.00">wilcoxon_test</text>
<text text-anchor="start" x="1084.5" y="-686.8" font-family="sans" font-size="10.00"> </text>
<text text-anchor="start" x="1088.5" y="-686.8" font-family="sans" font-weight="bold" font-size="14.00">↪ input</text>
<text text-anchor="start" x="1146.5" y="-686.8" font-family="sans" font-size="10.00"> </text>
<text text-anchor="start" x="1084.5" y="-667" font-family="monospace" font-size="10.00">tmp/{dataset}/clindata.csv</text>
<text text-anchor="start" x="1084.5" y="-649" font-family="monospace" font-size="10.00">tmp/{dataset}/norm_counts.csv</text>
<text text-anchor="start" x="1217.5" y="-628.8" font-family="sans" font-size="10.00"> </text>
<text text-anchor="start" x="1221.5" y="-628.8" font-family="sans" font-weight="bold" font-size="14.00">output →</text>
<text text-anchor="start" x="1291.5" y="-628.8" font-family="sans" font-size="10.00"> </text>
<text text-anchor="start" x="1084.5" y="-609" font-family="monospace" font-size="10.00">results/{dataset}/wilcoxon_test.txt</text>
<polygon fill="#57d98b" stroke="#57d98b" points="1078.5,-701 1078.5,-701 1302.5,-701 1302.5,-701 1078.5,-701"/>
<polygon fill="#57d98b" stroke="#57d98b" points="1078.5,-643 1078.5,-643 1302.5,-643 1302.5,-643 1078.5,-643"/>
<polygon fill="none" stroke="#57d98b" stroke-width="2" points="1078,-600 1078,-730 1301,-730 1301,-600 1078,-600"/>
</g>
<!-- 3&#45;&gt;10 -->
<g id="edge18" class="edge">
<title>3&#45;&gt;10</title>
<path fill="none" stroke="grey" stroke-width="2" d="M1021.93,-775.81C1041.39,-763.06 1061.97,-749.57 1081.79,-736.58"/>
<polygon fill="grey" stroke="grey" stroke-width="2" points="1083.78,-739.46 1090.23,-731.05 1079.95,-733.61 1083.78,-739.46"/>
</g>
<!-- 12 -->
<g id="node13" class="node">
<title>12</title>
<text text-anchor="start" x="1359" y="-710.6" font-family="sans" font-weight="bold" font-size="18.00">jonckheere_test</text>
<text text-anchor="start" x="1327.5" y="-686.8" font-family="sans" font-size="10.00"> </text>
<text text-anchor="start" x="1331.5" y="-686.8" font-family="sans" font-weight="bold" font-size="14.00">↪ input</text>
<text text-anchor="start" x="1389.5" y="-686.8" font-family="sans" font-size="10.00"> </text>
<text text-anchor="start" x="1327.5" y="-667" font-family="monospace" font-size="10.00">tmp/{dataset}/clindata.csv</text>
<text text-anchor="start" x="1327.5" y="-649" font-family="monospace" font-size="10.00">tmp/{dataset}/norm_counts.csv</text>
<text text-anchor="start" x="1472.5" y="-628.8" font-family="sans" font-size="10.00"> </text>
<text text-anchor="start" x="1476.5" y="-628.8" font-family="sans" font-weight="bold" font-size="14.00">output →</text>
<text text-anchor="start" x="1546.5" y="-628.8" font-family="sans" font-size="10.00"> </text>
<text text-anchor="start" x="1327.5" y="-609" font-family="monospace" font-size="10.00">results/{dataset}/jonckheere_test.txt</text>
<polygon fill="#add957" stroke="#add957" points="1321.5,-701 1321.5,-701 1557.5,-701 1557.5,-701 1321.5,-701"/>
<polygon fill="#add957" stroke="#add957" points="1321.5,-643 1321.5,-643 1557.5,-643 1557.5,-643 1321.5,-643"/>
<polygon fill="none" stroke="#add957" stroke-width="2" points="1321,-600 1321,-730 1556,-730 1556,-600 1321,-600"/>
</g>
<!-- 3&#45;&gt;12 -->
<g id="edge20" class="edge">
<title>3&#45;&gt;12</title>
<path fill="none" stroke="grey" stroke-width="2" d="M1054.01,-815.14C1130.22,-798.75 1227.77,-773.81 1310.5,-740 1314.14,-738.51 1317.8,-736.94 1321.47,-735.29"/>
<polygon fill="grey" stroke="grey" stroke-width="2" points="1322.99,-738.45 1330.59,-731.07 1320.05,-732.1 1322.99,-738.45"/>
</g>
<!-- 13 -->
<g id="node14" class="node">
<title>13</title>
<text text-anchor="start" x="1582.5" y="-719.6" font-family="sans" font-weight="bold" font-size="18.00">histogram_of_selected_data</text>
<text text-anchor="start" x="1582.5" y="-695.8" font-family="sans" font-size="10.00"> </text>
<text text-anchor="start" x="1586.5" y="-695.8" font-family="sans" font-weight="bold" font-size="14.00">↪ input</text>
<text text-anchor="start" x="1644.5" y="-695.8" font-family="sans" font-size="10.00"> </text>
<text text-anchor="start" x="1582.5" y="-676" font-family="monospace" font-size="10.00">tmp/{dataset}/clindata.csv</text>
<text text-anchor="start" x="1582.5" y="-658" font-family="monospace" font-size="10.00">tmp/{dataset}/norm_counts.csv</text>
<text text-anchor="start" x="1582.5" y="-640" font-family="monospace" font-size="10.00">tmp/{dataset}/raw_counts.txt</text>
<text text-anchor="start" x="1782.5" y="-619.8" font-family="sans" font-size="10.00"> </text>
<text text-anchor="start" x="1786.5" y="-619.8" font-family="sans" font-weight="bold" font-size="14.00">output →</text>
<text text-anchor="start" x="1856.5" y="-619.8" font-family="sans" font-size="10.00"> </text>
<text text-anchor="start" x="1582.5" y="-600" font-family="monospace" font-size="10.00">results/{dataset}/histogram.pdf</text>
<polygon fill="#68d957" stroke="#68d957" points="1576.5,-710 1576.5,-710 1867.5,-710 1867.5,-710 1576.5,-710"/>
<polygon fill="#68d957" stroke="#68d957" points="1576.5,-634 1576.5,-634 1867.5,-634 1867.5,-634 1576.5,-634"/>
<polygon fill="none" stroke="#68d957" stroke-width="2" points="1576.5,-591 1576.5,-739 1866.5,-739 1866.5,-591 1576.5,-591"/>
</g>
<!-- 3&#45;&gt;13 -->
<g id="edge21" class="edge">
<title>3&#45;&gt;13</title>
<path fill="none" stroke="grey" stroke-width="2" d="M1054.15,-830.22C1183.07,-818.92 1386.37,-794.22 1565.49,-740.16"/>
<polygon fill="grey" stroke="grey" stroke-width="2" points="1566.54,-743.5 1575.08,-737.23 1564.5,-736.81 1566.54,-743.5"/>
</g>
<!-- 14 -->
<g id="node15" class="node">
<title>14</title>
<text text-anchor="start" x="1487" y="-311.6" font-family="sans" font-weight="bold" font-size="18.00">plot_of_PCA</text>
<text text-anchor="start" x="1434.5" y="-287.8" font-family="sans" font-size="10.00"> </text>
<text text-anchor="start" x="1438.5" y="-287.8" font-family="sans" font-weight="bold" font-size="14.00">↪ input</text>
<text text-anchor="start" x="1496.5" y="-287.8" font-family="sans" font-size="10.00"> </text>
<text text-anchor="start" x="1434.5" y="-268" font-family="monospace" font-size="10.00">tmp/{dataset}/clindata.csv</text>
<text text-anchor="start" x="1434.5" y="-250" font-family="monospace" font-size="10.00">tmp/{dataset}/norm_counts.csv</text>
<text text-anchor="start" x="1579.5" y="-229.8" font-family="sans" font-size="10.00"> </text>
<text text-anchor="start" x="1583.5" y="-229.8" font-family="sans" font-weight="bold" font-size="14.00">output →</text>
<text text-anchor="start" x="1653.5" y="-229.8" font-family="sans" font-size="10.00"> </text>
<text text-anchor="start" x="1434.5" y="-210" font-family="monospace" font-size="10.00">results/{dataset}/3D_plot_of_PCA.html</text>
<polygon fill="#5779d9" stroke="#5779d9" points="1428.5,-302 1428.5,-302 1664.5,-302 1664.5,-302 1428.5,-302"/>
<polygon fill="#5779d9" stroke="#5779d9" points="1428.5,-244 1428.5,-244 1664.5,-244 1664.5,-244 1428.5,-244"/>
<polygon fill="none" stroke="#5779d9" stroke-width="2" points="1428,-201 1428,-331 1663,-331 1663,-201 1428,-201"/>
</g>
<!-- 3&#45;&gt;14 -->
<g id="edge22" class="edge">
<title>3&#45;&gt;14</title>
<path fill="none" stroke="grey" stroke-width="2" d="M1054.43,-834.99C1301.58,-825.95 1822.46,-799.96 1876.5,-740 1994.73,-608.83 1793.44,-434.17 1656.44,-338.01"/>
<polygon fill="grey" stroke="grey" stroke-width="2" points="1658.12,-334.92 1647.92,-332.08 1654.12,-340.66 1658.12,-334.92"/>
</g>
<!-- 4&#45;&gt;1 -->
<g id="edge10" class="edge">
<title>4&#45;&gt;1</title>
<path fill="none" stroke="grey" stroke-width="2" d="M432.07,-425.73C434.89,-424.45 437.71,-423.2 440.5,-422 552.28,-373.89 684.09,-332.7 782.07,-304.9"/>
<polygon fill="grey" stroke="grey" stroke-width="2" points="783.07,-308.26 791.74,-302.17 781.17,-301.52 783.07,-308.26"/>
</g>
<!-- 5&#45;&gt;1 -->
<g id="edge3" class="edge">
<title>5&#45;&gt;1</title>
<path fill="none" stroke="grey" stroke-width="2" d="M684.72,-421.89C715.55,-402.05 750.03,-379.87 783.05,-358.63"/>
<polygon fill="grey" stroke="grey" stroke-width="2" points="785.35,-361.32 791.86,-352.97 781.56,-355.43 785.35,-361.32"/>
</g>
<!-- 6&#45;&gt;1 -->
<g id="edge9" class="edge">
<title>6&#45;&gt;1</title>
<path fill="none" stroke="grey" stroke-width="2" d="M705.44,-598.84C712.57,-584.3 719.67,-568.8 725.5,-554 747.93,-497.09 732.74,-474.28 764.5,-422 770.78,-411.66 777.91,-401.55 785.61,-391.75"/>
<polygon fill="grey" stroke="grey" stroke-width="2" points="788.33,-393.94 791.89,-383.96 782.88,-389.55 788.33,-393.94"/>
</g>
<!-- 7 -->
<g id="node8" class="node">
<title>7</title>
<text text-anchor="start" x="780.5" y="-524.6" font-family="sans" font-weight="bold" font-size="18.00">spearman_correlation_to_pdf</text>
<text text-anchor="start" x="780.5" y="-500.8" font-family="sans" font-size="10.00"> </text>
<text text-anchor="start" x="784.5" y="-500.8" font-family="sans" font-weight="bold" font-size="14.00">↪ input</text>
<text text-anchor="start" x="842.5" y="-500.8" font-family="sans" font-size="10.00"> </text>
<text text-anchor="start" x="780.5" y="-481" font-family="monospace" font-size="10.00">results/{dataset}/spearman_correlation.txt</text>
<text text-anchor="start" x="992.5" y="-460.8" font-family="sans" font-size="10.00"> </text>
<text text-anchor="start" x="996.5" y="-460.8" font-family="sans" font-weight="bold" font-size="14.00">output →</text>
<text text-anchor="start" x="1066.5" y="-460.8" font-family="sans" font-size="10.00"> </text>
<text text-anchor="start" x="780.5" y="-441" font-family="monospace" font-size="10.00">results/{dataset}/spearman_correlation.pdf</text>
<polygon fill="#d99c57" stroke="#d99c57" points="774.5,-515 774.5,-515 1077.5,-515 1077.5,-515 774.5,-515"/>
<polygon fill="#d99c57" stroke="#d99c57" points="774.5,-475 774.5,-475 1077.5,-475 1077.5,-475 774.5,-475"/>
<polygon fill="none" stroke="#d99c57" stroke-width="2" points="774.5,-432 774.5,-544 1076.5,-544 1076.5,-432 774.5,-432"/>
</g>
<!-- 7&#45;&gt;1 -->
<g id="edge5" class="edge">
<title>7&#45;&gt;1</title>
<path fill="none" stroke="grey" stroke-width="2" d="M925.5,-430.92C925.5,-420.07 925.5,-408.31 925.5,-396.22"/>
<polygon fill="grey" stroke="grey" stroke-width="2" points="929,-396 925.5,-386 922,-396 929,-396"/>
</g>
<!-- 8&#45;&gt;7 -->
<g id="edge15" class="edge">
<title>8&#45;&gt;7</title>
<path fill="none" stroke="grey" stroke-width="2" d="M925.5,-598.84C925.5,-584.6 925.5,-569.53 925.5,-555.25"/>
<polygon fill="grey" stroke="grey" stroke-width="2" points="929,-555.03 925.5,-545.03 922,-555.03 929,-555.03"/>
</g>
<!-- 9 -->
<g id="node10" class="node">
<title>9</title>
<text text-anchor="start" x="1105.5" y="-524.6" font-family="sans" font-weight="bold" font-size="18.00">wilcoxon_test_to_pdf</text>
<text text-anchor="start" x="1103.5" y="-500.8" font-family="sans" font-size="10.00"> </text>
<text text-anchor="start" x="1107.5" y="-500.8" font-family="sans" font-weight="bold" font-size="14.00">↪ input</text>
<text text-anchor="start" x="1165.5" y="-500.8" font-family="sans" font-size="10.00"> </text>
<text text-anchor="start" x="1103.5" y="-481" font-family="monospace" font-size="10.00">results/{dataset}/wilcoxon_test.txt</text>
<text text-anchor="start" x="1236.5" y="-460.8" font-family="sans" font-size="10.00"> </text>
<text text-anchor="start" x="1240.5" y="-460.8" font-family="sans" font-weight="bold" font-size="14.00">output →</text>
<text text-anchor="start" x="1310.5" y="-460.8" font-family="sans" font-size="10.00"> </text>
<text text-anchor="start" x="1103.5" y="-441" font-family="monospace" font-size="10.00">results/{dataset}/wilcoxon_test.pdf</text>
<polygon fill="#d9bf57" stroke="#d9bf57" points="1097.5,-515 1097.5,-515 1321.5,-515 1321.5,-515 1097.5,-515"/>
<polygon fill="#d9bf57" stroke="#d9bf57" points="1097.5,-475 1097.5,-475 1321.5,-475 1321.5,-475 1097.5,-475"/>
<polygon fill="none" stroke="#d9bf57" stroke-width="2" points="1097,-432 1097,-544 1320,-544 1320,-432 1097,-432"/>
</g>
<!-- 9&#45;&gt;1 -->
<g id="edge6" class="edge">
<title>9&#45;&gt;1</title>
<path fill="none" stroke="grey" stroke-width="2" d="M1136.35,-430.92C1115.17,-414.45 1091.23,-395.83 1067.27,-377.21"/>
<polygon fill="grey" stroke="grey" stroke-width="2" points="1069.2,-374.27 1059.15,-370.9 1064.9,-379.8 1069.2,-374.27"/>
</g>
<!-- 10&#45;&gt;9 -->
<g id="edge17" class="edge">
<title>10&#45;&gt;9</title>
<path fill="none" stroke="grey" stroke-width="2" d="M1196.57,-598.84C1198.12,-584.6 1199.76,-569.53 1201.31,-555.25"/>
<polygon fill="grey" stroke="grey" stroke-width="2" points="1204.82,-555.34 1202.42,-545.03 1197.86,-554.59 1204.82,-555.34"/>
</g>
<!-- 11 -->
<g id="node12" class="node">
<title>11</title>
<text text-anchor="start" x="1346.5" y="-524.6" font-family="sans" font-weight="bold" font-size="18.00">jonckheere_test_to_pdf</text>
<text text-anchor="start" x="1346.5" y="-500.8" font-family="sans" font-size="10.00"> </text>
<text text-anchor="start" x="1350.5" y="-500.8" font-family="sans" font-weight="bold" font-size="14.00">↪ input</text>
<text text-anchor="start" x="1408.5" y="-500.8" font-family="sans" font-size="10.00"> </text>
<text text-anchor="start" x="1346.5" y="-481" font-family="monospace" font-size="10.00">results/{dataset}/jonckheere_test.txt</text>
<text text-anchor="start" x="1499.5" y="-460.8" font-family="sans" font-size="10.00"> </text>
<text text-anchor="start" x="1503.5" y="-460.8" font-family="sans" font-weight="bold" font-size="14.00">output →</text>
<text text-anchor="start" x="1573.5" y="-460.8" font-family="sans" font-size="10.00"> </text>
<text text-anchor="start" x="1346.5" y="-441" font-family="monospace" font-size="10.00">results/{dataset}/jonckheere_test.pdf</text>
<polygon fill="#d97957" stroke="#d97957" points="1340.5,-515 1340.5,-515 1584.5,-515 1584.5,-515 1340.5,-515"/>
<polygon fill="#d97957" stroke="#d97957" points="1340.5,-475 1340.5,-475 1584.5,-475 1584.5,-475 1340.5,-475"/>
<polygon fill="none" stroke="#d97957" stroke-width="2" points="1340,-432 1340,-544 1583,-544 1583,-432 1340,-432"/>
</g>
<!-- 11&#45;&gt;1 -->
<g id="edge4" class="edge">
<title>11&#45;&gt;1</title>
<path fill="none" stroke="grey" stroke-width="2" d="M1350.35,-430.95C1343.66,-427.86 1337.01,-424.85 1330.5,-422 1244.69,-384.39 1146.61,-346.72 1068.46,-317.94"/>
<polygon fill="grey" stroke="grey" stroke-width="2" points="1069.62,-314.63 1059.03,-314.47 1067.21,-321.21 1069.62,-314.63"/>
</g>
<!-- 12&#45;&gt;11 -->
<g id="edge19" class="edge">
<title>12&#45;&gt;11</title>
<path fill="none" stroke="grey" stroke-width="2" d="M1447.06,-598.84C1448.93,-584.6 1450.92,-569.53 1452.79,-555.25"/>
<polygon fill="grey" stroke="grey" stroke-width="2" points="1456.3,-555.4 1454.14,-545.03 1449.36,-554.48 1456.3,-555.4"/>
</g>
<!-- 13&#45;&gt;1 -->
<g id="edge7" class="edge">
<title>13&#45;&gt;1</title>
<path fill="none" stroke="grey" stroke-width="2" d="M1701.07,-589.72C1682.14,-535 1648.44,-463.21 1593.5,-422 1529.98,-374.35 1495.99,-403.32 1418.5,-386 1300.53,-359.64 1167.31,-327.33 1069.12,-303.03"/>
<polygon fill="grey" stroke="grey" stroke-width="2" points="1069.68,-299.56 1059.13,-300.55 1067.99,-306.36 1069.68,-299.56"/>
</g>
<!-- 14&#45;&gt;0 -->
<g id="edge2" class="edge">
<title>14&#45;&gt;0</title>
<path fill="none" stroke="grey" stroke-width="2" d="M1426.86,-213.87C1354.65,-182.76 1262.41,-143.01 1188.55,-111.18"/>
<polygon fill="grey" stroke="grey" stroke-width="2" points="1189.75,-107.89 1179.18,-107.14 1186.98,-114.31 1189.75,-107.89"/>
</g>
</g>
</svg>
