<?xml version="1.0" encoding="UTF-8" standalone="no"?>
<!DOCTYPE svg PUBLIC "-//W3C//DTD SVG 1.1//EN"
 "http://www.w3.org/Graphics/SVG/1.1/DTD/svg11.dtd">
<!-- Generated by graphviz version 2.43.0 (0)
 -->
<!-- Title: snakemake_dag Pages: 1 -->
<svg width="1937pt" height="912pt"
 viewBox="0.00 0.00 1936.50 912.00" xmlns="http://www.w3.org/2000/svg" xmlns:xlink="http://www.w3.org/1999/xlink">
<g id="graph0" class="graph" transform="scale(1 1) rotate(0) translate(4 908)">
<title>snakemake_dag</title>
<polygon fill="white" stroke="transparent" points="-4,4 -4,-908 1932.5,-908 1932.5,4 -4,4"/>
<!-- 0 -->
<g id="node1" class="node">
<title>0</title>
<text text-anchor="start" x="771.5" y="-71.6" font-family="sans" font-weight="bold" font-size="18.00">all</text>
<text text-anchor="start" x="696.5" y="-47.8" font-family="sans" font-size="10.00"> </text>
<text text-anchor="start" x="700.5" y="-47.8" font-family="sans" font-weight="bold" font-size="14.00">↪ input</text>
<text text-anchor="start" x="758.5" y="-47.8" font-family="sans" font-size="10.00"> </text>
<text text-anchor="start" x="696.5" y="-28" font-family="monospace" font-size="10.00">results/GSE152075/summary.pdf</text>
<text text-anchor="start" x="864.5" y="-10" font-family="sans" font-size="10.00"> &#160;</text>
<polygon fill="#d97957" stroke="#d97957" points="690.5,-62 690.5,-62 878.5,-62 878.5,-62 690.5,-62"/>
<polygon fill="#d97957" stroke="#d97957" points="690.5,-22 690.5,-22 878.5,-22 878.5,-22 690.5,-22"/>
<polygon fill="none" stroke="#d97957" stroke-width="2" points="690,-1 690,-91 877,-91 877,-1 690,-1"/>
</g>
<!-- 1 -->
<g id="node2" class="node">
<title>1</title>
<text text-anchor="start" x="689.5" y="-365.6" font-family="sans" font-weight="bold" font-size="18.00">summarize_results</text>
<text text-anchor="start" x="657.5" y="-341.8" font-family="sans" font-size="10.00"> </text>
<text text-anchor="start" x="661.5" y="-341.8" font-family="sans" font-weight="bold" font-size="14.00">↪ input</text>
<text text-anchor="start" x="719.5" y="-341.8" font-family="sans" font-size="10.00"> </text>
<text text-anchor="start" x="657.5" y="-322" font-family="monospace" font-size="10.00">results/GSE152075/3D_plot_of_PCA.pdf</text>
<text text-anchor="start" x="657.5" y="-304" font-family="monospace" font-size="10.00">results/GSE152075/MX1_MX2_plot.pdf</text>
<text text-anchor="start" x="657.5" y="-286" font-family="monospace" font-size="10.00">results/GSE152075/MX1_plot.pdf</text>
<text text-anchor="start" x="657.5" y="-268" font-family="monospace" font-size="10.00">results/GSE152075/PCA_biplot.pdf</text>
<text text-anchor="start" x="657.5" y="-250" font-family="monospace" font-size="10.00">results/GSE152075/histogram.pdf</text>
<text text-anchor="start" x="657.5" y="-232" font-family="monospace" font-size="10.00">results/GSE152075/jonckheere_test.pdf</text>
<text text-anchor="start" x="657.5" y="-214" font-family="monospace" font-size="10.00">results/GSE152075/pairwise_correlation.pdf</text>
<text text-anchor="start" x="657.5" y="-196" font-family="monospace" font-size="10.00">results/GSE152075/spearman_correlation.pdf</text>
<text text-anchor="start" x="657.5" y="-178" font-family="monospace" font-size="10.00">results/GSE152075/wilcoxon_test.pdf</text>
<text text-anchor="start" x="832.5" y="-157.8" font-family="sans" font-size="10.00"> </text>
<text text-anchor="start" x="836.5" y="-157.8" font-family="sans" font-weight="bold" font-size="14.00">output →</text>
<text text-anchor="start" x="906.5" y="-157.8" font-family="sans" font-size="10.00"> </text>
<text text-anchor="start" x="657.5" y="-138" font-family="monospace" font-size="10.00">results/GSE152075/summary.pdf</text>
<polygon fill="#57d98b" stroke="#57d98b" points="651.5,-356 651.5,-356 917.5,-356 917.5,-356 651.5,-356"/>
<polygon fill="#57d98b" stroke="#57d98b" points="651.5,-172 651.5,-172 917.5,-172 917.5,-172 651.5,-172"/>
<polygon fill="none" stroke="#57d98b" stroke-width="2" points="651,-129 651,-385 916,-385 916,-129 651,-129"/>
</g>
<!-- 1&#45;&gt;0 -->
<g id="edge1" class="edge">
<title>1&#45;&gt;0</title>
<path fill="none" stroke="grey" stroke-width="2" d="M783.5,-127.8C783.5,-118.89 783.5,-110.22 783.5,-102.08"/>
<polygon fill="grey" stroke="grey" stroke-width="2" points="787,-102.05 783.5,-92.05 780,-102.05 787,-102.05"/>
</g>
<!-- 2 -->
<g id="node3" class="node">
<title>2</title>
<text text-anchor="start" x="51" y="-533.6" font-family="sans" font-weight="bold" font-size="18.00">plot_MX1</text>
<text text-anchor="start" x="7.5" y="-509.8" font-family="sans" font-size="10.00"> </text>
<text text-anchor="start" x="11.5" y="-509.8" font-family="sans" font-weight="bold" font-size="14.00">↪ input</text>
<text text-anchor="start" x="69.5" y="-509.8" font-family="sans" font-size="10.00"> </text>
<text text-anchor="start" x="7.5" y="-490" font-family="monospace" font-size="10.00">tmp/GSE152075/clindata.csv</text>
<text text-anchor="start" x="7.5" y="-472" font-family="monospace" font-size="10.00">tmp/GSE152075/norm_counts.csv</text>
<text text-anchor="start" x="110.5" y="-451.8" font-family="sans" font-size="10.00"> </text>
<text text-anchor="start" x="114.5" y="-451.8" font-family="sans" font-weight="bold" font-size="14.00">output →</text>
<text text-anchor="start" x="184.5" y="-451.8" font-family="sans" font-size="10.00"> </text>
<text text-anchor="start" x="7.5" y="-432" font-family="monospace" font-size="10.00">results/GSE152075/MX1_plot.pdf</text>
<polygon fill="#add957" stroke="#add957" points="1.5,-524 1.5,-524 195.5,-524 195.5,-524 1.5,-524"/>
<polygon fill="#add957" stroke="#add957" points="1.5,-466 1.5,-466 195.5,-466 195.5,-466 1.5,-466"/>
<polygon fill="none" stroke="#add957" stroke-width="2" points="1,-423 1,-553 194,-553 194,-423 1,-423"/>
</g>
<!-- 2&#45;&gt;1 -->
<g id="edge5" class="edge">
<title>2&#45;&gt;1</title>
<path fill="none" stroke="grey" stroke-width="2" d="M195.16,-425.81C197.95,-424.49 200.73,-423.21 203.5,-422 346.61,-359.32 520.07,-313.97 639.81,-287.05"/>
<polygon fill="grey" stroke="grey" stroke-width="2" points="640.78,-290.42 649.78,-284.83 639.25,-283.59 640.78,-290.42"/>
</g>
<!-- 3 -->
<g id="node4" class="node">
<title>3</title>
<text text-anchor="start" x="598.5" y="-883.6" font-family="sans" font-weight="bold" font-size="18.00">load_and_annotate_data</text>
<text text-anchor="start" x="598.5" y="-862" font-family="sans" font-size="10.00"> &#160;</text>
<text text-anchor="start" x="763.5" y="-841.8" font-family="sans" font-size="10.00"> </text>
<text text-anchor="start" x="767.5" y="-841.8" font-family="sans" font-weight="bold" font-size="14.00">output →</text>
<text text-anchor="start" x="837.5" y="-841.8" font-family="sans" font-size="10.00"> </text>
<text text-anchor="start" x="598.5" y="-822" font-family="monospace" font-size="10.00">tmp/GSE152075/clindata.csv</text>
<text text-anchor="start" x="598.5" y="-804" font-family="monospace" font-size="10.00">tmp/GSE152075/norm_counts.csv</text>
<text text-anchor="start" x="598.5" y="-786" font-family="monospace" font-size="10.00">tmp/GSE152075/raw_counts.txt</text>
<polygon fill="#5779d9" stroke="#5779d9" points="592.5,-874 592.5,-874 848.5,-874 848.5,-874 592.5,-874"/>
<polygon fill="#5779d9" stroke="#5779d9" points="592.5,-856 592.5,-856 848.5,-856 848.5,-856 592.5,-856"/>
<polygon fill="none" stroke="#5779d9" stroke-width="2" points="592,-777 592,-903 847,-903 847,-777 592,-777"/>
</g>
<!-- 3&#45;&gt;2 -->
<g id="edge11" class="edge">
<title>3&#45;&gt;2</title>
<path fill="none" stroke="grey" stroke-width="2" d="M590.89,-830.73C502.86,-820.04 386.59,-795.63 298.5,-740 229.02,-696.12 172.99,-619.72 137.91,-562.7"/>
<polygon fill="grey" stroke="grey" stroke-width="2" points="140.86,-560.81 132.68,-554.08 134.87,-564.45 140.86,-560.81"/>
</g>
<!-- 4 -->
<g id="node5" class="node">
<title>4</title>
<text text-anchor="start" x="249" y="-533.6" font-family="sans" font-weight="bold" font-size="18.00">plot_MX1_MX2</text>
<text text-anchor="start" x="220.5" y="-509.8" font-family="sans" font-size="10.00"> </text>
<text text-anchor="start" x="224.5" y="-509.8" font-family="sans" font-weight="bold" font-size="14.00">↪ input</text>
<text text-anchor="start" x="282.5" y="-509.8" font-family="sans" font-size="10.00"> </text>
<text text-anchor="start" x="220.5" y="-490" font-family="monospace" font-size="10.00">tmp/GSE152075/clindata.csv</text>
<text text-anchor="start" x="220.5" y="-472" font-family="monospace" font-size="10.00">tmp/GSE152075/norm_counts.csv</text>
<text text-anchor="start" x="347.5" y="-451.8" font-family="sans" font-size="10.00"> </text>
<text text-anchor="start" x="351.5" y="-451.8" font-family="sans" font-weight="bold" font-size="14.00">output →</text>
<text text-anchor="start" x="421.5" y="-451.8" font-family="sans" font-size="10.00"> </text>
<text text-anchor="start" x="220.5" y="-432" font-family="monospace" font-size="10.00">results/GSE152075/MX1_MX2_plot.pdf</text>
<polygon fill="#57d968" stroke="#57d968" points="214.5,-524 214.5,-524 432.5,-524 432.5,-524 214.5,-524"/>
<polygon fill="#57d968" stroke="#57d968" points="214.5,-466 214.5,-466 432.5,-466 432.5,-466 214.5,-466"/>
<polygon fill="none" stroke="#57d968" stroke-width="2" points="214,-423 214,-553 431,-553 431,-423 214,-423"/>
</g>
<!-- 3&#45;&gt;4 -->
<g id="edge12" class="edge">
<title>3&#45;&gt;4</title>
<path fill="none" stroke="grey" stroke-width="2" d="M590.59,-821.99C492.77,-806.21 369.76,-779.22 337.5,-740 297.81,-691.76 297.81,-619.03 305.52,-564.25"/>
<polygon fill="grey" stroke="grey" stroke-width="2" points="309,-564.66 307.04,-554.25 302.08,-563.61 309,-564.66"/>
</g>
<!-- 5 -->
<g id="node6" class="node">
<title>5</title>
<text text-anchor="start" x="482" y="-533.6" font-family="sans" font-weight="bold" font-size="18.00">pairwise_correlation</text>
<text text-anchor="start" x="457.5" y="-509.8" font-family="sans" font-size="10.00"> </text>
<text text-anchor="start" x="461.5" y="-509.8" font-family="sans" font-weight="bold" font-size="14.00">↪ input</text>
<text text-anchor="start" x="519.5" y="-509.8" font-family="sans" font-size="10.00"> </text>
<text text-anchor="start" x="457.5" y="-490" font-family="monospace" font-size="10.00">tmp/GSE152075/clindata.csv</text>
<text text-anchor="start" x="457.5" y="-472" font-family="monospace" font-size="10.00">tmp/GSE152075/norm_counts.csv</text>
<text text-anchor="start" x="632.5" y="-451.8" font-family="sans" font-size="10.00"> </text>
<text text-anchor="start" x="636.5" y="-451.8" font-family="sans" font-weight="bold" font-size="14.00">output →</text>
<text text-anchor="start" x="706.5" y="-451.8" font-family="sans" font-size="10.00"> </text>
<text text-anchor="start" x="457.5" y="-432" font-family="monospace" font-size="10.00">results/GSE152075/pairwise_correlation.pdf</text>
<polygon fill="#8bd957" stroke="#8bd957" points="451.5,-524 451.5,-524 717.5,-524 717.5,-524 451.5,-524"/>
<polygon fill="#8bd957" stroke="#8bd957" points="451.5,-466 451.5,-466 717.5,-466 717.5,-466 451.5,-466"/>
<polygon fill="none" stroke="#8bd957" stroke-width="2" points="451,-423 451,-553 716,-553 716,-423 451,-423"/>
</g>
<!-- 3&#45;&gt;5 -->
<g id="edge13" class="edge">
<title>3&#45;&gt;5</title>
<path fill="none" stroke="grey" stroke-width="2" d="M590.58,-819.12C502.38,-802.59 396.69,-775.95 369.5,-740 329.28,-686.83 333.81,-646.31 369.5,-590 370.84,-587.89 402.16,-572.75 440.45,-554.81"/>
<polygon fill="grey" stroke="grey" stroke-width="2" points="442.2,-557.85 449.78,-550.45 439.24,-551.51 442.2,-557.85"/>
</g>
<!-- 6 -->
<g id="node7" class="node">
<title>6</title>
<text text-anchor="start" x="428.5" y="-710.6" font-family="sans" font-weight="bold" font-size="18.00">PCA_biplot</text>
<text text-anchor="start" x="386.5" y="-686.8" font-family="sans" font-size="10.00"> </text>
<text text-anchor="start" x="390.5" y="-686.8" font-family="sans" font-weight="bold" font-size="14.00">↪ input</text>
<text text-anchor="start" x="448.5" y="-686.8" font-family="sans" font-size="10.00"> </text>
<text text-anchor="start" x="386.5" y="-667" font-family="monospace" font-size="10.00">tmp/GSE152075/clindata.csv</text>
<text text-anchor="start" x="386.5" y="-649" font-family="monospace" font-size="10.00">tmp/GSE152075/norm_counts.csv</text>
<text text-anchor="start" x="501.5" y="-628.8" font-family="sans" font-size="10.00"> </text>
<text text-anchor="start" x="505.5" y="-628.8" font-family="sans" font-weight="bold" font-size="14.00">output →</text>
<text text-anchor="start" x="575.5" y="-628.8" font-family="sans" font-size="10.00"> </text>
<text text-anchor="start" x="386.5" y="-609" font-family="monospace" font-size="10.00">results/GSE152075/PCA_biplot.pdf</text>
<polygon fill="#d99c57" stroke="#d99c57" points="380.5,-701 380.5,-701 586.5,-701 586.5,-701 380.5,-701"/>
<polygon fill="#d99c57" stroke="#d99c57" points="380.5,-643 380.5,-643 586.5,-643 586.5,-643 380.5,-643"/>
<polygon fill="none" stroke="#d99c57" stroke-width="2" points="380,-600 380,-730 585,-730 585,-600 380,-600"/>
</g>
<!-- 3&#45;&gt;6 -->
<g id="edge14" class="edge">
<title>3&#45;&gt;6</title>
<path fill="none" stroke="grey" stroke-width="2" d="M632.93,-775.81C615.77,-763.28 597.65,-750.05 580.15,-737.28"/>
<polygon fill="grey" stroke="grey" stroke-width="2" points="581.76,-734.12 571.62,-731.05 577.63,-739.77 581.76,-734.12"/>
</g>
<!-- 7 -->
<g id="node8" class="node">
<title>7</title>
<text text-anchor="start" x="661" y="-710.6" font-family="sans" font-weight="bold" font-size="18.00">plot_of_PCA</text>
<text text-anchor="start" x="611.5" y="-686.8" font-family="sans" font-size="10.00"> </text>
<text text-anchor="start" x="615.5" y="-686.8" font-family="sans" font-weight="bold" font-size="14.00">↪ input</text>
<text text-anchor="start" x="673.5" y="-686.8" font-family="sans" font-size="10.00"> </text>
<text text-anchor="start" x="611.5" y="-667" font-family="monospace" font-size="10.00">tmp/GSE152075/clindata.csv</text>
<text text-anchor="start" x="611.5" y="-649" font-family="monospace" font-size="10.00">tmp/GSE152075/norm_counts.csv</text>
<text text-anchor="start" x="750.5" y="-628.8" font-family="sans" font-size="10.00"> </text>
<text text-anchor="start" x="754.5" y="-628.8" font-family="sans" font-weight="bold" font-size="14.00">output →</text>
<text text-anchor="start" x="824.5" y="-628.8" font-family="sans" font-size="10.00"> </text>
<text text-anchor="start" x="611.5" y="-609" font-family="monospace" font-size="10.00">results/GSE152075/3D_plot_of_PCA.pdf</text>
<polygon fill="#57d9d0" stroke="#57d9d0" points="605.5,-701 605.5,-701 835.5,-701 835.5,-701 605.5,-701"/>
<polygon fill="#57d9d0" stroke="#57d9d0" points="605.5,-643 605.5,-643 835.5,-643 835.5,-643 605.5,-643"/>
<polygon fill="none" stroke="#57d9d0" stroke-width="2" points="605,-600 605,-730 834,-730 834,-600 605,-600"/>
</g>
<!-- 3&#45;&gt;7 -->
<g id="edge15" class="edge">
<title>3&#45;&gt;7</title>
<path fill="none" stroke="grey" stroke-width="2" d="M719.5,-775.56C719.5,-764.49 719.5,-752.87 719.5,-741.51"/>
<polygon fill="grey" stroke="grey" stroke-width="2" points="723,-741.17 719.5,-731.17 716,-741.17 723,-741.17"/>
</g>
<!-- 9 -->
<g id="node10" class="node">
<title>9</title>
<text text-anchor="start" x="877.5" y="-710.6" font-family="sans" font-weight="bold" font-size="18.00">spearman_correlation</text>
<text text-anchor="start" x="860.5" y="-686.8" font-family="sans" font-size="10.00"> </text>
<text text-anchor="start" x="864.5" y="-686.8" font-family="sans" font-weight="bold" font-size="14.00">↪ input</text>
<text text-anchor="start" x="922.5" y="-686.8" font-family="sans" font-size="10.00"> </text>
<text text-anchor="start" x="860.5" y="-667" font-family="monospace" font-size="10.00">tmp/GSE152075/clindata.csv</text>
<text text-anchor="start" x="860.5" y="-649" font-family="monospace" font-size="10.00">tmp/GSE152075/norm_counts.csv</text>
<text text-anchor="start" x="1035.5" y="-628.8" font-family="sans" font-size="10.00"> </text>
<text text-anchor="start" x="1039.5" y="-628.8" font-family="sans" font-weight="bold" font-size="14.00">output →</text>
<text text-anchor="start" x="1109.5" y="-628.8" font-family="sans" font-size="10.00"> </text>
<text text-anchor="start" x="860.5" y="-609" font-family="monospace" font-size="10.00">results/GSE152075/spearman_correlation.txt</text>
<polygon fill="#579cd9" stroke="#579cd9" points="854.5,-701 854.5,-701 1120.5,-701 1120.5,-701 854.5,-701"/>
<polygon fill="#579cd9" stroke="#579cd9" points="854.5,-643 854.5,-643 1120.5,-643 1120.5,-643 854.5,-643"/>
<polygon fill="none" stroke="#579cd9" stroke-width="2" points="854,-600 854,-730 1119,-730 1119,-600 854,-600"/>
</g>
<!-- 3&#45;&gt;9 -->
<g id="edge17" class="edge">
<title>3&#45;&gt;9</title>
<path fill="none" stroke="grey" stroke-width="2" d="M817.03,-775.81C836.71,-763.06 857.52,-749.57 877.56,-736.58"/>
<polygon fill="grey" stroke="grey" stroke-width="2" points="879.61,-739.43 886.1,-731.05 875.81,-733.55 879.61,-739.43"/>
</g>
<!-- 11 -->
<g id="node12" class="node">
<title>11</title>
<text text-anchor="start" x="1183" y="-710.6" font-family="sans" font-weight="bold" font-size="18.00">wilcoxon_test</text>
<text text-anchor="start" x="1145.5" y="-686.8" font-family="sans" font-size="10.00"> </text>
<text text-anchor="start" x="1149.5" y="-686.8" font-family="sans" font-weight="bold" font-size="14.00">↪ input</text>
<text text-anchor="start" x="1207.5" y="-686.8" font-family="sans" font-size="10.00"> </text>
<text text-anchor="start" x="1145.5" y="-667" font-family="monospace" font-size="10.00">tmp/GSE152075/clindata.csv</text>
<text text-anchor="start" x="1145.5" y="-649" font-family="monospace" font-size="10.00">tmp/GSE152075/norm_counts.csv</text>
<text text-anchor="start" x="1278.5" y="-628.8" font-family="sans" font-size="10.00"> </text>
<text text-anchor="start" x="1282.5" y="-628.8" font-family="sans" font-weight="bold" font-size="14.00">output →</text>
<text text-anchor="start" x="1352.5" y="-628.8" font-family="sans" font-size="10.00"> </text>
<text text-anchor="start" x="1145.5" y="-609" font-family="monospace" font-size="10.00">results/GSE152075/wilcoxon_test.txt</text>
<polygon fill="#57d9ad" stroke="#57d9ad" points="1139.5,-701 1139.5,-701 1363.5,-701 1363.5,-701 1139.5,-701"/>
<polygon fill="#57d9ad" stroke="#57d9ad" points="1139.5,-643 1139.5,-643 1363.5,-643 1363.5,-643 1139.5,-643"/>
<polygon fill="none" stroke="#57d9ad" stroke-width="2" points="1139,-600 1139,-730 1362,-730 1362,-600 1139,-600"/>
</g>
<!-- 3&#45;&gt;11 -->
<g id="edge19" class="edge">
<title>3&#45;&gt;11</title>
<path fill="none" stroke="grey" stroke-width="2" d="M848.43,-818.33C930.59,-802.62 1038.17,-777.27 1128.5,-740 1131.97,-738.57 1135.45,-737.05 1138.94,-735.45"/>
<polygon fill="grey" stroke="grey" stroke-width="2" points="1140.63,-738.52 1148.16,-731.07 1137.63,-732.2 1140.63,-738.52"/>
</g>
<!-- 13 -->
<g id="node14" class="node">
<title>13</title>
<text text-anchor="start" x="1420" y="-710.6" font-family="sans" font-weight="bold" font-size="18.00">jonckheere_test</text>
<text text-anchor="start" x="1388.5" y="-686.8" font-family="sans" font-size="10.00"> </text>
<text text-anchor="start" x="1392.5" y="-686.8" font-family="sans" font-weight="bold" font-size="14.00">↪ input</text>
<text text-anchor="start" x="1450.5" y="-686.8" font-family="sans" font-size="10.00"> </text>
<text text-anchor="start" x="1388.5" y="-667" font-family="monospace" font-size="10.00">tmp/GSE152075/clindata.csv</text>
<text text-anchor="start" x="1388.5" y="-649" font-family="monospace" font-size="10.00">tmp/GSE152075/norm_counts.csv</text>
<text text-anchor="start" x="1533.5" y="-628.8" font-family="sans" font-size="10.00"> </text>
<text text-anchor="start" x="1537.5" y="-628.8" font-family="sans" font-weight="bold" font-size="14.00">output →</text>
<text text-anchor="start" x="1607.5" y="-628.8" font-family="sans" font-size="10.00"> </text>
<text text-anchor="start" x="1388.5" y="-609" font-family="monospace" font-size="10.00">results/GSE152075/jonckheere_test.txt</text>
<polygon fill="#d95757" stroke="#d95757" points="1382.5,-701 1382.5,-701 1618.5,-701 1618.5,-701 1382.5,-701"/>
<polygon fill="#d95757" stroke="#d95757" points="1382.5,-643 1382.5,-643 1618.5,-643 1618.5,-643 1382.5,-643"/>
<polygon fill="none" stroke="#d95757" stroke-width="2" points="1382,-600 1382,-730 1617,-730 1617,-600 1382,-600"/>
</g>
<!-- 3&#45;&gt;13 -->
<g id="edge21" class="edge">
<title>3&#45;&gt;13</title>
<path fill="none" stroke="grey" stroke-width="2" d="M848.18,-833.58C982.21,-824.7 1196.62,-801.36 1371.5,-740 1375.77,-738.5 1380.06,-736.86 1384.35,-735.1"/>
<polygon fill="grey" stroke="grey" stroke-width="2" points="1385.91,-738.23 1393.71,-731.07 1383.14,-731.8 1385.91,-738.23"/>
</g>
<!-- 14 -->
<g id="node15" class="node">
<title>14</title>
<text text-anchor="start" x="1643.5" y="-719.6" font-family="sans" font-weight="bold" font-size="18.00">histogram_of_selected_data</text>
<text text-anchor="start" x="1643.5" y="-695.8" font-family="sans" font-size="10.00"> </text>
<text text-anchor="start" x="1647.5" y="-695.8" font-family="sans" font-weight="bold" font-size="14.00">↪ input</text>
<text text-anchor="start" x="1705.5" y="-695.8" font-family="sans" font-size="10.00"> </text>
<text text-anchor="start" x="1643.5" y="-676" font-family="monospace" font-size="10.00">tmp/GSE152075/clindata.csv</text>
<text text-anchor="start" x="1643.5" y="-658" font-family="monospace" font-size="10.00">tmp/GSE152075/norm_counts.csv</text>
<text text-anchor="start" x="1643.5" y="-640" font-family="monospace" font-size="10.00">tmp/GSE152075/raw_counts.txt</text>
<text text-anchor="start" x="1843.5" y="-619.8" font-family="sans" font-size="10.00"> </text>
<text text-anchor="start" x="1847.5" y="-619.8" font-family="sans" font-weight="bold" font-size="14.00">output →</text>
<text text-anchor="start" x="1917.5" y="-619.8" font-family="sans" font-size="10.00"> </text>
<text text-anchor="start" x="1643.5" y="-600" font-family="monospace" font-size="10.00">results/GSE152075/histogram.pdf</text>
<polygon fill="#68d957" stroke="#68d957" points="1637.5,-710 1637.5,-710 1928.5,-710 1928.5,-710 1637.5,-710"/>
<polygon fill="#68d957" stroke="#68d957" points="1637.5,-634 1637.5,-634 1928.5,-634 1928.5,-634 1637.5,-634"/>
<polygon fill="none" stroke="#68d957" stroke-width="2" points="1637.5,-591 1637.5,-739 1927.5,-739 1927.5,-591 1637.5,-591"/>
</g>
<!-- 3&#45;&gt;14 -->
<g id="edge22" class="edge">
<title>3&#45;&gt;14</title>
<path fill="none" stroke="grey" stroke-width="2" d="M848.24,-838.35C1026.42,-834.45 1356.73,-816.36 1626.5,-740 1626.6,-739.97 1626.71,-739.94 1626.81,-739.91"/>
<polygon fill="grey" stroke="grey" stroke-width="2" points="1627.93,-743.23 1636.49,-737 1625.91,-736.53 1627.93,-743.23"/>
</g>
<!-- 4&#45;&gt;1 -->
<g id="edge8" class="edge">
<title>4&#45;&gt;1</title>
<path fill="none" stroke="grey" stroke-width="2" d="M432.31,-426.24C435.06,-424.81 437.8,-423.39 440.5,-422 505.69,-388.5 578.85,-353.2 640.82,-323.98"/>
<polygon fill="grey" stroke="grey" stroke-width="2" points="642.32,-327.14 649.87,-319.71 639.34,-320.8 642.32,-327.14"/>
</g>
<!-- 5&#45;&gt;1 -->
<g id="edge4" class="edge">
<title>5&#45;&gt;1</title>
<path fill="none" stroke="grey" stroke-width="2" d="M640.28,-421.99C648.11,-413.02 656.39,-403.54 664.85,-393.86"/>
<polygon fill="grey" stroke="grey" stroke-width="2" points="667.73,-395.88 671.67,-386.05 662.45,-391.28 667.73,-395.88"/>
</g>
<!-- 6&#45;&gt;1 -->
<g id="edge2" class="edge">
<title>6&#45;&gt;1</title>
<path fill="none" stroke="grey" stroke-width="2" d="M576.63,-598.88C582.58,-595.69 588.56,-592.7 594.5,-590 649.48,-565.05 684.43,-598.26 725.5,-554 736.94,-541.67 751.5,-467.19 763.17,-396.03"/>
<polygon fill="grey" stroke="grey" stroke-width="2" points="766.65,-396.45 764.8,-386.01 759.74,-395.32 766.65,-396.45"/>
</g>
<!-- 7&#45;&gt;1 -->
<g id="edge9" class="edge">
<title>7&#45;&gt;1</title>
<path fill="none" stroke="grey" stroke-width="2" d="M746.44,-598.83C751.54,-584.29 756.27,-568.79 759.5,-554 770.58,-503.22 776.66,-446.54 779.95,-396.47"/>
<polygon fill="grey" stroke="grey" stroke-width="2" points="783.46,-396.42 780.59,-386.22 776.47,-395.98 783.46,-396.42"/>
</g>
<!-- 8 -->
<g id="node9" class="node">
<title>8</title>
<text text-anchor="start" x="818.5" y="-524.6" font-family="sans" font-weight="bold" font-size="18.00">spearman_correlation_to_pdf</text>
<text text-anchor="start" x="818.5" y="-500.8" font-family="sans" font-size="10.00"> </text>
<text text-anchor="start" x="822.5" y="-500.8" font-family="sans" font-weight="bold" font-size="14.00">↪ input</text>
<text text-anchor="start" x="880.5" y="-500.8" font-family="sans" font-size="10.00"> </text>
<text text-anchor="start" x="818.5" y="-481" font-family="monospace" font-size="10.00">results/GSE152075/spearman_correlation.txt</text>
<text text-anchor="start" x="1030.5" y="-460.8" font-family="sans" font-size="10.00"> </text>
<text text-anchor="start" x="1034.5" y="-460.8" font-family="sans" font-weight="bold" font-size="14.00">output →</text>
<text text-anchor="start" x="1104.5" y="-460.8" font-family="sans" font-size="10.00"> </text>
<text text-anchor="start" x="818.5" y="-441" font-family="monospace" font-size="10.00">results/GSE152075/spearman_correlation.pdf</text>
<polygon fill="#57bfd9" stroke="#57bfd9" points="812.5,-515 812.5,-515 1115.5,-515 1115.5,-515 812.5,-515"/>
<polygon fill="#57bfd9" stroke="#57bfd9" points="812.5,-475 812.5,-475 1115.5,-475 1115.5,-475 812.5,-475"/>
<polygon fill="none" stroke="#57bfd9" stroke-width="2" points="812.5,-432 812.5,-544 1114.5,-544 1114.5,-432 812.5,-432"/>
</g>
<!-- 8&#45;&gt;1 -->
<g id="edge10" class="edge">
<title>8&#45;&gt;1</title>
<path fill="none" stroke="grey" stroke-width="2" d="M919.47,-430.98C910.5,-419.58 900.71,-407.11 890.61,-394.27"/>
<polygon fill="grey" stroke="grey" stroke-width="2" points="893.23,-391.93 884.3,-386.23 887.72,-396.26 893.23,-391.93"/>
</g>
<!-- 9&#45;&gt;8 -->
<g id="edge16" class="edge">
<title>9&#45;&gt;8</title>
<path fill="none" stroke="grey" stroke-width="2" d="M977.94,-598.84C976.07,-584.6 974.08,-569.53 972.21,-555.25"/>
<polygon fill="grey" stroke="grey" stroke-width="2" points="975.64,-554.48 970.86,-545.03 968.7,-555.4 975.64,-554.48"/>
</g>
<!-- 10 -->
<g id="node11" class="node">
<title>10</title>
<text text-anchor="start" x="1143.5" y="-524.6" font-family="sans" font-weight="bold" font-size="18.00">wilcoxon_test_to_pdf</text>
<text text-anchor="start" x="1141.5" y="-500.8" font-family="sans" font-size="10.00"> </text>
<text text-anchor="start" x="1145.5" y="-500.8" font-family="sans" font-weight="bold" font-size="14.00">↪ input</text>
<text text-anchor="start" x="1203.5" y="-500.8" font-family="sans" font-size="10.00"> </text>
<text text-anchor="start" x="1141.5" y="-481" font-family="monospace" font-size="10.00">results/GSE152075/wilcoxon_test.txt</text>
<text text-anchor="start" x="1274.5" y="-460.8" font-family="sans" font-size="10.00"> </text>
<text text-anchor="start" x="1278.5" y="-460.8" font-family="sans" font-weight="bold" font-size="14.00">output →</text>
<text text-anchor="start" x="1348.5" y="-460.8" font-family="sans" font-size="10.00"> </text>
<text text-anchor="start" x="1141.5" y="-441" font-family="monospace" font-size="10.00">results/GSE152075/wilcoxon_test.pdf</text>
<polygon fill="#d0d957" stroke="#d0d957" points="1135.5,-515 1135.5,-515 1359.5,-515 1359.5,-515 1135.5,-515"/>
<polygon fill="#d0d957" stroke="#d0d957" points="1135.5,-475 1135.5,-475 1359.5,-475 1359.5,-475 1135.5,-475"/>
<polygon fill="none" stroke="#d0d957" stroke-width="2" points="1135,-432 1135,-544 1358,-544 1358,-432 1135,-432"/>
</g>
<!-- 10&#45;&gt;1 -->
<g id="edge6" class="edge">
<title>10&#45;&gt;1</title>
<path fill="none" stroke="grey" stroke-width="2" d="M1141.83,-430.87C1135.98,-427.85 1130.17,-424.87 1124.5,-422 1059.98,-389.32 987.89,-354.41 926.66,-325.24"/>
<polygon fill="grey" stroke="grey" stroke-width="2" points="927.86,-321.93 917.32,-320.79 924.85,-328.25 927.86,-321.93"/>
</g>
<!-- 11&#45;&gt;10 -->
<g id="edge18" class="edge">
<title>11&#45;&gt;10</title>
<path fill="none" stroke="grey" stroke-width="2" d="M1249.01,-598.84C1248.69,-584.6 1248.34,-569.53 1248.01,-555.25"/>
<polygon fill="grey" stroke="grey" stroke-width="2" points="1251.51,-554.94 1247.78,-545.03 1244.51,-555.1 1251.51,-554.94"/>
</g>
<!-- 12 -->
<g id="node13" class="node">
<title>12</title>
<text text-anchor="start" x="1384.5" y="-524.6" font-family="sans" font-weight="bold" font-size="18.00">jonckheere_test_to_pdf</text>
<text text-anchor="start" x="1384.5" y="-500.8" font-family="sans" font-size="10.00"> </text>
<text text-anchor="start" x="1388.5" y="-500.8" font-family="sans" font-weight="bold" font-size="14.00">↪ input</text>
<text text-anchor="start" x="1446.5" y="-500.8" font-family="sans" font-size="10.00"> </text>
<text text-anchor="start" x="1384.5" y="-481" font-family="monospace" font-size="10.00">results/GSE152075/jonckheere_test.txt</text>
<text text-anchor="start" x="1537.5" y="-460.8" font-family="sans" font-size="10.00"> </text>
<text text-anchor="start" x="1541.5" y="-460.8" font-family="sans" font-weight="bold" font-size="14.00">output →</text>
<text text-anchor="start" x="1611.5" y="-460.8" font-family="sans" font-size="10.00"> </text>
<text text-anchor="start" x="1384.5" y="-441" font-family="monospace" font-size="10.00">results/GSE152075/jonckheere_test.pdf</text>
<polygon fill="#d9bf57" stroke="#d9bf57" points="1378.5,-515 1378.5,-515 1622.5,-515 1622.5,-515 1378.5,-515"/>
<polygon fill="#d9bf57" stroke="#d9bf57" points="1378.5,-475 1378.5,-475 1622.5,-475 1622.5,-475 1378.5,-475"/>
<polygon fill="none" stroke="#d9bf57" stroke-width="2" points="1378,-432 1378,-544 1621,-544 1621,-432 1378,-432"/>
</g>
<!-- 12&#45;&gt;1 -->
<g id="edge3" class="edge">
<title>12&#45;&gt;1</title>
<path fill="none" stroke="grey" stroke-width="2" d="M1389.25,-430.88C1381.95,-427.73 1374.66,-424.74 1367.5,-422 1220.78,-365.82 1046.74,-319.43 927.05,-290.49"/>
<polygon fill="grey" stroke="grey" stroke-width="2" points="927.63,-287.03 917.08,-288.09 925.99,-293.83 927.63,-287.03"/>
</g>
<!-- 13&#45;&gt;12 -->
<g id="edge20" class="edge">
<title>13&#45;&gt;12</title>
<path fill="none" stroke="grey" stroke-width="2" d="M1499.5,-598.84C1499.5,-584.6 1499.5,-569.53 1499.5,-555.25"/>
<polygon fill="grey" stroke="grey" stroke-width="2" points="1503,-555.03 1499.5,-545.03 1496,-555.03 1503,-555.03"/>
</g>
<!-- 14&#45;&gt;1 -->
<g id="edge7" class="edge">
<title>14&#45;&gt;1</title>
<path fill="none" stroke="grey" stroke-width="2" d="M1755.03,-589.89C1730.73,-534.89 1689.85,-462.66 1630.5,-422 1518.19,-345.07 1138.34,-294.7 927.51,-271.96"/>
<polygon fill="grey" stroke="grey" stroke-width="2" points="927.6,-268.45 917.28,-270.87 926.85,-275.41 927.6,-268.45"/>
</g>
</g>
</svg>
