<?xml version="1.0" encoding="UTF-8" standalone="no"?>
<!DOCTYPE svg PUBLIC "-//W3C//DTD SVG 1.1//EN"
 "http://www.w3.org/Graphics/SVG/1.1/DTD/svg11.dtd">
<!-- Generated by graphviz version 2.43.0 (0)
 -->
<!-- Title: snakemake_dag Pages: 1 -->
<svg width="558pt" height="260pt"
 viewBox="0.00 0.00 558.00 260.00" xmlns="http://www.w3.org/2000/svg" xmlns:xlink="http://www.w3.org/1999/xlink">
<g id="graph0" class="graph" transform="scale(1 1) rotate(0) translate(4 256)">
<title>snakemake_dag</title>
<polygon fill="white" stroke="transparent" points="-4,4 -4,-256 554,-256 554,4 -4,4"/>
<!-- 0 -->
<g id="node1" class="node">
<title>0</title>
<path fill="none" stroke="#97d856" stroke-width="2" stroke-dasharray="5,2" d="M356,-36C356,-36 326,-36 326,-36 320,-36 314,-30 314,-24 314,-24 314,-12 314,-12 314,-6 320,0 326,0 326,0 356,0 356,0 362,0 368,-6 368,-12 368,-12 368,-24 368,-24 368,-30 362,-36 356,-36"/>
<text text-anchor="middle" x="341" y="-15.5" font-family="sans" font-size="10.00">all</text>
</g>
<!-- 1 -->
<g id="node2" class="node">
<title>1</title>
<path fill="none" stroke="#56d89a" stroke-width="2" stroke-dasharray="5,2" d="M306,-108C306,-108 220,-108 220,-108 214,-108 208,-102 208,-96 208,-96 208,-84 208,-84 208,-78 214,-72 220,-72 220,-72 306,-72 306,-72 312,-72 318,-78 318,-84 318,-84 318,-96 318,-96 318,-102 312,-108 306,-108"/>
<text text-anchor="middle" x="263" y="-87.5" font-family="sans" font-size="10.00">summarize_results</text>
</g>
<!-- 1&#45;&gt;0 -->
<g id="edge1" class="edge">
<title>1&#45;&gt;0</title>
<path fill="none" stroke="grey" stroke-width="2" d="M282.28,-71.7C291.92,-63.05 303.73,-52.45 314.23,-43.03"/>
<polygon fill="grey" stroke="grey" stroke-width="2" points="316.84,-45.39 321.94,-36.1 312.16,-40.18 316.84,-45.39"/>
</g>
<!-- 2 -->
<g id="node3" class="node">
<title>2</title>
<path fill="none" stroke="#56d8d8" stroke-width="2" stroke-dasharray="5,2" d="M50,-180C50,-180 12,-180 12,-180 6,-180 0,-174 0,-168 0,-168 0,-156 0,-156 0,-150 6,-144 12,-144 12,-144 50,-144 50,-144 56,-144 62,-150 62,-156 62,-156 62,-168 62,-168 62,-174 56,-180 50,-180"/>
<text text-anchor="middle" x="31" y="-159.5" font-family="sans" font-size="10.00">plot_MX1</text>
</g>
<!-- 2&#45;&gt;1 -->
<g id="edge3" class="edge">
<title>2&#45;&gt;1</title>
<path fill="none" stroke="grey" stroke-width="2" d="M62.29,-147.24C65.21,-146.09 68.15,-144.99 71,-144 112.66,-129.47 160.49,-116.26 197.99,-106.66"/>
<polygon fill="grey" stroke="grey" stroke-width="2" points="198.95,-110.02 207.78,-104.17 197.23,-103.24 198.95,-110.02"/>
</g>
<!-- 3 -->
<g id="node4" class="node">
<title>3</title>
<path fill="none" stroke="#d85656" stroke-width="2" stroke-dasharray="5,2" d="M333,-252C333,-252 193,-252 193,-252 187,-252 181,-246 181,-240 181,-240 181,-228 181,-228 181,-222 187,-216 193,-216 193,-216 333,-216 333,-216 339,-216 345,-222 345,-228 345,-228 345,-240 345,-240 345,-246 339,-252 333,-252"/>
<text text-anchor="middle" x="263" y="-231.5" font-family="sans" font-size="10.00">load_data_and_annotate_data</text>
</g>
<!-- 3&#45;&gt;2 -->
<g id="edge7" class="edge">
<title>3&#45;&gt;2</title>
<path fill="none" stroke="grey" stroke-width="2" d="M192.55,-215.94C158.37,-207.11 116.64,-195.5 71.88,-180.11"/>
<polygon fill="grey" stroke="grey" stroke-width="2" points="72.88,-176.75 62.29,-176.76 70.58,-183.36 72.88,-176.75"/>
</g>
<!-- 4 -->
<g id="node5" class="node">
<title>4</title>
<path fill="none" stroke="#569ad8" stroke-width="2" stroke-dasharray="5,2" d="M181.5,-180C181.5,-180 92.5,-180 92.5,-180 86.5,-180 80.5,-174 80.5,-168 80.5,-168 80.5,-156 80.5,-156 80.5,-150 86.5,-144 92.5,-144 92.5,-144 181.5,-144 181.5,-144 187.5,-144 193.5,-150 193.5,-156 193.5,-156 193.5,-168 193.5,-168 193.5,-174 187.5,-180 181.5,-180"/>
<text text-anchor="middle" x="137" y="-159.5" font-family="sans" font-size="10.00">plot_MX1_and_MX2</text>
</g>
<!-- 3&#45;&gt;4 -->
<g id="edge8" class="edge">
<title>3&#45;&gt;4</title>
<path fill="none" stroke="grey" stroke-width="2" d="M232.18,-215.88C215.55,-206.64 194.84,-195.13 176.98,-185.21"/>
<polygon fill="grey" stroke="grey" stroke-width="2" points="178.38,-181.99 167.94,-180.19 174.98,-188.11 178.38,-181.99"/>
</g>
<!-- 5 -->
<g id="node6" class="node">
<title>5</title>
<path fill="none" stroke="#d6d856" stroke-width="2" stroke-dasharray="5,2" d="M302,-180C302,-180 224,-180 224,-180 218,-180 212,-174 212,-168 212,-168 212,-156 212,-156 212,-150 218,-144 224,-144 224,-144 302,-144 302,-144 308,-144 314,-150 314,-156 314,-156 314,-168 314,-168 314,-174 308,-180 302,-180"/>
<text text-anchor="middle" x="263" y="-159.5" font-family="sans" font-size="10.00">PCA_and_3D_plot</text>
</g>
<!-- 3&#45;&gt;5 -->
<g id="edge9" class="edge">
<title>3&#45;&gt;5</title>
<path fill="none" stroke="grey" stroke-width="2" d="M263,-215.7C263,-207.98 263,-198.71 263,-190.11"/>
<polygon fill="grey" stroke="grey" stroke-width="2" points="266.5,-190.1 263,-180.1 259.5,-190.1 266.5,-190.1"/>
</g>
<!-- 6 -->
<g id="node7" class="node">
<title>6</title>
<path fill="none" stroke="#59d856" stroke-width="2" stroke-dasharray="5,2" d="M475.5,-180C475.5,-180 344.5,-180 344.5,-180 338.5,-180 332.5,-174 332.5,-168 332.5,-168 332.5,-156 332.5,-156 332.5,-150 338.5,-144 344.5,-144 344.5,-144 475.5,-144 475.5,-144 481.5,-144 487.5,-150 487.5,-156 487.5,-156 487.5,-168 487.5,-168 487.5,-174 481.5,-180 475.5,-180"/>
<text text-anchor="middle" x="410" y="-159.5" font-family="sans" font-size="10.00">histogram_of_selected_data</text>
</g>
<!-- 3&#45;&gt;6 -->
<g id="edge10" class="edge">
<title>3&#45;&gt;6</title>
<path fill="none" stroke="grey" stroke-width="2" d="M298.96,-215.88C318.88,-206.39 343.82,-194.51 365.02,-184.42"/>
<polygon fill="grey" stroke="grey" stroke-width="2" points="366.63,-187.53 374.16,-180.07 363.62,-181.21 366.63,-187.53"/>
</g>
<!-- 7 -->
<g id="node8" class="node">
<title>7</title>
<path fill="none" stroke="#d89556" stroke-width="2" stroke-dasharray="5,2" d="M538,-108C538,-108 396,-108 396,-108 390,-108 384,-102 384,-96 384,-96 384,-84 384,-84 384,-78 390,-72 396,-72 396,-72 538,-72 538,-72 544,-72 550,-78 550,-84 550,-84 550,-96 550,-96 550,-102 544,-108 538,-108"/>
<text text-anchor="middle" x="467" y="-87.5" font-family="sans" font-size="10.00">wilcoxon_and_jonckheere_test</text>
</g>
<!-- 3&#45;&gt;7 -->
<g id="edge11" class="edge">
<title>3&#45;&gt;7</title>
<path fill="none" stroke="grey" stroke-width="2" d="M345.28,-225.17C404.83,-217.61 478.05,-203.72 497,-180 511.74,-161.55 500.2,-135.49 487.4,-116.34"/>
<polygon fill="grey" stroke="grey" stroke-width="2" points="490.17,-114.19 481.52,-108.08 484.47,-118.25 490.17,-114.19"/>
</g>
<!-- 4&#45;&gt;1 -->
<g id="edge4" class="edge">
<title>4&#45;&gt;1</title>
<path fill="none" stroke="grey" stroke-width="2" d="M167.82,-143.88C184.45,-134.64 205.16,-123.13 223.02,-113.21"/>
<polygon fill="grey" stroke="grey" stroke-width="2" points="225.02,-116.11 232.06,-108.19 221.62,-109.99 225.02,-116.11"/>
</g>
<!-- 5&#45;&gt;1 -->
<g id="edge5" class="edge">
<title>5&#45;&gt;1</title>
<path fill="none" stroke="grey" stroke-width="2" d="M263,-143.7C263,-135.98 263,-126.71 263,-118.11"/>
<polygon fill="grey" stroke="grey" stroke-width="2" points="266.5,-118.1 263,-108.1 259.5,-118.1 266.5,-118.1"/>
</g>
<!-- 6&#45;&gt;1 -->
<g id="edge6" class="edge">
<title>6&#45;&gt;1</title>
<path fill="none" stroke="grey" stroke-width="2" d="M374.04,-143.88C354.12,-134.39 329.18,-122.51 307.98,-112.42"/>
<polygon fill="grey" stroke="grey" stroke-width="2" points="309.38,-109.21 298.84,-108.07 306.37,-115.53 309.38,-109.21"/>
</g>
<!-- 7&#45;&gt;0 -->
<g id="edge2" class="edge">
<title>7&#45;&gt;0</title>
<path fill="none" stroke="grey" stroke-width="2" d="M436.18,-71.88C418.27,-61.93 395.62,-49.35 376.91,-38.95"/>
<polygon fill="grey" stroke="grey" stroke-width="2" points="378.52,-35.84 368.08,-34.05 375.12,-41.96 378.52,-35.84"/>
</g>
</g>
</svg>
